<?xml version="1.0" encoding="UTF-8"?>
<svg id="Layer_1" data-name="Layer 1" xmlns="http://www.w3.org/2000/svg" viewBox="0 0 3454.28 2984.91">
  <defs>
    <style>
      .cls-1 {
        fill: none;
        opacity: .39;
        stroke: #ff2daf;
        stroke-miterlimit: 10;
        stroke-width: 3px;
      }
    </style>
  </defs>
  <ellipse class="cls-1" cx="626.18" cy="32.56" rx="10.35" ry="31.06"/>
  <ellipse class="cls-1" cx="615.83" cy="84.33" rx="20.71" ry="82.83"/>
  <ellipse class="cls-1" cx="612.38" cy="115.39" rx="24.16" ry="113.89"/>
  <ellipse class="cls-1" cx="602.02" cy="208.58" rx="34.51" ry="207.08"/>
  <ellipse class="cls-1" cx="595.12" cy="301.76" rx="41.42" ry="300.26"/>
  <ellipse class="cls-1" cx="605.47" cy="388.04" rx="31.06" ry="386.54"/>
  <ellipse class="cls-1" cx="639.99" cy="477.78" rx="3.45" ry="476.28"/>
  <ellipse class="cls-1" cx="688.3" cy="546.8" rx="51.77" ry="545.3"/>
  <ellipse class="cls-1" cx="736.62" cy="595.12" rx="100.09" ry="593.62"/>
  <ellipse class="cls-1" cx="757.33" cy="608.93" rx="120.79" ry="607.43"/>
  <ellipse class="cls-1" cx="805.65" cy="633.08" rx="169.11" ry="631.58"/>
  <ellipse class="cls-1" cx="857.42" cy="643.44" rx="220.88" ry="641.94"/>
  <ellipse class="cls-1" cx="981.66" cy="636.54" rx="345.13" ry="635.04"/>
  <ellipse class="cls-1" cx="1029.98" cy="622.73" rx="393.45" ry="621.23"/>
  <ellipse class="cls-1" cx="1074.85" cy="602.02" rx="438.31" ry="600.52"/>
  <ellipse class="cls-1" cx="1085.2" cy="588.22" rx="448.67" ry="586.72"/>
  <ellipse class="cls-1" cx="1109.36" cy="560.61" rx="472.83" ry="559.11"/>
  <ellipse class="cls-1" cx="1123.17" cy="526.09" rx="486.63" ry="524.59"/>
  <circle class="cls-1" cx="1126.62" cy="491.58" r="490.08"/>
  <ellipse class="cls-1" cx="1130.07" cy="457.07" rx="493.53" ry="455.57"/>
  <ellipse class="cls-1" cx="1130.07" cy="439.81" rx="493.53" ry="438.31"/>
  <ellipse class="cls-1" cx="1133.52" cy="388.04" rx="496.98" ry="386.54"/>
  <ellipse class="cls-1" cx="1133.52" cy="377.69" rx="496.98" ry="376.19"/>
  <ellipse class="cls-1" cx="1133.52" cy="353.53" rx="496.98" ry="352.03"/>
  <ellipse class="cls-1" cx="1133.52" cy="332.82" rx="496.98" ry="331.32"/>
  <ellipse class="cls-1" cx="1133.52" cy="315.57" rx="496.98" ry="314.07"/>
  <ellipse class="cls-1" cx="1130.07" cy="312.12" rx="493.53" ry="310.62"/>
  <ellipse class="cls-1" cx="1123.17" cy="294.86" rx="486.63" ry="293.36"/>
  <ellipse class="cls-1" cx="1112.81" cy="281.05" rx="476.28" ry="279.55"/>
  <ellipse class="cls-1" cx="1112.81" cy="281.05" rx="476.28" ry="279.55"/>
  <ellipse class="cls-1" cx="1102.46" cy="270.7" rx="465.92" ry="269.2"/>
  <ellipse class="cls-1" cx="1092.75" cy="274.15" rx="456.22" ry="272.65"/>
  <ellipse class="cls-1" cx="1092.75" cy="274.15" rx="456.22" ry="272.65"/>
  <ellipse class="cls-1" cx="1085.2" cy="274.15" rx="448.67" ry="272.65"/>
  <ellipse class="cls-1" cx="1085.2" cy="274.15" rx="448.67" ry="272.65"/>
  <ellipse class="cls-1" cx="1085.2" cy="274.15" rx="448.67" ry="272.65"/>
  <ellipse class="cls-1" cx="1085.2" cy="274.15" rx="448.67" ry="272.65"/>
  <ellipse class="cls-1" cx="1074.85" cy="274.15" rx="438.31" ry="272.65"/>
  <ellipse class="cls-1" cx="1071.4" cy="284.51" rx="434.86" ry="283.01"/>
  <ellipse class="cls-1" cx="1057.59" cy="305.21" rx="421.06" ry="303.71"/>
  <ellipse class="cls-1" cx="1050.69" cy="315.57" rx="414.15" ry="314.07"/>
  <ellipse class="cls-1" cx="1043.79" cy="322.47" rx="407.25" ry="320.97"/>
  <ellipse class="cls-1" cx="1040.34" cy="332.82" rx="403.8" ry="331.32"/>
  <ellipse class="cls-1" cx="1036.88" cy="346.63" rx="400.35" ry="345.13"/>
  <ellipse class="cls-1" cx="1036.88" cy="360.43" rx="400.35" ry="358.93"/>
  <ellipse class="cls-1" cx="1036.88" cy="381.14" rx="400.35" ry="379.64"/>
  <ellipse class="cls-1" cx="1036.88" cy="405.3" rx="400.35" ry="403.8"/>
  <ellipse class="cls-1" cx="1040.34" cy="432.91" rx="403.8" ry="431.41"/>
  <ellipse class="cls-1" cx="1054.14" cy="477.78" rx="417.61" ry="476.28"/>
  <ellipse class="cls-1" cx="1067.95" cy="508.84" rx="431.41" ry="507.34"/>
  <ellipse class="cls-1" cx="1081.75" cy="536.45" rx="445.22" ry="534.95"/>
  <ellipse class="cls-1" cx="1109.36" cy="577.86" rx="472.83" ry="576.36"/>
  <ellipse class="cls-1" cx="1140.42" cy="622.73" rx="503.89" ry="621.23"/>
  <ellipse class="cls-1" cx="1174.94" cy="660.69" rx="538.4" ry="659.19"/>
  <ellipse class="cls-1" cx="1216.35" cy="705.56" rx="579.82" ry="704.06"/>
  <ellipse class="cls-1" cx="1237.06" cy="722.82" rx="600.52" ry="721.32"/>
  <ellipse class="cls-1" cx="1288.83" cy="764.23" rx="652.29" ry="762.73"/>
  <ellipse class="cls-1" cx="1423.43" cy="840.16" rx="786.89" ry="838.66"/>
  <ellipse class="cls-1" cx="1499.36" cy="874.67" rx="862.82" ry="873.17"/>
  <ellipse class="cls-1" cx="1582.19" cy="902.28" rx="945.65" ry="900.78"/>
  <ellipse class="cls-1" cx="1651.21" cy="922.99" rx="1014.68" ry="921.49"/>
  <ellipse class="cls-1" cx="1675.37" cy="929.89" rx="1038.84" ry="928.39"/>
  <ellipse class="cls-1" cx="1723.69" cy="936.8" rx="1087.15" ry="935.3"/>
  <ellipse class="cls-1" cx="1751.3" cy="940.25" rx="1114.76" ry="938.75"/>
  <ellipse class="cls-1" cx="1772.01" cy="940.25" rx="1135.47" ry="938.75"/>
  <ellipse class="cls-1" cx="1792.71" cy="940.25" rx="1156.18" ry="938.75"/>
  <ellipse class="cls-1" cx="1847.94" cy="922.99" rx="1211.4" ry="921.49"/>
  <ellipse class="cls-1" cx="1865.19" cy="916.09" rx="1228.66" ry="914.59"/>
  <ellipse class="cls-1" cx="1906.61" cy="902.28" rx="1270.07" ry="900.78"/>
  <ellipse class="cls-1" cx="1948.02" cy="895.38" rx="1311.49" ry="893.88"/>
  <ellipse class="cls-1" cx="1968.73" cy="888.48" rx="1332.19" ry="886.98"/>
  <ellipse class="cls-1" cx="1992.89" cy="878.13" rx="1356.35" ry="876.63"/>
  <ellipse class="cls-1" cx="2006.69" cy="871.22" rx="1370.16" ry="869.72"/>
  <ellipse class="cls-1" cx="2010.15" cy="871.22" rx="1373.61" ry="869.72"/>
  <ellipse class="cls-1" cx="2010.15" cy="871.22" rx="1373.61" ry="869.72"/>
  <ellipse class="cls-1" cx="2010.15" cy="871.22" rx="1373.61" ry="869.72"/>
  <ellipse class="cls-1" cx="2013.6" cy="871.22" rx="1377.06" ry="869.72"/>
  <ellipse class="cls-1" cx="2013.6" cy="874.67" rx="1377.06" ry="873.17"/>
  <ellipse class="cls-1" cx="2017.05" cy="878.13" rx="1380.51" ry="876.63"/>
  <ellipse class="cls-1" cx="2023.95" cy="909.19" rx="1387.42" ry="907.69"/>
  <ellipse class="cls-1" cx="2030.85" cy="933.35" rx="1394.32" ry="931.85"/>
  <ellipse class="cls-1" cx="2037.76" cy="964.41" rx="1401.22" ry="962.91"/>
  <ellipse class="cls-1" cx="2044.66" cy="1009.27" rx="1408.12" ry="1007.77"/>
  <ellipse class="cls-1" cx="2044.66" cy="1047.24" rx="1408.12" ry="1045.74"/>
  <ellipse class="cls-1" cx="2041.21" cy="1088.65" rx="1404.67" ry="1087.15"/>
  <ellipse class="cls-1" cx="2027.4" cy="1123.17" rx="1390.87" ry="1121.67"/>
  <ellipse class="cls-1" cx="2006.69" cy="1164.58" rx="1370.16" ry="1163.08"/>
  <ellipse class="cls-1" cx="1965.28" cy="1226.7" rx="1328.74" ry="1225.2"/>
  <ellipse class="cls-1" cx="1913.51" cy="1281.93" rx="1276.97" ry="1280.43"/>
  <ellipse class="cls-1" cx="1851.39" cy="1333.69" rx="1214.85" ry="1332.19"/>
  <ellipse class="cls-1" cx="1775.46" cy="1385.46" rx="1138.92" ry="1383.96"/>
  <ellipse class="cls-1" cx="1696.08" cy="1419.98" rx="1059.54" ry="1418.48"/>
  <ellipse class="cls-1" cx="1613.25" cy="1451.04" rx="976.71" ry="1449.54"/>
  <ellipse class="cls-1" cx="1585.64" cy="1457.94" rx="949.1" ry="1456.44"/>
  <ellipse class="cls-1" cx="1526.97" cy="1468.29" rx="890.43" ry="1466.79"/>
  <ellipse class="cls-1" cx="1485.55" cy="1475.2" rx="849.02" ry="1473.7"/>
  <ellipse class="cls-1" cx="1416.53" cy="1478.65" rx="779.99" ry="1477.15"/>
  <ellipse class="cls-1" cx="1378.56" cy="1475.2" rx="742.03" ry="1473.7"/>
  <ellipse class="cls-1" cx="1337.15" cy="1475.2" rx="700.61" ry="1473.7"/>
  <ellipse class="cls-1" cx="1292.28" cy="1475.2" rx="655.74" ry="1473.7"/>
  <ellipse class="cls-1" cx="1268.12" cy="1475.2" rx="631.58" ry="1473.7"/>
  <ellipse class="cls-1" cx="1226.7" cy="1471.75" rx="590.17" ry="1470.25"/>
  <ellipse class="cls-1" cx="1185.29" cy="1471.75" rx="548.75" ry="1470.25"/>
  <ellipse class="cls-1" cx="1157.68" cy="1471.75" rx="521.14" ry="1470.25"/>
  <ellipse class="cls-1" cx="1133.52" cy="1471.75" rx="496.98" ry="1470.25"/>
  <ellipse class="cls-1" cx="1116.26" cy="1471.75" rx="479.73" ry="1470.25"/>
  <ellipse class="cls-1" cx="1109.36" cy="1470.47" rx="472.83" ry="1468.97"/>
  <ellipse class="cls-1" cx="1085.2" cy="1471.75" rx="448.67" ry="1470.25"/>
  <ellipse class="cls-1" cx="1054.14" cy="1471.75" rx="417.61" ry="1470.25"/>
  <ellipse class="cls-1" cx="1023.08" cy="1471.75" rx="386.54" ry="1470.25"/>
  <ellipse class="cls-1" cx="988.57" cy="1464.84" rx="352.03" ry="1463.34"/>
  <ellipse class="cls-1" cx="954.05" cy="1457.94" rx="317.52" ry="1456.44"/>
  <ellipse class="cls-1" cx="916.09" cy="1447.59" rx="279.55" ry="1446.09"/>
  <ellipse class="cls-1" cx="857.42" cy="1440.68" rx="220.88" ry="1439.18"/>
  <ellipse class="cls-1" cx="826.36" cy="1433.78" rx="189.82" ry="1432.28"/>
  <ellipse class="cls-1" cx="805.65" cy="1430.33" rx="169.11" ry="1428.83"/>
  <ellipse class="cls-1" cx="788.39" cy="1430.33" rx="151.86" ry="1428.83"/>
  <ellipse class="cls-1" cx="774.59" cy="1426.88" rx="138.05" ry="1425.38"/>
  <ellipse class="cls-1" cx="764.23" cy="1426.88" rx="127.7" ry="1425.38"/>
  <ellipse class="cls-1" cx="757.33" cy="1426.88" rx="120.79" ry="1425.38"/>
  <ellipse class="cls-1" cx="750.43" cy="1426.88" rx="113.89" ry="1425.38"/>
  <ellipse class="cls-1" cx="719.37" cy="1426.88" rx="82.83" ry="1425.38"/>
  <ellipse class="cls-1" cx="702.11" cy="1430.33" rx="65.57" ry="1428.83"/>
  <ellipse class="cls-1" cx="681.4" cy="1430.33" rx="44.87" ry="1428.83"/>
  <ellipse class="cls-1" cx="664.15" cy="1430.33" rx="27.61" ry="1428.83"/>
  <ellipse class="cls-1" cx="657.24" cy="1430.33" rx="20.71" ry="1428.83"/>
  <ellipse class="cls-1" cx="643.44" cy="1433.78" rx="6.9" ry="1432.28"/>
  <ellipse class="cls-1" cx="629.63" cy="1433.78" rx="6.9" ry="1432.28"/>
  <ellipse class="cls-1" cx="615.83" cy="1433.78" rx="20.71" ry="1432.28"/>
  <ellipse class="cls-1" cx="605.47" cy="1433.78" rx="31.06" ry="1432.28"/>
  <ellipse class="cls-1" cx="595.12" cy="1433.78" rx="41.42" ry="1432.28"/>
  <ellipse class="cls-1" cx="584.77" cy="1433.78" rx="51.77" ry="1432.28"/>
  <ellipse class="cls-1" cx="577.86" cy="1433.78" rx="58.67" ry="1432.28"/>
  <ellipse class="cls-1" cx="560.61" cy="1437.23" rx="75.93" ry="1435.73"/>
  <ellipse class="cls-1" cx="533" cy="1440.68" rx="103.54" ry="1439.18"/>
  <ellipse class="cls-1" cx="498.48" cy="1444.14" rx="138.05" ry="1442.64"/>
  <ellipse class="cls-1" cx="453.62" cy="1447.59" rx="182.92" ry="1446.09"/>
  <ellipse class="cls-1" cx="436.36" cy="1451.04" rx="200.17" ry="1449.54"/>
  <ellipse class="cls-1" cx="408.75" cy="1457.94" rx="227.78" ry="1456.44"/>
  <ellipse class="cls-1" cx="391.49" cy="1461.39" rx="245.04" ry="1459.89"/>
  <ellipse class="cls-1" cx="360.43" cy="1471.75" rx="276.1" ry="1470.25"/>
  <ellipse class="cls-1" cx="346.63" cy="1475.2" rx="289.91" ry="1473.7"/>
  <ellipse class="cls-1" cx="332.82" cy="1482.1" rx="303.71" ry="1480.6"/>
  <ellipse class="cls-1" cx="319.02" cy="1492.45" rx="317.52" ry="1490.95"/>
</svg>