<?xml version="1.0" encoding="UTF-8"?>
<svg id="Layer_1" data-name="Layer 1" xmlns="http://www.w3.org/2000/svg" viewBox="0 0 2654.56 2718.68">
  <defs>
    <style>
      .cls-1 {
        fill: none;
        opacity: .32;
        stroke: #ff2daf;
        stroke-miterlimit: 10;
        stroke-width: 3px;
      }
    </style>
  </defs>
  <polygon class="cls-1" points="1365.75 1387.71 1335.71 1376.38 1315.65 1401.45 1317.14 1369.38 1287.09 1358.05 1318.06 1349.55 1319.55 1317.48 1337.2 1344.3 1368.16 1335.81 1348.1 1360.88 1365.75 1387.71"/>
  <polygon class="cls-1" points="1394 1425.83 1337.12 1396.86 1291.99 1441.99 1301.97 1378.95 1245.1 1349.97 1308.15 1339.98 1318.13 1276.94 1347.11 1333.81 1410.15 1323.83 1365.02 1368.96 1394 1425.83"/>
  <polygon class="cls-1" points="1417.37 1439.33 1343.09 1405.46 1287.93 1465.64 1297.18 1384.53 1222.9 1350.66 1302.91 1334.4 1312.16 1253.29 1352.35 1324.35 1432.35 1308.09 1377.19 1368.27 1417.37 1439.33"/>
  <polygon class="cls-1" points="1469 1490.95 1350.48 1434.54 1260.21 1529.83 1277.23 1399.68 1158.72 1343.27 1287.75 1319.25 1304.78 1189.1 1367.5 1304.4 1496.54 1280.37 1406.27 1375.65 1469 1490.95"/>
  <polygon class="cls-1" points="1560 1562.19 1368.75 1476.68 1228.33 1632.15 1250.55 1423.84 1059.3 1338.33 1264.28 1295.09 1286.51 1086.78 1390.97 1268.37 1595.95 1225.13 1455.53 1380.6 1560 1562.19"/>
  <polygon class="cls-1" points="1612.87 1605.18 1378.94 1501.91 1208.43 1692.48 1234.36 1438.08 1000.43 1334.8 1250.39 1280.85 1276.32 1026.45 1404.87 1247.51 1654.83 1193.56 1484.32 1384.13 1612.87 1605.18"/>
  <polygon class="cls-1" points="1683 1645.67 1396.85 1527.72 1196.24 1763.43 1219.99 1454.83 933.83 1336.88 1234.67 1264.1 1258.41 955.5 1420.59 1219.12 1721.42 1146.34 1520.82 1382.05 1683 1645.67"/>
  <polygon class="cls-1" points="1735.88 1688.66 1407.03 1552.94 1176.34 1823.76 1203.8 1469.07 874.96 1333.35 1220.77 1249.86 1248.22 895.17 1434.49 1198.26 1780.3 1114.76 1549.61 1385.57 1735.88 1688.66"/>
  <polygon class="cls-1" points="1781.38 1724.28 1416.17 1574.01 1160.4 1874.91 1190.46 1481.15 825.25 1330.88 1209.03 1237.78 1239.09 844.01 1446.22 1180.25 1830.01 1087.15 1574.24 1388.05 1781.38 1724.28"/>
  <polygon class="cls-1" points="1796.13 1739.03 1418.28 1582.32 1152.48 1893.25 1184.76 1485.48 806.91 1328.77 1204.7 1233.45 1236.98 825.68 1450.55 1174.54 1848.35 1079.23 1582.55 1390.16 1796.13 1739.03"/>
  <polygon class="cls-1" points="1818.25 1761.15 1421.45 1594.79 1140.6 1920.76 1176.21 1491.97 779.4 1325.61 1198.21 1226.96 1233.81 798.17 1457.05 1165.99 1875.85 1067.35 1595.01 1393.32 1818.25 1761.15"/>
  <polygon class="cls-1" points="1849 1782.02 1428.47 1607.55 1132.58 1953.58 1168.57 1499.72 748.03 1325.24 1190.8 1219.21 1226.79 765.35 1464.45 1153.68 1907.22 1047.65 1611.34 1393.69 1849 1782.02"/>
  <polygon class="cls-1" points="1849 1782.02 1428.47 1607.55 1132.58 1953.58 1168.57 1499.72 748.03 1325.24 1190.8 1219.21 1226.79 765.35 1464.45 1153.68 1907.22 1047.65 1611.34 1393.69 1849 1782.02"/>
  <polygon class="cls-1" points="1885.87 1818.89 1433.75 1628.32 1112.79 1999.43 1154.31 1510.54 702.19 1319.97 1179.98 1208.39 1221.51 719.5 1475.27 1139.43 1953.07 1027.85 1632.11 1398.96 1885.87 1818.89"/>
  <polygon class="cls-1" points="1916.63 1839.76 1440.77 1641.08 1104.76 2032.25 1146.67 1518.29 670.82 1319.61 1172.58 1200.64 1214.49 686.68 1482.68 1127.12 1984.44 1008.15 1648.43 1399.32 1916.63 1839.76"/>
  <polygon class="cls-1" points="1940 1853.26 1446.74 1649.69 1100.7 2055.9 1141.88 1523.87 648.62 1320.3 1167.34 1195.06 1208.52 663.03 1487.92 1117.66 2006.64 992.41 1660.6 1398.63 1940 1853.26"/>
  <polygon class="cls-1" points="1962.13 1875.38 1449.9 1662.15 1088.82 2083.41 1133.33 1530.36 621.11 1317.13 1160.84 1188.56 1205.35 635.52 1494.41 1109.1 2034.14 980.54 1673.06 1401.8 1962.13 1875.38"/>
  <polygon class="cls-1" points="1958.81 1882.82 1446.57 1665.25 1081.36 2085.18 1130 1530.78 617.76 1313.21 1160.05 1188.15 1208.68 633.75 1495.2 1110.85 2037.49 985.78 1672.28 1405.72 1958.81 1882.82"/>
  <polygon class="cls-1" points="2000.25 1903.62 1457.98 1679.06 1076.84 2125.4 1122.84 1540.28 580.57 1315.72 1151.27 1178.65 1197.27 593.53 1503.98 1093.94 2074.68 956.88 1693.54 1403.21 2000.25 1903.62"/>
  <polygon class="cls-1" points="2047.01 1930.61 1469.92 1696.27 1068.72 2172.7 1113.26 1551.44 536.18 1317.1 1140.79 1167.49 1185.33 546.23 1514.46 1075.02 2119.08 925.4 1717.88 1401.83 2047.01 1930.61"/>
  <polygon class="cls-1" points="2092.51 1966.23 1479.06 1717.34 1052.78 2223.86 1099.92 1563.52 486.47 1314.63 1129.06 1155.41 1176.2 495.07 1526.2 1057 2168.78 897.78 1742.51 1404.3 2092.51 1966.23"/>
  <polygon class="cls-1" points="2130.63 1994.48 1487.14 1734.26 1040.8 2265.85 1089.43 1573.43 445.93 1313.21 1119.49 1145.5 1168.12 453.08 1535.77 1041.84 2209.32 874.13 1762.99 1405.72 2130.63 1994.48"/>
  <polygon class="cls-1" points="2145.38 2009.23 1489.25 1742.57 1032.88 2284.19 1083.73 1577.76 427.59 1311.1 1115.16 1141.17 1166.01 434.74 1540.1 1036.14 2227.66 866.21 1771.3 1407.83 2145.38 2009.23"/>
  <polygon class="cls-1" points="2168.76 2022.72 1495.21 1751.17 1028.82 2307.84 1078.94 1583.35 405.4 1311.8 1109.92 1135.58 1160.04 411.09 1545.34 1026.68 2249.86 850.47 1783.46 1407.13 2168.76 2022.72"/>
  <polygon class="cls-1" points="2166.39 2039 1489.93 1758.45 1014.07 2315.12 1071.85 1585.06 395.38 1304.52 1107.55 1133.87 1165.33 403.81 1547.7 1028.4 2259.88 857.75 1784.02 1414.41 2166.39 2039"/>
  <polygon class="cls-1" points="2183.65 2036.49 1497.64 1759.04 1021.79 2325.74 1073.67 1587.57 387.66 1310.12 1105.73 1131.36 1157.61 393.19 1549.52 1020.88 2267.6 842.11 1791.74 1408.81 2183.65 2036.49"/>
  <polygon class="cls-1" points="2192.28 2035.24 1501.5 1759.34 1025.65 2331.05 1074.58 1588.82 383.8 1312.93 1104.82 1130.1 1153.75 387.88 1550.43 1017.11 2271.45 834.29 1795.6 1406 2192.28 2035.24"/>
  <polygon class="cls-1" points="2205.18 2062.68 1499.49 1773.33 1006.22 2355.07 1063.34 1594.49 357.65 1305.14 1098.65 1124.44 1155.77 363.86 1556.61 1012.75 2297.61 832.05 1804.34 1413.79 2205.18 2062.68"/>
  <polygon class="cls-1" points="2229.01 2073.09 1506.46 1780.55 1004.96 2377.34 1059.9 1599.75 337.35 1307.21 1093.85 1119.18 1148.8 341.59 1561.4 1002.97 2317.9 814.93 1816.4 1411.72 2229.01 2073.09"/>
  <polygon class="cls-1" points="2251.13 2095.21 1509.63 1793.01 993.08 2404.84 1051.35 1606.25 309.84 1304.05 1087.36 1112.68 1145.63 314.08 1567.89 994.41 2345.41 803.05 1828.87 1414.88 2251.13 2095.21"/>
  <polygon class="cls-1" points="2252.21 2087.77 1512.04 1789.69 999.82 2401.52 1054.59 1605.46 314.42 1307.37 1088.44 1113.47 1143.21 317.41 1566.81 993.63 2340.84 799.72 1828.61 1411.56 2252.21 2087.77"/>
  <polygon class="cls-1" points="2272 2125.96 1509.99 1809.34 973.38 2436.21 1039.04 1613.65 277.02 1297.02 1079.61 1105.28 1145.27 282.72 1575.64 986.77 2378.23 795.03 1841.63 1421.91 2272 2125.96"/>
  <polygon class="cls-1" points="2311.38 2145.58 1520.87 1822.39 969.22 2474.34 1032.31 1622.65 241.8 1299.46 1071.3 1096.28 1134.39 244.59 1583.96 970.7 2413.46 767.51 1861.81 1419.46 2311.38 2145.58"/>
  <polygon class="cls-1" points="2333.5 2167.7 1524.04 1834.86 957.34 2501.85 1023.76 1629.15 214.29 1296.3 1064.8 1089.78 1131.22 217.08 1590.45 962.15 2440.97 755.63 1874.27 1422.63 2333.5 2167.7"/>
  <polygon class="cls-1" points="2393.75 2218.07 1535.28 1864.23 933.48 2571.35 1004.71 1645.55 146.24 1291.72 1048.74 1073.38 1119.97 147.58 1606.52 938.44 2509.01 720.1 1907.21 1427.21 2393.75 2218.07"/>
  <polygon class="cls-1" points="2414.62 2248.82 1535.64 1880.56 913.78 2602.72 992.4 1652.96 113.42 1284.69 1040.99 1065.97 1119.61 116.21 1614.26 930.8 2541.83 712.08 1919.97 1434.24 2414.62 2248.82"/>
  <polygon class="cls-1" points="2429.37 2263.57 1537.75 1888.87 905.86 2621.06 986.7 1657.29 95.08 1282.58 1036.66 1061.64 1117.5 97.87 1618.59 925.1 2560.17 704.16 1928.28 1436.35 2429.37 2263.57"/>
  <polygon class="cls-1" points="2438 2262.32 1541.61 1889.16 909.72 2626.37 987.61 1658.54 91.22 1285.39 1035.75 1060.39 1113.64 92.56 1619.5 921.33 2564.03 696.34 1932.14 1433.54 2438 2262.32"/>
  <polygon class="cls-1" points="2445.38 2269.69 1542.67 1893.32 905.76 2635.54 984.76 1660.7 82.05 1284.33 1033.59 1058.22 1112.59 83.39 1621.67 918.48 2573.2 692.38 1936.3 1434.6 2445.38 2269.69"/>
  <polygon class="cls-1" points="2452.75 2277.07 1543.72 1897.47 901.8 2644.71 981.91 1662.87 72.88 1283.27 1031.42 1056.06 1111.53 74.22 1623.83 915.63 2582.37 688.42 1940.45 1435.65 2452.75 2277.07"/>
  <polygon class="cls-1" points="2467.5 2291.81 1545.83 1905.78 893.88 2663.05 976.21 1667.2 54.54 1281.16 1027.09 1051.73 1109.42 55.88 1628.16 909.93 2600.71 680.5 1948.76 1437.76 2467.5 2291.81"/>
  <polygon class="cls-1" points="2483.5 2297.94 1550.75 1910.23 893.78 2677.53 974.27 1670.62 41.52 1282.91 1024.02 1048.31 1104.51 41.4 1631.24 903.32 2613.74 668.72 1956.77 1436.02 2483.5 2297.94"/>
  <polygon class="cls-1" points="2483.5 2297.94 1550.75 1910.23 893.78 2677.53 974.27 1670.62 41.52 1282.91 1024.02 1048.31 1104.51 41.4 1631.24 903.32 2613.74 668.72 1956.77 1436.02 2483.5 2297.94"/>
  <polygon class="cls-1" points="2490.88 2305.31 1551.8 1914.39 889.82 2686.7 971.42 1672.78 32.35 1281.86 1021.85 1046.15 1103.45 32.23 1633.4 900.47 2622.91 664.76 1960.93 1437.07 2490.88 2305.31"/>
  <polygon class="cls-1" points="2498.25 2312.68 1552.86 1918.54 885.86 2695.87 968.57 1674.95 23.18 1280.8 1019.69 1043.98 1102.4 23.06 1635.57 897.62 2632.08 660.8 1965.08 1438.13 2498.25 2312.68"/>
  <polygon class="cls-1" points="2505.62 2320.06 1553.91 1922.7 881.9 2705.04 965.72 1677.11 14.01 1279.75 1017.52 1041.82 1101.34 13.89 1637.73 894.77 2641.25 656.84 1969.24 1439.18 2505.62 2320.06"/>
  <polygon class="cls-1" points="2505.62 2320.06 1553.91 1922.7 881.9 2705.04 965.72 1677.11 14.01 1279.75 1017.52 1041.82 1101.34 13.89 1637.73 894.77 2641.25 656.84 1969.24 1439.18 2505.62 2320.06"/>
  <polygon class="cls-1" points="2514.25 2318.8 1557.77 1922.99 885.76 2710.35 966.63 1678.36 10.15 1282.55 1016.61 1040.56 1097.48 8.58 1638.64 891.01 2645.11 649.02 1973.1 1436.38 2514.25 2318.8"/>
  <polygon class="cls-1" points="2513 2327.43 1554.97 1926.85 877.94 2714.21 962.87 1679.28 4.84 1278.69 1015.36 1039.65 1100.29 4.72 1639.9 891.92 2650.42 652.88 1973.39 1440.24 2513 2327.43"/>
  <polygon class="cls-1" points="2513 2327.43 1554.97 1926.85 877.94 2714.21 962.87 1679.28 4.84 1278.69 1015.36 1039.65 1100.29 4.72 1639.9 891.92 2650.42 652.88 1973.39 1440.24 2513 2327.43"/>
  <polygon class="cls-1" points="2513 2327.43 1554.97 1926.85 877.94 2714.21 962.87 1679.28 4.84 1278.69 1015.36 1039.65 1100.29 4.72 1639.9 891.92 2650.42 652.88 1973.39 1440.24 2513 2327.43"/>
  <polygon class="cls-1" points="2513 2327.43 1554.97 1926.85 877.94 2714.21 962.87 1679.28 4.84 1278.69 1015.36 1039.65 1100.29 4.72 1639.9 891.92 2650.42 652.88 1973.39 1440.24 2513 2327.43"/>
</svg>