<?xml version="1.0" encoding="UTF-8"?>
<svg id="Vrstva_1" data-name="Vrstva 1" xmlns="http://www.w3.org/2000/svg" viewBox="0 0 215.39 225.89">
  <path d="M70,118.35c0,.3-.25.54-.55.54s-.54-.24-.54-.54.25-.55.54-.55.55.24.55.55Z"/>
  <path d="M48.57,65.38c0,.73-.6,1.33-1.33,1.33s-1.33-.6-1.33-1.33.6-1.33,1.33-1.33,1.33.6,1.33,1.33Z"/>
  <path d="M98.2,98.1c0,.65-.53,1.17-1.18,1.17s-1.18-.53-1.18-1.17.53-1.18,1.18-1.18,1.18.53,1.18,1.18Z"/>
  <path d="M42.7,99.14c0,.92-.74,1.66-1.66,1.66s-1.66-.74-1.66-1.66.74-1.66,1.66-1.66,1.66.74,1.66,1.66Z"/>
  <path d="M79.79,155.32c0,.32-.26.59-.59.59s-.59-.26-.59-.59.26-.59.59-.59.59.26.59.59Z"/>
  <path d="M54.8,117.01c0,.35-.29.64-.64.64s-.64-.29-.64-.64.28-.64.64-.64.64.29.64.64Z"/>
  <path d="M49.06,142.7c0,.4-.32.72-.72.72s-.72-.32-.72-.72.32-.72.72-.72.72.32.72.72Z"/>
  <path d="M74.66,95.37c0,.31-.25.56-.56.56s-.56-.25-.56-.56.25-.56.56-.56.56.25.56.56Z"/>
  <path d="M101.13,132.55c0,.42-.33.75-.75.75s-.75-.33-.75-.75.33-.75.75-.75.75.34.75.75Z"/>
  <path d="M61.43,142.84c0,.46-.37.82-.83.82s-.83-.37-.83-.82.37-.83.83-.83.83.37.83.83Z"/>
  <path d="M85.54,73.01c0,.54-.44.98-.98.98s-.98-.44-.98-.98.44-.98.98-.98.98.44.98.98Z"/>
  <path d="M79.72,97.25c0,.28-.23.51-.51.51s-.51-.23-.51-.51.23-.51.51-.51.51.23.51.51Z"/>
  <path d="M79.86,126.26c0,.71-.58,1.29-1.28,1.29s-1.29-.57-1.29-1.29.57-1.28,1.29-1.28,1.28.57,1.28,1.28Z"/>
  <path d="M91.21,103.38c0,.29-.23.52-.52.52s-.52-.23-.52-.52.23-.52.52-.52.52.23.52.52Z"/>
  <path d="M66.57,139.24c0,.32-.26.59-.59.59s-.59-.27-.59-.59.26-.59.59-.59.59.26.59.59Z"/>
  <path d="M57.77,141.79c0,.61-.5,1.11-1.11,1.11s-1.11-.5-1.11-1.11.5-1.11,1.11-1.11,1.11.5,1.11,1.11Z"/>
  <path d="M69.08,134.86c0,.18-.14.33-.32.33s-.33-.15-.33-.33.15-.33.33-.33.32.15.32.33Z"/>
  <path d="M3.09,134.71c0,.85-.69,1.54-1.54,1.54s-1.54-.69-1.54-1.54.69-1.54,1.54-1.54,1.54.69,1.54,1.54Z"/>
  <path d="M83.74,92.9c0,.37-.3.68-.68.68s-.68-.3-.68-.68.3-.68.68-.68.68.3.68.68Z"/>
  <path d="M109.08,140.85c0,.54-.43.97-.97.97s-.97-.43-.97-.97.43-.97.97-.97.97.43.97.97Z"/>
  <path d="M67.11,123.06c0,.48-.39.88-.88.88s-.88-.39-.88-.88.39-.88.88-.88.88.39.88.88Z"/>
  <path d="M75.24,121.75c0,.27-.21.48-.48.48s-.48-.21-.48-.48.22-.48.48-.48.48.22.48.48Z"/>
  <path d="M32.05,136.51c0,.36-.29.64-.64.64s-.64-.29-.64-.64.29-.64.64-.64.64.29.64.64Z"/>
  <path d="M28.38,125.41c0,.52-.42.94-.95.94s-.94-.42-.94-.94.42-.94.94-.94.95.42.95.94Z"/>
  <path d="M108.92,140.76c0,.39-.32.71-.71.71s-.71-.32-.71-.71.32-.71.71-.71.71.32.71.71Z"/>
  <path d="M49.52,82.93c0,.82-.66,1.48-1.48,1.48s-1.48-.66-1.48-1.48.66-1.48,1.48-1.48,1.48.66,1.48,1.48Z"/>
  <path d="M34.68,107.66c0,.48-.39.88-.87.88s-.87-.39-.87-.88.39-.87.87-.87.87.39.87.87Z"/>
  <path d="M39.54,165.3c0,.36-.29.66-.66.66s-.66-.29-.66-.66.29-.66.66-.66.66.29.66.66Z"/>
  <path d="M103.76,133.54c0,.53-.43.95-.95.95s-.95-.43-.95-.95.42-.95.95-.95.95.43.95.95Z"/>
  <path d="M41.24,181.17c0,.51-.41.92-.92.92s-.92-.41-.92-.92.41-.92.92-.92.92.41.92.92Z"/>
  <path d="M84.24,85.33c0,.55-.45,1-1,1s-1-.45-1-1,.45-1,1-1,1,.45,1,1Z"/>
  <path d="M119.9,167.69c0,.79-.64,1.42-1.43,1.42s-1.42-.64-1.42-1.42.64-1.42,1.42-1.42,1.43.64,1.43,1.42Z"/>
  <path d="M112.35,118.18c0,.83-.67,1.5-1.49,1.5s-1.49-.67-1.49-1.5.67-1.49,1.49-1.49,1.49.67,1.49,1.49Z"/>
  <path d="M122.66,112.33c0,.4-.32.72-.71.72s-.72-.32-.72-.72.32-.71.72-.71.71.32.71.71Z"/>
  <path d="M64.43,120.6c0,.34-.28.62-.62.62s-.62-.27-.62-.62.28-.62.62-.62.62.28.62.62Z"/>
  <path d="M88.03,136.78c0,.35-.28.63-.63.63s-.63-.28-.63-.63.28-.63.63-.63.63.28.63.63Z"/>
  <path d="M115.27,95.35c0,1-.81,1.82-1.82,1.82s-1.82-.81-1.82-1.82.82-1.82,1.82-1.82,1.82.81,1.82,1.82Z"/>
  <path d="M61.07,164.83c0,.55-.44,1-.99,1s-.99-.44-.99-1,.45-.99.99-.99.99.44.99.99Z"/>
  <path d="M86.94,134.77c0,.5-.41.91-.91.91s-.91-.41-.91-.91.41-.91.91-.91.91.41.91.91Z"/>
  <path d="M79.1,146.97c0,.38-.31.69-.69.69s-.69-.31-.69-.69.31-.69.69-.69.69.31.69.69Z"/>
  <path d="M41.06,184.28c0,.52-.42.94-.95.94s-.94-.42-.94-.94.42-.95.94-.95.95.42.95.95Z"/>
  <path d="M39.72,191.58c0,.48-.39.87-.87.87s-.87-.39-.87-.87.39-.87.87-.87.87.39.87.87Z"/>
  <path d="M60.97,162.36c0,.4-.33.73-.73.73s-.73-.33-.73-.73.33-.73.73-.73.73.33.73.73Z"/>
  <path d="M59.1,155.26c0,.47-.38.85-.85.85s-.85-.38-.85-.85.38-.85.85-.85.85.38.85.85Z"/>
  <path d="M98.89,109.14c0,.44-.36.79-.79.79s-.79-.36-.79-.79.35-.8.79-.8.79.36.79.8Z"/>
  <path d="M47.9,105.94c0,.5-.4.9-.9.9s-.9-.4-.9-.9.4-.9.9-.9.9.4.9.9Z"/>
  <path d="M59.9,92.53c0,.24-.19.43-.43.43s-.43-.19-.43-.43.19-.43.43-.43.43.19.43.43Z"/>
  <path d="M94.01,156.67c0,.54-.44.99-.99.99s-.98-.44-.98-.99.44-.99.98-.99.99.44.99.99Z"/>
  <path d="M116.41,112.05c0,.8-.65,1.45-1.45,1.45s-1.45-.65-1.45-1.45.65-1.45,1.45-1.45,1.45.65,1.45,1.45Z"/>
  <path d="M90.55,84.71c0,.73-.6,1.33-1.33,1.33s-1.33-.6-1.33-1.33.6-1.33,1.33-1.33,1.33.6,1.33,1.33Z"/>
  <path d="M73.33,91.58c0,.4-.32.72-.72.72s-.72-.32-.72-.72.32-.72.72-.72.72.32.72.72Z"/>
  <path d="M122.41,145.53c0,.64-.52,1.16-1.16,1.16s-1.16-.52-1.16-1.16.52-1.16,1.16-1.16,1.16.52,1.16,1.16Z"/>
  <path d="M51.99,176.38c0,.34-.28.62-.62.62s-.62-.28-.62-.62.27-.62.62-.62.62.28.62.62Z"/>
  <path d="M109.66,129.8c0,.39-.32.71-.71.71s-.71-.32-.71-.71.32-.71.71-.71.71.32.71.71Z"/>
  <path d="M34.41,146c0,.56-.45,1.01-1.01,1.01s-1.01-.45-1.01-1.01.45-1.01,1.01-1.01,1.01.45,1.01,1.01Z"/>
  <path d="M23.65,114.64c0,.6-.48,1.08-1.08,1.08s-1.08-.48-1.08-1.08.48-1.08,1.08-1.08,1.08.48,1.08,1.08Z"/>
  <path d="M22.14,152.46c0,.74-.6,1.33-1.33,1.33s-1.33-.59-1.33-1.33.6-1.33,1.33-1.33,1.33.6,1.33,1.33Z"/>
  <path d="M47.06,115.05c0,.39-.31.7-.7.7s-.7-.31-.7-.7.31-.7.7-.7.7.31.7.7Z"/>
  <path d="M80.58,169.18c0,.4-.32.73-.73.73s-.72-.32-.72-.73.32-.72.72-.72.73.32.73.72Z"/>
  <path d="M24,115.61c0,.45-.36.81-.81.81s-.81-.36-.81-.81.36-.81.81-.81.81.36.81.81Z"/>
  <circle cx="57.47" cy="108.96" r=".69"/>
  <path d="M76.91,152.37c0,.71-.58,1.29-1.29,1.29s-1.29-.58-1.29-1.29.58-1.29,1.29-1.29,1.29.58,1.29,1.29Z"/>
  <path d="M69.35,129.06c0,.35-.29.64-.64.64s-.64-.29-.64-.64.29-.64.64-.64.64.29.64.64Z"/>
  <path d="M15.26,183.53c0,.42-.34.76-.77.76s-.76-.34-.76-.76.34-.77.76-.77.77.34.77.77Z"/>
  <path d="M51.21,96.65c0,.34-.27.61-.61.61s-.61-.27-.61-.61.27-.61.61-.61.61.27.61.61Z"/>
  <path d="M57.06,176.67c0,.62-.5,1.12-1.12,1.12s-1.12-.5-1.12-1.12.5-1.12,1.12-1.12,1.12.5,1.12,1.12Z"/>
  <path d="M79.62,136.17c0,1.02-.83,1.84-1.84,1.84s-1.84-.82-1.84-1.84.82-1.84,1.84-1.84,1.84.82,1.84,1.84Z"/>
  <path d="M57.11,112.48c0,.62-.5,1.12-1.11,1.12s-1.12-.5-1.12-1.12.5-1.11,1.12-1.11,1.11.5,1.11,1.11Z"/>
  <path d="M65.7,98.09c0,.51-.41.93-.93.93s-.93-.41-.93-.93.41-.93.93-.93.93.41.93.93Z"/>
  <path d="M15.13,110.95c0,.58-.47,1.04-1.04,1.04s-1.04-.46-1.04-1.04.47-1.04,1.04-1.04,1.04.46,1.04,1.04Z"/>
  <path d="M37.62,126.57c0,.65-.52,1.17-1.17,1.17s-1.17-.53-1.17-1.17.53-1.17,1.17-1.17,1.17.53,1.17,1.17Z"/>
  <path d="M80.23,160.03c0,.33-.27.6-.6.6s-.6-.27-.6-.6.27-.6.6-.6.6.27.6.6Z"/>
  <path d="M53.69,175.98c0,.29-.24.53-.53.53s-.53-.24-.53-.53.24-.53.53-.53.53.24.53.53Z"/>
  <path d="M27.79,75.77c0,.51-.42.93-.93.93s-.93-.42-.93-.93.42-.93.93-.93.93.41.93.93Z"/>
  <circle cx="62.93" cy="47.12" r=".8"/>
  <path d="M9.08,54.18c0,.92-.75,1.67-1.67,1.67s-1.67-.75-1.67-1.67.75-1.68,1.67-1.68,1.67.75,1.67,1.68Z"/>
  <circle cx="27.23" cy="74.43" r=".95"/>
  <path d="M34.32,128.82c0,.35-.28.64-.64.64s-.64-.29-.64-.64.29-.64.64-.64.64.29.64.64Z"/>
  <path d="M65.75,118.99c0,.24-.19.43-.43.43s-.43-.19-.43-.43.19-.43.43-.43.43.19.43.43Z"/>
  <path d="M95.41,42.93c0,.23-.19.42-.42.42s-.42-.19-.42-.42.19-.42.42-.42.42.19.42.42Z"/>
  <path d="M45.77,110.92c0,.36-.29.65-.65.65s-.65-.29-.65-.65.29-.66.65-.66.65.29.65.66Z"/>
  <path d="M50.6,113.4c0,.2-.16.36-.36.36s-.36-.16-.36-.36.16-.36.36-.36.36.16.36.36Z"/>
  <path d="M81.96,70.98c0,.52-.42.93-.93.93s-.93-.42-.93-.93.42-.93.93-.93.93.42.93.93Z"/>
  <path d="M91.73,71.58c0,.45-.37.82-.82.82s-.82-.37-.82-.82.37-.82.82-.82.82.37.82.82Z"/>
  <path d="M61.04,93.87c0,.35-.28.63-.63.63s-.63-.28-.63-.63.28-.63.63-.63.63.28.63.63Z"/>
  <path d="M35.52,102.73c0,.49-.39.88-.88.88s-.88-.39-.88-.88.39-.88.88-.88.88.39.88.88Z"/>
  <path d="M19.83,119.45c0,.4-.32.72-.72.72s-.72-.32-.72-.72.32-.72.72-.72.72.32.72.72Z"/>
  <path d="M24.19,79.45c0,.56-.45,1.01-1.01,1.01s-1.01-.45-1.01-1.01.45-1,1.01-1,1.01.45,1.01,1Z"/>
  <path d="M29.46,57.92c0,.72-.59,1.3-1.3,1.3s-1.3-.58-1.3-1.3.58-1.3,1.3-1.3,1.3.58,1.3,1.3Z"/>
  <path d="M16.46,54.79c0,.55-.44.99-.99.99s-.99-.44-.99-.99.44-.99.99-.99.99.44.99.99Z"/>
  <path d="M47.25,103.18c0,.81-.65,1.46-1.46,1.46s-1.46-.65-1.46-1.46.65-1.46,1.46-1.46,1.46.65,1.46,1.46Z"/>
  <path d="M63.06,55.13c0,.33-.27.6-.6.6s-.6-.27-.6-.6.27-.6.6-.6.6.27.6.6Z"/>
  <path d="M112.6,80.58c0,.3-.25.55-.55.55s-.55-.25-.55-.55.25-.55.55-.55.55.25.55.55Z"/>
  <path d="M59.42,59.51c0,.45-.36.81-.81.81s-.81-.36-.81-.81.36-.81.81-.81.81.36.81.81Z"/>
  <path d="M17.32,74.6c0,.48-.39.87-.87.87s-.87-.39-.87-.87.39-.87.87-.87.87.39.87.87Z"/>
  <path d="M32.74,50.62c0,.43-.35.78-.78.78s-.78-.35-.78-.78.35-.78.78-.78.78.35.78.78Z"/>
  <path d="M101.14,93.25c0,.43-.35.78-.78.78s-.78-.35-.78-.78.35-.78.78-.78.78.35.78.78Z"/>
  <path d="M102.33,107.23c0,.65-.53,1.18-1.18,1.18s-1.18-.53-1.18-1.18.53-1.18,1.18-1.18,1.18.53,1.18,1.18Z"/>
  <path d="M37.63,102.97c0,.4-.32.72-.72.72s-.72-.32-.72-.72.32-.72.72-.72.72.32.72.72Z"/>
  <path d="M89.94,90.71c0,.39-.31.7-.7.7s-.7-.31-.7-.7.31-.7.7-.7.7.31.7.7Z"/>
  <path d="M109.76,107.93c0,.27-.22.48-.48.48s-.48-.22-.48-.48.22-.48.48-.48.48.22.48.48Z"/>
  <path d="M116.88,71.32c0,.85-.69,1.54-1.54,1.54s-1.54-.69-1.54-1.54.69-1.54,1.54-1.54,1.54.69,1.54,1.54Z"/>
  <path d="M95.15,92.37c0,.69-.56,1.26-1.25,1.26s-1.26-.56-1.26-1.26.56-1.26,1.26-1.26,1.25.56,1.25,1.26Z"/>
  <path d="M102.17,61.51c0,.7-.57,1.27-1.27,1.27s-1.27-.57-1.27-1.27.57-1.27,1.27-1.27,1.27.57,1.27,1.27Z"/>
  <path d="M112.72,75.4c0,.76-.61,1.37-1.37,1.37s-1.37-.61-1.37-1.37.61-1.37,1.37-1.37,1.37.61,1.37,1.37Z"/>
  <path d="M118.48,118.89c0,.41-.33.74-.74.74s-.74-.33-.74-.74.33-.74.74-.74.74.33.74.74Z"/>
  <path d="M75.78,56.8c0,.24-.2.44-.44.44s-.44-.2-.44-.44.2-.44.44-.44.44.2.44.44Z"/>
  <path d="M116.74,96.38c0,.64-.52,1.16-1.16,1.16s-1.16-.52-1.16-1.16.52-1.16,1.16-1.16,1.16.52,1.16,1.16Z"/>
  <path d="M117.95,59.39c0,.75-.6,1.35-1.35,1.35s-1.35-.61-1.35-1.35.6-1.35,1.35-1.35,1.35.6,1.35,1.35Z"/>
  <path d="M93.1,97.64c0,.85-.68,1.53-1.53,1.53s-1.53-.68-1.53-1.53.69-1.53,1.53-1.53,1.53.69,1.53,1.53Z"/>
  <path d="M51.65,52.46c0,.59-.48,1.07-1.07,1.07s-1.07-.48-1.07-1.07.48-1.07,1.07-1.07,1.07.48,1.07,1.07Z"/>
  <path d="M115.41,112.05c0,.46-.37.83-.83.83s-.83-.37-.83-.83.37-.83.83-.83.83.37.83.83Z"/>
  <path d="M56.16,57.65c0,.47-.38.85-.85.85s-.85-.38-.85-.85.38-.85.85-.85.85.38.85.85Z"/>
  <path d="M59.33,126.04c0,.45-.36.81-.81.81s-.81-.36-.81-.81.36-.81.81-.81.81.36.81.81Z"/>
  <path d="M102.29,93.12c0,.53-.43.96-.96.96s-.96-.43-.96-.96.43-.96.96-.96.96.43.96.96Z"/>
  <path d="M81.51,129.23c0,.27-.22.49-.49.49s-.49-.22-.49-.49.22-.49.49-.49.49.22.49.49Z"/>
  <path d="M100.51,119.26c0,.52-.42.94-.94.94s-.94-.42-.94-.94.42-.94.94-.94.94.42.94.94Z"/>
  <path d="M101.62,101.72c0,.27-.22.48-.48.48s-.48-.22-.48-.48.21-.48.48-.48.48.21.48.48Z"/>
  <path d="M75.83,115.85c0,.48-.39.86-.86.86s-.87-.39-.87-.86.39-.86.87-.86.86.39.86.86Z"/>
  <path d="M76,78.68c0,.36-.29.64-.64.64s-.64-.29-.64-.64.29-.64.64-.64.64.29.64.64Z"/>
  <path d="M116.55,97.92c0,.57-.46,1.02-1.03,1.02s-1.03-.46-1.03-1.02.46-1.03,1.03-1.03,1.03.46,1.03,1.03Z"/>
  <path d="M100.72,74.22c0,.37-.3.67-.67.67s-.67-.3-.67-.67.3-.67.67-.67.67.3.67.67Z"/>
  <path d="M40.38,82.68c0,.56-.45,1.01-1.01,1.01s-1.01-.45-1.01-1.01.45-1.01,1.01-1.01,1.01.45,1.01,1.01Z"/>
  <path d="M70.95,90.12c0,.54-.44.98-.98.98s-.98-.44-.98-.98.44-.98.98-.98.98.44.98.98Z"/>
  <path d="M59.71,86.06c0,.34-.28.62-.62.62s-.62-.28-.62-.62.28-.62.62-.62.62.28.62.62Z"/>
  <path d="M58.41,79.57c0,.49-.4.89-.89.89s-.89-.4-.89-.89.4-.89.89-.89.89.4.89.89Z"/>
  <path d="M106.84,66.74c0,.63-.51,1.14-1.14,1.14s-1.14-.51-1.14-1.14.51-1.14,1.14-1.14,1.14.51,1.14,1.14Z"/>
  <path d="M27.64,122.97c0,.82-.67,1.49-1.49,1.49s-1.49-.67-1.49-1.49.67-1.49,1.49-1.49,1.49.67,1.49,1.49Z"/>
  <path d="M88.1,106.4c0,.25-.21.46-.46.46s-.46-.2-.46-.46.21-.46.46-.46.46.21.46.46Z"/>
  <path d="M92.48,118.3c0,.54-.44.98-.98.98s-.98-.44-.98-.98.44-.98.98-.98.98.44.98.98Z"/>
  <path d="M115.58,138.9c0,.52-.42.94-.94.94s-.94-.42-.94-.94.42-.94.94-.94.94.42.94.94Z"/>
  <path d="M68.17,141.09c0,.3-.25.55-.55.55s-.55-.25-.55-.55.25-.55.55-.55.55.25.55.55Z"/>
  <path d="M88.42,107.73c0,.54-.44.98-.98.98s-.98-.44-.98-.98.44-.98.98-.98.98.44.98.98Z"/>
  <path d="M53.22,108.31c0,.44-.36.8-.8.8s-.8-.36-.8-.8.36-.8.8-.8.8.36.8.8Z"/>
  <path d="M55.41,71.16c0,.24-.19.43-.43.43s-.42-.19-.42-.43.19-.43.42-.43.43.19.43.43Z"/>
  <path d="M23.65,71.94c0,.58-.47,1.04-1.04,1.04s-1.04-.47-1.04-1.04.47-1.04,1.04-1.04,1.04.47,1.04,1.04Z"/>
  <path d="M47.57,107.06c0,.43-.35.78-.79.78s-.78-.35-.78-.78.35-.78.78-.78.79.35.79.78Z"/>
  <path d="M102.66,140.02c0,.81-.66,1.46-1.46,1.46s-1.47-.65-1.47-1.46.66-1.47,1.47-1.47,1.46.66,1.46,1.47Z"/>
  <path d="M52.35,146.38c0,.44-.36.8-.8.8s-.8-.36-.8-.8.36-.8.8-.8.8.36.8.8Z"/>
  <path d="M53.97,88.91c0,.49-.4.89-.88.89s-.88-.4-.88-.89.4-.88.88-.88.88.39.88.88Z"/>
  <path d="M69.1,123.06c0,.35-.29.64-.64.64s-.63-.28-.63-.64.28-.64.63-.64.64.28.64.64Z"/>
  <path d="M67.96,106.14c0,.45-.37.82-.82.82s-.82-.37-.82-.82.37-.82.82-.82.82.37.82.82Z"/>
  <path d="M69.29,141.58c0,.38-.31.69-.69.69s-.69-.31-.69-.69.31-.69.69-.69.69.31.69.69Z"/>
  <path d="M61.44,113.95c0,.74-.6,1.34-1.34,1.34s-1.34-.6-1.34-1.34.6-1.34,1.34-1.34,1.34.6,1.34,1.34Z"/>
  <path d="M30.06,63.95c0,.78-.63,1.42-1.42,1.42s-1.42-.64-1.42-1.42.63-1.42,1.42-1.42,1.42.63,1.42,1.42Z"/>
  <path d="M33.21,70.36c0,.72-.59,1.31-1.31,1.31s-1.31-.59-1.31-1.31.59-1.31,1.31-1.31,1.31.59,1.31,1.31Z"/>
  <path d="M16.13,100.49c0,.74-.6,1.35-1.34,1.35s-1.34-.6-1.34-1.35.6-1.34,1.34-1.34,1.34.6,1.34,1.34Z"/>
  <path d="M87.39,90.28c0,.46-.37.84-.84.84s-.84-.37-.84-.84.37-.84.84-.84.84.37.84.84Z"/>
  <path d="M99.79,57.52c0,.67-.54,1.22-1.21,1.22s-1.21-.54-1.21-1.22.54-1.21,1.21-1.21,1.21.54,1.21,1.21Z"/>
  <path d="M99.72,121.24c0,.45-.37.82-.82.82s-.82-.37-.82-.82.37-.82.82-.82.82.37.82.82Z"/>
  <path d="M53.79,66.55c0,.53-.43.95-.95.95s-.95-.43-.95-.95.43-.95.95-.95.95.43.95.95Z"/>
  <path d="M62.98,124.38c0,.29-.24.53-.53.53s-.53-.24-.53-.53.24-.53.53-.53.53.24.53.53Z"/>
  <path d="M100.97,98.8c0,.44-.36.8-.8.8s-.8-.36-.8-.8.36-.8.8-.8.8.36.8.8Z"/>
  <path d="M112.87,48.9c0,.35-.28.63-.63.63s-.63-.28-.63-.63.28-.63.63-.63.63.28.63.63Z"/>
  <path d="M87.73,37.87c0,.54-.43.97-.97.97s-.97-.43-.97-.97.43-.97.97-.97.97.43.97.97Z"/>
  <path d="M157.53,134.65c0,.94-.76,1.7-1.7,1.7s-1.7-.76-1.7-1.7.76-1.7,1.7-1.7,1.7.76,1.7,1.7Z"/>
  <circle cx="77.66" cy="96.5" r=".95"/>
  <path d="M107.93,77.54c0,.34-.27.61-.61.61s-.61-.27-.61-.61.27-.61.61-.61.61.27.61.61Z"/>
  <path d="M106.78,123.62c0,.4-.32.72-.72.72s-.72-.32-.72-.72.32-.72.72-.72.72.33.72.72Z"/>
  <path d="M130.31,92.82c0,.37-.3.68-.68.68s-.67-.3-.67-.68.3-.68.67-.68.68.3.68.68Z"/>
  <path d="M128.75,140.36c0,.47-.38.85-.84.85s-.85-.38-.85-.85.38-.85.85-.85.84.38.84.85Z"/>
  <path d="M101.08,38c0,.33-.26.59-.59.59s-.59-.26-.59-.59.26-.59.59-.59.59.26.59.59Z"/>
  <path d="M135.56,60.53c0,.19-.15.34-.34.34s-.35-.15-.35-.34.15-.35.35-.35.34.15.34.35Z"/>
  <path d="M89.01,71.76c0,.42-.34.77-.77.77s-.77-.34-.77-.77.34-.77.77-.77.77.34.77.77Z"/>
  <path d="M106.53,111.78c0,.25-.2.45-.45.45s-.45-.2-.45-.45.2-.45.45-.45.45.2.45.45Z"/>
  <path d="M105.33,92.39c0,.54-.44.98-.98.98s-.98-.44-.98-.98.44-.98.98-.98.98.44.98.98Z"/>
  <path d="M86.68,67.06c0,.72-.58,1.31-1.3,1.31s-1.31-.58-1.31-1.31.58-1.3,1.31-1.3,1.3.58,1.3,1.3Z"/>
  <path d="M99.08,53.37c0,.34-.27.61-.61.61s-.61-.27-.61-.61.27-.61.61-.61.61.27.61.61Z"/>
  <path d="M35.53,106.39c0,.46-.38.84-.84.84s-.84-.38-.84-.84.37-.84.84-.84.84.37.84.84Z"/>
  <path d="M97.62,100.67c0,.28-.23.51-.51.51s-.51-.23-.51-.51.23-.51.51-.51.51.23.51.51Z"/>
  <path d="M109.67,76.15c0,1.07-.87,1.94-1.94,1.94s-1.94-.87-1.94-1.94.87-1.94,1.94-1.94,1.94.87,1.94,1.94Z"/>
  <path d="M139.1,64.63c0,.84-.68,1.52-1.52,1.52s-1.52-.68-1.52-1.52.68-1.52,1.52-1.52,1.52.68,1.52,1.52Z"/>
  <path d="M110.86,115.63c0,.56-.45,1.01-1.01,1.01s-1.01-.45-1.01-1.01.46-1.01,1.01-1.01,1.01.45,1.01,1.01Z"/>
  <path d="M82.07,115.01c0,.46-.37.83-.83.83s-.84-.37-.84-.83.37-.84.84-.84.83.37.83.84Z"/>
  <path d="M62.12,95.88c0,.26-.21.48-.48.48s-.48-.21-.48-.48.21-.48.48-.48.48.21.48.48Z"/>
  <path d="M76.16,51.99c0,.29-.24.52-.52.52s-.52-.23-.52-.52.24-.52.52-.52.52.23.52.52Z"/>
  <path d="M64.08,84.88c0,.55-.45,1-1,1s-1-.45-1-1,.45-1,1-1,1,.45,1,1Z"/>
  <path d="M99.49,56.09c0,.52-.42.94-.94.94s-.94-.42-.94-.94.42-.94.94-.94.94.42.94.94Z"/>
  <path d="M120.23,77.23c0,.54-.44.98-.98.98s-.99-.44-.99-.98.44-.98.99-.98.98.44.98.98Z"/>
  <path d="M122.59,135.9c0,.47-.38.85-.84.85s-.84-.38-.84-.85.38-.84.84-.84.84.38.84.84Z"/>
  <path d="M134.69,148c0,.6-.49,1.08-1.09,1.08s-1.08-.49-1.08-1.08.49-1.09,1.08-1.09,1.09.49,1.09,1.09Z"/>
  <path d="M92.57,109.93c0,.35-.29.64-.64.64s-.64-.29-.64-.64.29-.64.64-.64.64.28.64.64Z"/>
  <path d="M72.84,143.64c0,.23-.18.41-.41.41s-.41-.18-.41-.41.18-.41.41-.41.41.18.41.41Z"/>
  <path d="M134.85,102.89c0,.35-.28.63-.64.63s-.63-.28-.63-.63.29-.63.63-.63.64.29.64.63Z"/>
  <path d="M147.36,53.33c0,.49-.4.88-.88.88s-.88-.39-.88-.88.39-.88.88-.88.88.39.88.88Z"/>
  <path d="M111.75,147.53c0,.57-.46,1.03-1.03,1.03s-1.03-.46-1.03-1.03.46-1.03,1.03-1.03,1.03.46,1.03,1.03Z"/>
  <path d="M133.28,120.8c0,.63-.51,1.14-1.14,1.14s-1.14-.51-1.14-1.14.51-1.14,1.14-1.14,1.14.51,1.14,1.14Z"/>
  <path d="M131.66,78.05c0,.35-.28.63-.63.63s-.63-.28-.63-.63.28-.63.63-.63.63.28.63.63Z"/>
  <path d="M87.79,116.22c0,.26-.21.47-.47.47s-.47-.21-.47-.47.21-.47.47-.47.47.21.47.47Z"/>
  <path d="M117.18,75.45c0,.61-.49,1.1-1.1,1.1s-1.1-.49-1.1-1.1.49-1.1,1.1-1.1,1.1.49,1.1,1.1Z"/>
  <path d="M156.06,79.94c0,.52-.42.94-.94.94s-.94-.42-.94-.94.42-.94.94-.94.94.42.94.94Z"/>
  <path d="M107.49,135.4c0,.59-.48,1.08-1.08,1.08s-1.08-.48-1.08-1.08.48-1.08,1.08-1.08,1.08.48,1.08,1.08Z"/>
  <path d="M83.48,138.96c0,.62-.5,1.13-1.13,1.13s-1.13-.51-1.13-1.13.51-1.13,1.13-1.13,1.13.5,1.13,1.13Z"/>
  <path d="M146,106.64c0,.3-.25.55-.55.55s-.55-.24-.55-.55.25-.55.55-.55.55.25.55.55Z"/>
  <path d="M146.67,145.08c0,.25-.21.46-.46.46s-.46-.21-.46-.46.21-.46.46-.46.46.21.46.46Z"/>
  <path d="M101.58,63.57c0,.52-.42.94-.94.94s-.94-.42-.94-.94.42-.94.94-.94.94.42.94.94Z"/>
  <path d="M118.09,63.57c0,.64-.52,1.16-1.16,1.16s-1.16-.52-1.16-1.16.52-1.16,1.16-1.16,1.16.52,1.16,1.16Z"/>
  <path d="M148.03,115.74c0,.53-.43.96-.96.96s-.96-.43-.96-.96.43-.96.96-.96.96.43.96.96Z"/>
  <path d="M166.53,114.66c0,.31-.25.56-.56.56s-.55-.25-.55-.56.25-.55.55-.55.56.25.56.55Z"/>
  <path d="M113.42,58.22c0,.47-.38.85-.85.85s-.85-.38-.85-.85.38-.85.85-.85.85.38.85.85Z"/>
  <path d="M114.17,97.23c0,.4-.32.72-.72.72s-.72-.32-.72-.72.32-.72.72-.72.72.32.72.72Z"/>
  <path d="M104.58,61.39c0,.64-.52,1.17-1.17,1.17s-1.17-.52-1.17-1.17.52-1.17,1.17-1.17,1.17.52,1.17,1.17Z"/>
  <path d="M131.12,92.46c0,.41-.33.74-.74.74s-.74-.33-.74-.74.33-.74.74-.74.74.33.74.74Z"/>
  <path d="M79.83,69.61c0,.37-.3.67-.67.67s-.67-.3-.67-.67.3-.67.67-.67.67.3.67.67Z"/>
  <path d="M151.59,82.19c0,.72-.59,1.31-1.31,1.31s-1.31-.58-1.31-1.31.59-1.31,1.31-1.31,1.31.59,1.31,1.31Z"/>
  <path d="M112.52,114.03c0,.38-.31.69-.7.69s-.69-.31-.69-.69.31-.69.69-.69.7.31.7.69Z"/>
  <path d="M111.77,117.08c0,.57-.47,1.04-1.04,1.04s-1.04-.47-1.04-1.04.47-1.04,1.04-1.04,1.04.47,1.04,1.04Z"/>
  <path d="M113.44,142.54c0,.66-.54,1.19-1.2,1.19s-1.19-.53-1.19-1.19.54-1.19,1.19-1.19,1.2.53,1.2,1.19Z"/>
  <path d="M95.43,135.69c0,.58-.47,1.06-1.06,1.06s-1.06-.47-1.06-1.06.47-1.06,1.06-1.06,1.06.47,1.06,1.06Z"/>
  <path d="M123.91,89.35c0,.4-.33.73-.73.73s-.73-.33-.73-.73.33-.73.73-.73.73.33.73.73Z"/>
  <path d="M94.17,152.37c0,.88-.72,1.6-1.6,1.6s-1.6-.72-1.6-1.6.72-1.6,1.6-1.6,1.6.72,1.6,1.6Z"/>
  <path d="M65.57,148.94c0,.44-.35.79-.79.79s-.79-.35-.79-.79.35-.79.79-.79.79.35.79.79Z"/>
  <path d="M75.14,107.16c0,.54-.44.98-.98.98s-.98-.44-.98-.98.44-.98.98-.98.98.44.98.98Z"/>
  <path d="M105.2,79.57c0,.9-.73,1.64-1.63,1.64s-1.63-.73-1.63-1.64.73-1.63,1.63-1.63,1.63.73,1.63,1.63Z"/>
  <path d="M52.24,104.09c0,.36-.3.66-.66.66s-.66-.29-.66-.66.29-.66.66-.66.66.29.66.66Z"/>
  <path d="M101.61,114.36c0,.49-.4.89-.89.89s-.89-.4-.89-.89.4-.89.89-.89.89.4.89.89Z"/>
  <path d="M89.19,122.65c0,.59-.47,1.06-1.06,1.06s-1.06-.47-1.06-1.06.47-1.06,1.06-1.06,1.06.48,1.06,1.06Z"/>
  <path d="M134.23,126.83c0,.57-.46,1.03-1.03,1.03s-1.03-.46-1.03-1.03.46-1.03,1.03-1.03,1.03.46,1.03,1.03Z"/>
  <path d="M73.32,163.7c0,.37-.3.67-.67.67s-.67-.3-.67-.67.3-.67.67-.67.67.3.67.67Z"/>
  <path d="M58.52,135.6c0,.64-.52,1.16-1.16,1.16s-1.16-.52-1.16-1.16.52-1.16,1.16-1.16,1.16.52,1.16,1.16Z"/>
  <path d="M51.39,161.84c0,.37-.3.68-.68.68s-.68-.3-.68-.68.3-.68.68-.68.68.3.68.68Z"/>
  <path d="M94.89,186.02c0,.44-.36.8-.8.8s-.8-.36-.8-.8.36-.8.8-.8.8.36.8.8Z"/>
  <path d="M65.4,73.84c0,.89-.72,1.61-1.61,1.61s-1.61-.72-1.61-1.61.72-1.61,1.61-1.61,1.61.72,1.61,1.61Z"/>
  <path d="M96.32,111.03c0,.26-.21.48-.48.48s-.48-.21-.48-.48.22-.48.48-.48.48.21.48.48Z"/>
  <path d="M88.04,90.66c0,.75-.61,1.36-1.36,1.36s-1.36-.61-1.36-1.36.61-1.36,1.36-1.36,1.36.61,1.36,1.36Z"/>
  <path d="M75.1,100.51c0,.41-.33.74-.74.74s-.74-.33-.74-.74.33-.74.74-.74.74.33.74.74Z"/>
  <path d="M102.83,83.4c0,.38-.31.68-.68.68s-.68-.3-.68-.68.3-.68.68-.68.68.3.68.68Z"/>
  <path d="M67.45,155.55c0,.5-.41.91-.91.91s-.91-.41-.91-.91.41-.91.91-.91.91.41.91.91Z"/>
  <path d="M73.52,73.87c0,.44-.36.8-.79.8s-.79-.36-.79-.8.36-.79.79-.79.79.36.79.79Z"/>
  <path d="M48.96,82.45c0,.59-.48,1.07-1.07,1.07s-1.07-.48-1.07-1.07.48-1.07,1.07-1.07,1.07.48,1.07,1.07Z"/>
  <path d="M84.1,74.19c0,.5-.41.92-.92.92s-.91-.41-.91-.92.41-.91.91-.91.92.41.92.91Z"/>
  <path d="M107.5,104.41c0,.36-.3.66-.66.66s-.66-.29-.66-.66.29-.66.66-.66.66.29.66.66Z"/>
  <path d="M60.43,82.99c0,.37-.3.67-.67.67s-.67-.3-.67-.67.3-.67.67-.67.67.3.67.67Z"/>
  <path d="M83.72,120.62c0,.4-.32.72-.72.72s-.72-.32-.72-.72.32-.72.72-.72.72.32.72.72Z"/>
  <path d="M109.64,149.4c0,.69-.56,1.25-1.25,1.25s-1.25-.56-1.25-1.25.56-1.25,1.25-1.25,1.25.56,1.25,1.25Z"/>
  <path d="M100.71,110.4c0,1.02-.83,1.85-1.85,1.85s-1.85-.83-1.85-1.85.83-1.85,1.85-1.85,1.85.83,1.85,1.85Z"/>
  <path d="M61.24,86.58c0,.85-.69,1.53-1.53,1.53s-1.53-.69-1.53-1.53.69-1.53,1.53-1.53,1.53.69,1.53,1.53Z"/>
  <path d="M114.53,136.2c0,.54-.44.98-.98.98s-.98-.44-.98-.98.44-.98.98-.98.98.44.98.98Z"/>
  <path d="M89.76,115.08c0,.38-.31.69-.69.69s-.69-.31-.69-.69.31-.69.69-.69.69.31.69.69Z"/>
  <path d="M138.55,101.04c0,.28-.23.51-.51.51s-.51-.23-.51-.51.23-.51.51-.51.51.23.51.51Z"/>
  <circle cx="122.46" cy="115.21" r=".4"/>
  <path d="M93.1,105.4c0,.45-.36.81-.81.81s-.81-.36-.81-.81.36-.81.81-.81.81.36.81.81Z"/>
  <path d="M64.56,95.39c0,.22-.18.39-.39.39s-.39-.18-.39-.39.18-.39.39-.39.39.18.39.39Z"/>
  <path d="M125.48,112.25c0,.26-.21.47-.47.47s-.47-.21-.47-.47.21-.47.47-.47.47.21.47.47Z"/>
  <path d="M131.64,148.79c0,.57-.46,1.04-1.04,1.04s-1.04-.46-1.04-1.04.46-1.04,1.04-1.04,1.04.46,1.04,1.04Z"/>
  <path d="M99.41,173.76c0,.29-.24.52-.52.52s-.52-.24-.52-.52.24-.52.52-.52.52.24.52.52Z"/>
  <path d="M125.81,110.99c0,.91-.74,1.64-1.64,1.64s-1.64-.73-1.64-1.64.73-1.64,1.64-1.64,1.64.73,1.64,1.64Z"/>
  <path d="M81.43,141.66c0,.25-.2.44-.44.44s-.44-.2-.44-.44.2-.44.44-.44.44.2.44.44Z"/>
  <path d="M35.19,126.62c0,.37-.3.68-.68.68s-.68-.3-.68-.68.3-.68.68-.68.68.3.68.68Z"/>
  <path d="M39.68,100.68c0,.75-.61,1.35-1.36,1.35s-1.35-.61-1.35-1.35.61-1.36,1.35-1.36,1.36.61,1.36,1.36Z"/>
  <path d="M85.62,90.14c0,.36-.29.65-.65.65s-.64-.29-.64-.65.29-.65.64-.65.65.29.65.65Z"/>
  <path d="M29.66,104.95c0,.5-.41.91-.91.91s-.91-.41-.91-.91.41-.91.91-.91.91.41.91.91Z"/>
  <path d="M120.2,123.88c0,.8-.65,1.45-1.45,1.45s-1.45-.65-1.45-1.45.65-1.45,1.45-1.45,1.45.65,1.45,1.45Z"/>
  <path d="M101.59,78.5c0,.74-.6,1.33-1.33,1.33s-1.33-.6-1.33-1.33.6-1.33,1.33-1.33,1.33.6,1.33,1.33Z"/>
  <path d="M137.31,98.52c0,.48-.39.86-.86.86s-.86-.39-.86-.86.38-.86.86-.86.86.39.86.86Z"/>
  <path d="M79.62,119.67c0,.46-.37.83-.83.83s-.83-.37-.83-.83.37-.83.83-.83.83.37.83.83Z"/>
  <path d="M102.91,77.85c0,.37-.3.68-.68.68s-.68-.3-.68-.68.3-.68.68-.68.68.3.68.68Z"/>
  <path d="M79.64,125.55c0,.66-.53,1.18-1.18,1.18s-1.18-.53-1.18-1.18.53-1.18,1.18-1.18,1.18.53,1.18,1.18Z"/>
  <path d="M50.65,121.16c0,.56-.45,1.01-1.01,1.01s-1.01-.45-1.01-1.01.45-1.02,1.01-1.02,1.01.46,1.01,1.02Z"/>
  <path d="M98.5,148.3c0,.54-.44.98-.98.98s-.98-.44-.98-.98.44-.98.98-.98.98.44.98.98Z"/>
  <path d="M94.89,153.77c0,.33-.27.6-.6.6s-.6-.27-.6-.6.27-.6.6-.6.6.27.6.6Z"/>
  <path d="M110.65,109.71c0,.48-.39.87-.87.87s-.88-.39-.88-.87.39-.87.88-.87.87.39.87.87Z"/>
  <path d="M144.07,141.02c0,.34-.27.62-.61.62s-.62-.28-.62-.62.28-.62.62-.62.61.28.61.62Z"/>
  <path d="M120.85,93.08c0,.45-.37.81-.81.81s-.82-.37-.82-.81.36-.81.82-.81.81.36.81.81Z"/>
  <path d="M145.59,125.3c0,.47-.38.86-.86.86s-.86-.38-.86-.86.39-.86.86-.86.86.39.86.86Z"/>
  <path d="M129.73,105.46c0,.57-.47,1.04-1.04,1.04s-1.04-.47-1.04-1.04.47-1.04,1.04-1.04,1.04.46,1.04,1.04Z"/>
  <path d="M127.29,104.62c0,.41-.33.73-.73.73s-.73-.33-.73-.73.33-.73.73-.73.73.33.73.73Z"/>
  <path d="M129.62,149.2c0,.7-.57,1.27-1.27,1.27s-1.27-.57-1.27-1.27.57-1.27,1.27-1.27,1.27.57,1.27,1.27Z"/>
  <path d="M74.56,104.77c0,.45-.37.82-.82.82s-.82-.37-.82-.82.37-.82.82-.82.82.37.82.82Z"/>
  <path d="M142.25,125.55c0,.47-.39.86-.86.86s-.87-.39-.87-.86.39-.87.87-.87.86.39.86.87Z"/>
  <path d="M103.51,120.73c0,.63-.51,1.14-1.14,1.14s-1.14-.51-1.14-1.14.51-1.14,1.14-1.14,1.14.51,1.14,1.14Z"/>
  <path d="M101.02,108.7c0,.46-.37.82-.83.82s-.82-.37-.82-.82.37-.83.82-.83.83.37.83.83Z"/>
  <path d="M92.52,155.95c0,.59-.48,1.07-1.07,1.07s-1.06-.48-1.06-1.07.48-1.07,1.06-1.07,1.07.48,1.07,1.07Z"/>
  <path d="M72.97,101.64c0,.29-.23.52-.52.52s-.52-.23-.52-.52.23-.52.52-.52.52.23.52.52Z"/>
  <path d="M86.88,172.71c0,.37-.3.66-.66.66s-.66-.3-.66-.66.3-.66.66-.66.66.3.66.66Z"/>
  <path d="M116.46,142.86c0,.46-.38.84-.84.84s-.85-.38-.85-.84.38-.85.85-.85.84.38.84.85Z"/>
  <path d="M145.35,165.83c0,.39-.31.7-.7.7s-.7-.31-.7-.7.31-.7.7-.7.7.31.7.7Z"/>
  <path d="M148.98,147.14c0,.57-.46,1.03-1.02,1.03s-1.02-.46-1.02-1.03.46-1.02,1.02-1.02,1.02.46,1.02,1.02Z"/>
  <path d="M114.83,158.12c0,.57-.46,1.03-1.03,1.03s-1.03-.46-1.03-1.03.46-1.03,1.03-1.03,1.03.46,1.03,1.03Z"/>
  <path d="M66.54,121.48c0,.33-.27.6-.6.6s-.6-.27-.6-.6.27-.6.6-.6.6.27.6.6Z"/>
  <path d="M155.62,131.03c0,.32-.26.57-.57.57s-.57-.26-.57-.57.25-.57.57-.57.57.26.57.57Z"/>
  <path d="M93.32,126.58c0,.52-.42.94-.93.94s-.93-.42-.93-.94.42-.93.93-.93.93.42.93.93Z"/>
  <path d="M80.02,82.9c0,.55-.45.99-.99.99s-.99-.44-.99-.99.44-.99.99-.99.99.44.99.99Z"/>
  <path d="M155.14,75.29c0,.57-.46,1.03-1.03,1.03s-1.03-.46-1.03-1.03.46-1.03,1.03-1.03,1.03.46,1.03,1.03Z"/>
  <path d="M68.27,100.21c0,.41-.33.74-.74.74s-.74-.33-.74-.74.33-.73.74-.73.74.33.74.73Z"/>
  <path d="M173.86,155.78c0,.49-.4.88-.88.88s-.88-.39-.88-.88.4-.88.88-.88.88.4.88.88Z"/>
  <path d="M85.39,130.23c0,.42-.34.76-.76.76s-.76-.34-.76-.76.34-.76.76-.76.76.34.76.76Z"/>
  <path d="M153.74,108.24c0,.76-.62,1.38-1.38,1.38s-1.38-.62-1.38-1.38.62-1.37,1.38-1.37,1.38.62,1.38,1.37Z"/>
  <path d="M117.58,108.57c0,.44-.36.79-.79.79s-.79-.35-.79-.79.35-.79.79-.79.79.35.79.79Z"/>
  <path d="M62.32,140.12c0,.53-.43.97-.97.97s-.97-.43-.97-.97.43-.97.97-.97.97.43.97.97Z"/>
  <path d="M61.25,180.54c0,.48-.39.87-.87.87s-.87-.39-.87-.87.39-.87.87-.87.87.39.87.87Z"/>
  <path d="M68.48,189.25c0,.77-.62,1.39-1.39,1.39s-1.39-.62-1.39-1.39.62-1.39,1.39-1.39,1.39.62,1.39,1.39Z"/>
  <path d="M105.3,193.2c0,.41-.33.74-.74.74s-.74-.33-.74-.74.33-.74.74-.74.74.33.74.74Z"/>
  <path d="M119.68,133.69c0,.4-.33.73-.73.73s-.73-.32-.73-.73.32-.73.73-.73.73.33.73.73Z"/>
  <path d="M64.76,128.14c0,.5-.41.92-.92.92s-.92-.41-.92-.92.41-.92.92-.92.92.41.92.92Z"/>
  <path d="M50.34,114.32c0,.4-.33.73-.72.73s-.73-.32-.73-.73.33-.73.73-.73.72.33.72.73Z"/>
  <path d="M39.88,112.68c0,.37-.3.67-.67.67s-.67-.3-.67-.67.3-.67.67-.67.67.3.67.67Z"/>
  <path d="M107.15,168.57c0,.45-.36.81-.81.81s-.81-.37-.81-.81.36-.81.81-.81.81.36.81.81Z"/>
  <path d="M122.37,173.95c0,.38-.31.69-.69.69s-.69-.31-.69-.69.31-.69.69-.69.69.31.69.69Z"/>
  <path d="M130.18,189.14c0,.46-.37.84-.84.84s-.84-.37-.84-.84.37-.83.84-.83.84.37.84.83Z"/>
  <path d="M68.45,171.29c0,.57-.46,1.04-1.04,1.04s-1.04-.46-1.04-1.04.46-1.04,1.04-1.04,1.04.46,1.04,1.04Z"/>
  <path d="M47.7,165.62c0,.51-.41.92-.91.92s-.92-.41-.92-.92.41-.91.92-.91.91.41.91.91Z"/>
  <path d="M34.91,194.96c0,.43-.35.78-.78.78s-.78-.35-.78-.78.35-.78.78-.78.78.35.78.78Z"/>
  <path d="M81.55,100.38c0,.56-.46,1.02-1.02,1.02s-1.02-.46-1.02-1.02.46-1.02,1.02-1.02,1.02.46,1.02,1.02Z"/>
  <circle cx="89.81" cy="138.23" r=".61"/>
  <path d="M57.61,135.65c0,.64-.52,1.15-1.15,1.15s-1.16-.52-1.16-1.15.52-1.16,1.16-1.16,1.15.52,1.15,1.16Z"/>
  <path d="M73.82,152.13c0,.86-.7,1.56-1.55,1.56s-1.56-.7-1.56-1.56.7-1.56,1.56-1.56,1.55.7,1.55,1.56Z"/>
  <path d="M116.54,140.58c0,.56-.45,1-1,1s-1-.45-1-1,.45-1,1-1,1,.44,1,1Z"/>
  <path d="M109.03,138.78c0,.33-.26.59-.59.59s-.59-.26-.59-.59.26-.59.59-.59.59.26.59.59Z"/>
  <path d="M38.76,73.37c0,.51-.41.92-.92.92s-.92-.41-.92-.92.41-.92.92-.92.92.41.92.92Z"/>
  <path d="M97.21,113.58c0,.46-.37.83-.83.83s-.83-.37-.83-.83.37-.83.83-.83.83.37.83.83Z"/>
  <path d="M104.94,178.26c0,.51-.42.93-.93.93s-.93-.42-.93-.93.42-.93.93-.93.93.42.93.93Z"/>
  <path d="M136.87,167.9c0,.31-.25.56-.56.56s-.56-.25-.56-.56.25-.56.56-.56.56.25.56.56Z"/>
  <path d="M125.44,159.82c0,.59-.48,1.06-1.06,1.06s-1.06-.48-1.06-1.06.48-1.06,1.06-1.06,1.06.48,1.06,1.06Z"/>
  <path d="M112.21,192.15c0,.44-.36.8-.8.8s-.8-.36-.8-.8.36-.8.8-.8.8.36.8.8Z"/>
  <path d="M52.38,168.4c0,.52-.42.93-.93.93s-.93-.42-.93-.93.42-.93.93-.93.93.42.93.93Z"/>
  <path d="M95.16,139.93c0,.67-.54,1.22-1.22,1.22s-1.22-.55-1.22-1.22.54-1.22,1.22-1.22,1.22.54,1.22,1.22Z"/>
  <path d="M74.13,133.33c0,.65-.53,1.19-1.19,1.19s-1.19-.53-1.19-1.19.53-1.19,1.19-1.19,1.19.53,1.19,1.19Z"/>
  <path d="M63.76,83.82c0,.64-.52,1.16-1.16,1.16s-1.16-.52-1.16-1.16.52-1.16,1.16-1.16,1.16.52,1.16,1.16Z"/>
  <path d="M55,153.67c0,.3-.25.55-.55.55s-.55-.25-.55-.55.25-.56.55-.56.55.25.55.56Z"/>
  <path d="M87.97,106.98c0,.48-.39.87-.87.87s-.87-.39-.87-.87.39-.87.87-.87.87.39.87.87Z"/>
  <path d="M60.93,105.07c0,.22-.18.4-.4.4s-.4-.18-.4-.4.18-.4.4-.4.4.18.4.4Z"/>
  <path d="M9.03,147.34c0,.63-.51,1.15-1.15,1.15s-1.15-.51-1.15-1.15.51-1.15,1.15-1.15,1.15.51,1.15,1.15Z"/>
  <path d="M106.75,122.25c0,.38-.31.69-.69.69s-.69-.31-.69-.69.31-.69.69-.69.69.31.69.69Z"/>
  <path d="M96.58,168.16c0,.93-.75,1.67-1.67,1.67s-1.67-.75-1.67-1.67.75-1.67,1.67-1.67,1.67.75,1.67,1.67Z"/>
  <path d="M63.95,118.36c0,.6-.49,1.09-1.09,1.09s-1.08-.49-1.08-1.09.49-1.09,1.08-1.09,1.09.49,1.09,1.09Z"/>
  <path d="M83.14,130.88c0,.33-.27.6-.6.6s-.6-.27-.6-.6.27-.6.6-.6.6.27.6.6Z"/>
  <path d="M88,147.21c0,.36-.3.66-.66.66s-.66-.29-.66-.66.29-.66.66-.66.66.3.66.66Z"/>
  <path d="M24.58,159.28c0,.41-.33.75-.75.75s-.75-.33-.75-.75.33-.75.75-.75.75.34.75.75Z"/>
  <path d="M68.65,165.37c0,.43-.35.78-.78.78s-.78-.35-.78-.78.35-.78.78-.78.78.35.78.78Z"/>
  <path d="M32.96,124.56c0,.39-.32.71-.71.71s-.71-.32-.71-.71.32-.71.71-.71.71.32.71.71Z"/>
  <path d="M48.43,157.31c0,.39-.32.7-.71.7s-.7-.32-.7-.7.32-.71.7-.71.71.32.71.71Z"/>
  <path d="M53.05,168.01c0,.33-.27.6-.6.6s-.6-.27-.6-.6.27-.6.6-.6.6.27.6.6Z"/>
  <path d="M82.09,122.7c0,.35-.28.63-.63.63s-.63-.28-.63-.63.28-.63.63-.63.63.28.63.63Z"/>
  <path d="M30.62,115.13c0,.41-.34.75-.75.75s-.75-.34-.75-.75.34-.75.75-.75.75.33.75.75Z"/>
  <path d="M81.6,116.57c0,.46-.37.83-.83.83s-.83-.37-.83-.83.37-.83.83-.83.83.37.83.83Z"/>
  <path d="M25.12,150.44c0,.53-.43.96-.96.96s-.96-.43-.96-.96.43-.96.96-.96.96.43.96.96Z"/>
  <path d="M49.63,137.92c0,.69-.56,1.25-1.25,1.25s-1.25-.56-1.25-1.25.56-1.25,1.25-1.25,1.25.56,1.25,1.25Z"/>
  <path d="M30.28,162.55c0,.33-.27.61-.61.61s-.61-.27-.61-.61.27-.61.61-.61.61.27.61.61Z"/>
  <path d="M94.1,124.89c0,.44-.36.8-.8.8s-.8-.36-.8-.8.36-.8.8-.8.8.36.8.8Z"/>
  <path d="M44.34,113.02c0,.28-.23.51-.51.51s-.51-.23-.51-.51.23-.51.51-.51.51.23.51.51Z"/>
  <path d="M46,123.81c0,.42-.34.77-.76.77s-.76-.34-.76-.77.34-.76.76-.76.76.34.76.76Z"/>
  <path d="M109.14,138.58c0,.7-.57,1.27-1.28,1.27s-1.27-.57-1.27-1.27.57-1.28,1.27-1.28,1.28.57,1.28,1.28Z"/>
  <path d="M87.27,140.25c0,.31-.25.57-.57.57s-.57-.25-.57-.57.25-.57.57-.57.57.25.57.57Z"/>
  <path d="M73.28,142.54c0,.48-.38.86-.86.86s-.86-.38-.86-.86.39-.86.86-.86.86.38.86.86Z"/>
  <path d="M95.99,170.69c0,.49-.39.88-.88.88s-.88-.39-.88-.88.4-.88.88-.88.88.39.88.88Z"/>
  <path d="M104.03,185.04c0,.24-.19.43-.43.43s-.43-.19-.43-.43.19-.43.43-.43.43.19.43.43Z"/>
  <path d="M68.39,118.98c0,.35-.28.63-.63.63s-.63-.28-.63-.63.28-.63.63-.63.63.28.63.63Z"/>
  <path d="M43.97,144.9c0,.47-.38.85-.85.85s-.85-.38-.85-.85.38-.85.85-.85.85.38.85.85Z"/>
  <path d="M107.61,181.69c0,.61-.49,1.1-1.1,1.1s-1.1-.49-1.1-1.1.49-1.1,1.1-1.1,1.1.49,1.1,1.1Z"/>
  <path d="M69.44,127.88c0,.72-.58,1.3-1.29,1.3s-1.3-.58-1.3-1.3.58-1.3,1.3-1.3,1.29.58,1.29,1.3Z"/>
  <path d="M49.45,134.33c0,.61-.49,1.1-1.1,1.1s-1.1-.49-1.1-1.1.49-1.1,1.1-1.1,1.1.49,1.1,1.1Z"/>
  <path d="M115.81,131.86c0,.67-.54,1.21-1.21,1.21s-1.21-.54-1.21-1.21.54-1.21,1.21-1.21,1.21.54,1.21,1.21Z"/>
  <path d="M93.23,185.73c0,.38-.31.68-.68.68s-.68-.3-.68-.68.31-.68.68-.68.68.3.68.68Z"/>
  <path d="M41.8,124.3c0,.42-.34.76-.76.76s-.76-.34-.76-.76.34-.76.76-.76.76.34.76.76Z"/>
  <path d="M112.61,117.92c0,.58-.47,1.06-1.06,1.06s-1.06-.47-1.06-1.06.47-1.06,1.06-1.06,1.06.47,1.06,1.06Z"/>
  <path d="M68.17,143c0,.25-.2.45-.45.45s-.45-.2-.45-.45.2-.45.45-.45.45.2.45.45Z"/>
  <path d="M117.58,140.96c0,.31-.25.57-.57.57s-.57-.25-.57-.57.25-.57.57-.57.57.25.57.57Z"/>
  <path d="M71.53,162.96c0,.37-.3.67-.67.67s-.67-.3-.67-.67.3-.67.67-.67.67.3.67.67Z"/>
  <path d="M60.22,156.25c0,.36-.3.66-.66.66s-.66-.29-.66-.66.3-.66.66-.66.66.3.66.66Z"/>
  <path d="M68.75,154.63c0,.49-.4.89-.89.89s-.89-.4-.89-.89.4-.89.89-.89.89.4.89.89Z"/>
  <path d="M41.9,153.72c0,.71-.58,1.29-1.29,1.29s-1.29-.58-1.29-1.29.58-1.29,1.29-1.29,1.29.58,1.29,1.29Z"/>
  <path d="M29.88,134.15c0,.58-.46,1.04-1.04,1.04s-1.04-.46-1.04-1.04.47-1.04,1.04-1.04,1.04.47,1.04,1.04Z"/>
  <path d="M99.02,192.5c0,.79-.64,1.43-1.43,1.43s-1.43-.64-1.43-1.43.64-1.43,1.43-1.43,1.43.64,1.43,1.43Z"/>
  <path d="M125.62,191.18c0,.54-.44.99-.99.99s-.99-.44-.99-.99.44-.99.99-.99.99.44.99.99Z"/>
  <path d="M87.05,173.49c0,.39-.31.7-.7.7s-.69-.31-.69-.7.31-.69.69-.69.7.31.7.69Z"/>
  <path d="M41.87,138.96c0,.59-.48,1.08-1.08,1.08s-1.07-.48-1.07-1.08.48-1.08,1.07-1.08,1.08.48,1.08,1.08Z"/>
  <path d="M43.29,168.06c0,.29-.23.52-.52.52s-.52-.23-.52-.52.23-.52.52-.52.52.23.52.52Z"/>
  <path d="M25.07,166.28c0,.52-.42.94-.94.94s-.94-.42-.94-.94.42-.94.94-.94.94.42.94.94Z"/>
  <path d="M74.25,98.8c0,.38-.31.69-.69.69s-.69-.31-.69-.69.31-.69.69-.69.69.31.69.69Z"/>
  <path d="M101,62.25c0,.41-.33.75-.75.75s-.74-.33-.74-.75.33-.75.74-.75.75.33.75.75Z"/>
  <path d="M91.06,98.25c0,.57-.46,1.04-1.04,1.04s-1.04-.46-1.04-1.04.46-1.04,1.04-1.04,1.04.46,1.04,1.04Z"/>
  <path d="M42.94,71.78c0,.25-.21.46-.46.46s-.46-.21-.46-.46.21-.46.46-.46.46.21.46.46Z"/>
  <path d="M53.93,121.85c0,.48-.39.87-.87.87s-.87-.39-.87-.87.39-.87.87-.87.87.39.87.87Z"/>
  <path d="M39.55,55.5c0,.23-.19.42-.42.42s-.42-.19-.42-.42.19-.42.42-.42.42.19.42.42Z"/>
  <path d="M39.72,59.19c0,.37-.3.68-.68.68s-.68-.3-.68-.68.3-.67.68-.67.68.3.68.67Z"/>
  <path d="M97.85,12.99c0,.3-.25.55-.55.55s-.55-.25-.55-.55.25-.55.55-.55.55.25.55.55Z"/>
  <path d="M28.26,67.5c0,.41-.33.75-.75.75s-.74-.33-.74-.75.33-.74.74-.74.75.33.75.74Z"/>
  <path d="M76.78,97.8c0,.31-.25.57-.57.57s-.57-.25-.57-.57.26-.57.57-.57.57.25.57.57Z"/>
  <path d="M63.09,58.57c0,.63-.51,1.14-1.14,1.14s-1.14-.51-1.14-1.14.51-1.14,1.14-1.14,1.14.51,1.14,1.14Z"/>
  <path d="M44.11,61.13c0,.3-.25.55-.55.55s-.55-.25-.55-.55.25-.55.55-.55.55.24.55.55Z"/>
  <path d="M93.04,15.54c0,.67-.54,1.21-1.21,1.21s-1.21-.54-1.21-1.21.54-1.21,1.21-1.21,1.21.54,1.21,1.21Z"/>
  <path d="M104.06,5.45c0,.55-.45.99-.99.99s-.99-.44-.99-.99.44-.99.99-.99.99.44.99.99Z"/>
  <path d="M62.27,97.63c0,.57-.47,1.04-1.04,1.04s-1.04-.47-1.04-1.04.46-1.04,1.04-1.04,1.04.47,1.04,1.04Z"/>
  <path d="M70.75,80.28c0,.71-.58,1.29-1.29,1.29s-1.29-.58-1.29-1.29.58-1.29,1.29-1.29,1.29.58,1.29,1.29Z"/>
  <path d="M93.96,60.21c0,.78-.63,1.41-1.41,1.41s-1.41-.63-1.41-1.41.63-1.41,1.41-1.41,1.41.63,1.41,1.41Z"/>
  <path d="M73.23,22.46c0,.38-.31.69-.69.69s-.69-.31-.69-.69.31-.69.69-.69.69.31.69.69Z"/>
  <path d="M73.94,87.51c0,.36-.29.66-.66.66s-.65-.29-.65-.66.29-.65.65-.65.66.29.66.65Z"/>
  <path d="M85.41,67.31c0,.54-.44.98-.99.98s-.99-.44-.99-.98.44-.99.99-.99.99.44.99.99Z"/>
  <path d="M48.71,78.74c0,.83-.67,1.5-1.5,1.5s-1.5-.67-1.5-1.5.67-1.5,1.5-1.5,1.5.67,1.5,1.5Z"/>
  <path d="M78.1,96.06c0,.43-.35.78-.78.78s-.78-.35-.78-.78.35-.78.78-.78.78.35.78.78Z"/>
  <path d="M53.34,55.42c0,.58-.47,1.06-1.06,1.06s-1.06-.47-1.06-1.06.47-1.06,1.06-1.06,1.06.47,1.06,1.06Z"/>
  <path d="M113.5,70.04c0,.67-.55,1.22-1.22,1.22s-1.22-.54-1.22-1.22.54-1.22,1.22-1.22,1.22.54,1.22,1.22Z"/>
  <path d="M114.91,105.14c0,.88-.71,1.59-1.59,1.59s-1.59-.71-1.59-1.59.71-1.59,1.59-1.59,1.59.71,1.59,1.59Z"/>
  <path d="M115.01,66.46c0,.37-.3.67-.67.67s-.67-.3-.67-.67.3-.66.67-.66.67.3.67.66Z"/>
  <path d="M122.32,67.11c0,.34-.28.62-.62.62s-.62-.28-.62-.62.28-.62.62-.62.62.28.62.62Z"/>
  <path d="M82.5,52.34c0,.75-.61,1.37-1.37,1.37s-1.37-.61-1.37-1.37.61-1.37,1.37-1.37,1.37.61,1.37,1.37Z"/>
  <path d="M128.37,67.84c0,.65-.53,1.18-1.18,1.18s-1.18-.53-1.18-1.18.53-1.18,1.18-1.18,1.18.53,1.18,1.18Z"/>
  <path d="M99.39,101.52c0,.73-.6,1.33-1.33,1.33s-1.33-.6-1.33-1.33.6-1.33,1.33-1.33,1.33.6,1.33,1.33Z"/>
  <path d="M36.24,63.87c0,.44-.36.8-.8.8s-.8-.36-.8-.8.36-.8.8-.8.8.36.8.8Z"/>
  <path d="M94.86,52.84c0,.49-.4.89-.89.89s-.89-.4-.89-.89.4-.89.89-.89.89.4.89.89Z"/>
  <path d="M82.87,73.82c0,.34-.28.62-.62.62s-.62-.28-.62-.62.28-.62.62-.62.62.28.62.62Z"/>
  <path d="M123.72,87.11c0,.41-.33.74-.74.74s-.74-.33-.74-.74.33-.74.74-.74.74.33.74.74Z"/>
  <path d="M60.74,68.95c0,.5-.41.91-.91.91s-.91-.4-.91-.91.41-.91.91-.91.91.41.91.91Z"/>
  <path d="M34.16,41.68c0,.49-.39.89-.89.89s-.89-.4-.89-.89.4-.89.89-.89.89.4.89.89Z"/>
  <path d="M103.97,65.24c0,.22-.18.4-.4.4s-.4-.18-.4-.4.18-.4.4-.4.4.18.4.4Z"/>
  <path d="M122.65,23.67c0,.46-.37.84-.84.84s-.84-.37-.84-.84.37-.84.84-.84.84.37.84.84Z"/>
  <path d="M56.88,50.26c0,.44-.36.8-.8.8s-.8-.36-.8-.8.36-.8.8-.8.8.36.8.8Z"/>
  <path d="M115.91,84.79c0,.92-.75,1.67-1.67,1.67s-1.67-.75-1.67-1.67.75-1.67,1.67-1.67,1.67.75,1.67,1.67Z"/>
  <path d="M92.76,100.51c0,.49-.4.89-.89.89s-.89-.4-.89-.89.4-.89.89-.89.89.4.89.89Z"/>
  <path d="M100.07,81.21c0,.59-.48,1.07-1.07,1.07s-1.07-.48-1.07-1.07.48-1.07,1.07-1.07,1.07.48,1.07,1.07Z"/>
  <path d="M120.29,60.71c0,.95-.77,1.72-1.72,1.72s-1.73-.77-1.73-1.72.77-1.72,1.73-1.72,1.72.77,1.72,1.72Z"/>
  <path d="M122.03,84.95c0,.37-.3.67-.67.67s-.67-.3-.67-.67.3-.67.67-.67.67.3.67.67Z"/>
  <path d="M119.83,118.21c0,.83-.67,1.51-1.51,1.51s-1.5-.67-1.5-1.51.67-1.51,1.5-1.51,1.51.67,1.51,1.51Z"/>
  <path d="M62.15,89.52c0,.56-.46,1.02-1.02,1.02s-1.02-.46-1.02-1.02.46-1.02,1.02-1.02,1.02.46,1.02,1.02Z"/>
  <path d="M68.71,42.12c0,.59-.48,1.08-1.08,1.08s-1.08-.48-1.08-1.08.48-1.08,1.08-1.08,1.08.48,1.08,1.08Z"/>
  <path d="M71.92,95.72c0,.36-.29.65-.64.65s-.65-.29-.65-.65.29-.64.65-.64.64.29.64.64Z"/>
  <path d="M68.15,139.64c0,.64-.52,1.17-1.17,1.17s-1.17-.52-1.17-1.17.52-1.17,1.17-1.17,1.17.52,1.17,1.17Z"/>
  <path d="M44.66,92.52c0,.81-.65,1.46-1.46,1.46s-1.46-.65-1.46-1.46.66-1.46,1.46-1.46,1.46.66,1.46,1.46Z"/>
  <path d="M61.68,139.6c0,.7-.56,1.26-1.26,1.26s-1.26-.56-1.26-1.26.57-1.26,1.26-1.26,1.26.57,1.26,1.26Z"/>
  <path d="M91.04,132.83c0,.56-.46,1.02-1.02,1.02s-1.02-.46-1.02-1.02.46-1.02,1.02-1.02,1.02.46,1.02,1.02Z"/>
  <path d="M20.83,55.22c0,.6-.49,1.09-1.09,1.09s-1.09-.49-1.09-1.09.49-1.1,1.09-1.1,1.09.49,1.09,1.1Z"/>
  <path d="M42.73,61.33c0,.32-.26.58-.58.58s-.58-.26-.58-.58.26-.58.58-.58.58.26.58.58Z"/>
  <path d="M21.5,104.5c0,.29-.23.52-.52.52s-.52-.23-.52-.52.23-.52.52-.52.52.23.52.52Z"/>
  <path d="M101.37,76.87c0,.41-.34.75-.75.75s-.75-.34-.75-.75.34-.75.75-.75.75.34.75.75Z"/>
  <path d="M73.17,121.4c0,.39-.31.7-.7.7s-.7-.31-.7-.7.31-.7.7-.7.7.31.7.7Z"/>
  <path d="M62.96,77.69c0,.83-.67,1.51-1.51,1.51s-1.5-.67-1.5-1.51.67-1.51,1.5-1.51,1.51.67,1.51,1.51Z"/>
  <path d="M60.55,116.85c0,.25-.21.46-.46.46s-.46-.21-.46-.46.21-.46.46-.46.46.21.46.46Z"/>
  <path d="M70.84,68.85c0,.49-.4.89-.89.89s-.89-.4-.89-.89.4-.89.89-.89.89.4.89.89Z"/>
  <path d="M25.69,90.65c0,.39-.32.71-.71.71s-.71-.32-.71-.71.32-.71.71-.71.71.32.71.71Z"/>
  <path d="M53,56.8c0,.24-.19.44-.43.44s-.43-.19-.43-.44.19-.43.43-.43.43.19.43.43Z"/>
  <path d="M23.71,96.98c0,.62-.5,1.12-1.12,1.12s-1.12-.5-1.12-1.12.5-1.12,1.12-1.12,1.12.5,1.12,1.12Z"/>
  <path d="M57.55,61.94c0,.52-.42.94-.94.94s-.94-.42-.94-.94.42-.94.94-.94.94.42.94.94Z"/>
  <path d="M50.87,28.4c0,.42-.34.76-.76.76s-.75-.34-.75-.76.34-.75.75-.75.76.34.76.75Z"/>
  <path d="M52.89,83.48c0,.65-.53,1.17-1.17,1.17s-1.17-.52-1.17-1.17.53-1.17,1.17-1.17,1.17.53,1.17,1.17Z"/>
  <path d="M94.23,92.23c0,.59-.48,1.06-1.06,1.06s-1.06-.48-1.06-1.06.47-1.06,1.06-1.06,1.06.48,1.06,1.06Z"/>
  <path d="M62.2,55.41c0,.73-.59,1.32-1.32,1.32s-1.32-.59-1.32-1.32.59-1.32,1.32-1.32,1.32.59,1.32,1.32Z"/>
  <path d="M74.61,89c0,.48-.39.87-.87.87s-.87-.39-.87-.87.39-.87.87-.87.87.39.87.87Z"/>
  <path d="M19.72,113.65c0,.58-.47,1.05-1.05,1.05s-1.05-.47-1.05-1.05.47-1.05,1.05-1.05,1.05.47,1.05,1.05Z"/>
  <path d="M83.48,110.35c0,.24-.2.44-.44.44s-.44-.2-.44-.44.2-.44.44-.44.44.2.44.44Z"/>
  <path d="M79.14,44.84c0,.41-.33.74-.74.74s-.74-.33-.74-.74.33-.74.74-.74.74.33.74.74Z"/>
  <path d="M124.64,22.25c0,.4-.32.72-.72.72s-.72-.32-.72-.72.32-.72.72-.72.72.32.72.72Z"/>
  <path d="M131.8,85.43c0,.76-.61,1.37-1.37,1.37s-1.37-.61-1.37-1.37.61-1.37,1.37-1.37,1.37.61,1.37,1.37Z"/>
  <path d="M128.96,11.11c0,.73-.59,1.33-1.33,1.33s-1.33-.6-1.33-1.33.59-1.33,1.33-1.33,1.33.59,1.33,1.33Z"/>
  <path d="M70.54,57.2c0,.29-.24.53-.53.53s-.53-.24-.53-.53.24-.53.53-.53.53.24.53.53Z"/>
  <path d="M152.52,73.93c0,.39-.32.71-.71.71s-.71-.32-.71-.71.32-.71.71-.71.71.32.71.71Z"/>
  <path d="M108.77,70.3c0,.19-.15.34-.34.34s-.34-.15-.34-.34.15-.34.34-.34.34.15.34.34Z"/>
  <path d="M71.35,36.27c0,.24-.19.43-.43.43s-.44-.19-.44-.43.2-.43.44-.43.43.19.43.43Z"/>
  <path d="M128.23,19.87c0,.3-.24.54-.54.54s-.54-.24-.54-.54.24-.54.54-.54.54.24.54.54Z"/>
  <path d="M119.83,57.83c0,.48-.39.86-.86.86s-.87-.39-.87-.86.39-.87.87-.87.86.39.86.87Z"/>
  <path d="M74.78,59.64c0,.68-.55,1.24-1.24,1.24s-1.24-.55-1.24-1.24.55-1.24,1.24-1.24,1.24.55,1.24,1.24Z"/>
  <path d="M84.81,88.31c0,.44-.35.79-.79.79s-.79-.35-.79-.79.36-.79.79-.79.79.35.79.79Z"/>
  <path d="M118.94,97.09c0,.43-.35.77-.77.77s-.77-.35-.77-.77.35-.77.77-.77.77.35.77.77Z"/>
  <path d="M137.5,67.02c0,.56-.45,1.01-1.01,1.01s-1.01-.45-1.01-1.01.45-1.01,1.01-1.01,1.01.45,1.01,1.01Z"/>
  <path d="M79.83,43.51c0,.38-.31.69-.69.69s-.69-.31-.69-.69.31-.69.69-.69.69.31.69.69Z"/>
  <path d="M51.29,32.07c0,.28-.23.51-.51.51s-.51-.23-.51-.51.23-.51.51-.51.51.23.51.51Z"/>
  <path d="M113.34,31.65c0,1.14-.92,2.06-2.06,2.06s-2.06-.92-2.06-2.06.92-2.06,2.06-2.06,2.06.92,2.06,2.06Z"/>
  <path d="M115.3,9.3c0,.84-.68,1.53-1.53,1.53s-1.53-.69-1.53-1.53.69-1.53,1.53-1.53,1.53.68,1.53,1.53Z"/>
  <path d="M127.35,47.28c0,.37-.3.66-.66.66s-.66-.3-.66-.66.3-.66.66-.66.66.3.66.66Z"/>
  <path d="M75.33,42.85c0,.25-.2.45-.44.45s-.45-.2-.45-.45.2-.45.45-.45.44.2.44.45Z"/>
  <path d="M77.23,32.72c0,.38-.31.68-.68.68s-.69-.31-.69-.68.31-.68.69-.68.68.31.68.68Z"/>
  <path d="M130.76,77.14c0,.64-.51,1.15-1.15,1.15s-1.15-.52-1.15-1.15.51-1.15,1.15-1.15,1.15.52,1.15,1.15Z"/>
  <path d="M141.73,74.25c0,.73-.59,1.31-1.31,1.31s-1.31-.59-1.31-1.31.59-1.31,1.31-1.31,1.31.59,1.31,1.31Z"/>
  <path d="M90.61,18.73c0,.25-.2.46-.46.46s-.46-.2-.46-.46.21-.46.46-.46.46.2.46.46Z"/>
  <path d="M99.54,12.11c0,.45-.36.81-.82.81s-.81-.36-.81-.81.37-.81.81-.81.82.36.82.81Z"/>
  <path d="M100.41,57.52c0,.4-.32.72-.72.72s-.72-.32-.72-.72.32-.72.72-.72.72.32.72.72Z"/>
  <path d="M101.86,71.93c0,.49-.4.89-.89.89s-.89-.4-.89-.89.4-.89.89-.89.89.4.89.89Z"/>
  <path d="M132.4,34.3c0,.61-.49,1.1-1.1,1.1s-1.1-.49-1.1-1.1.49-1.1,1.1-1.1,1.1.49,1.1,1.1Z"/>
  <path d="M107.36,5.25c0,.61-.49,1.1-1.1,1.1s-1.1-.49-1.1-1.1.49-1.1,1.1-1.1,1.1.49,1.1,1.1Z"/>
  <path d="M97.2,49.83c0,.7-.57,1.26-1.27,1.26s-1.27-.57-1.27-1.26.57-1.27,1.27-1.27,1.27.57,1.27,1.27Z"/>
  <path d="M164.76,9.31c0,.48-.39.87-.87.87s-.87-.39-.87-.87.39-.87.87-.87.87.39.87.87Z"/>
  <path d="M117.21,65.47c0,.37-.3.67-.67.67s-.67-.3-.67-.67.3-.67.67-.67.67.3.67.67Z"/>
  <path d="M103.79,13.15c0,.45-.37.82-.82.82s-.82-.37-.82-.82.37-.82.82-.82.82.37.82.82Z"/>
  <path d="M102.73,61.13c0,.51-.41.92-.92.92s-.92-.41-.92-.92.41-.92.92-.92.92.41.92.92Z"/>
  <path d="M132.81,57.8c0,1-.81,1.81-1.82,1.81s-1.81-.81-1.81-1.81.81-1.82,1.81-1.82,1.82.81,1.82,1.82Z"/>
  <path d="M170.72,96.05c0,1.12-.91,2.03-2.03,2.03s-2.03-.91-2.03-2.03.91-2.03,2.03-2.03,2.03.91,2.03,2.03Z"/>
  <path d="M95.07,24.32c0,.4-.32.72-.72.72s-.72-.32-.72-.72.32-.72.72-.72.72.32.72.72Z"/>
  <path d="M160.42,97.01c0,.29-.24.53-.53.53s-.53-.24-.53-.53.24-.53.53-.53.53.24.53.53Z"/>
  <path d="M118.64,77.99c0,.3-.24.53-.53.53s-.53-.24-.53-.53.24-.53.53-.53.53.24.53.53Z"/>
  <path d="M87.18,34.43c0,.55-.45,1-1,1s-1-.45-1-1,.45-1,1-1,1,.45,1,1Z"/>
  <path d="M69.2,17.44c0,.55-.45,1-1,1s-1-.45-1-1,.45-1,1-1,1,.45,1,1Z"/>
  <path d="M114.65,5.19c0,.53-.43.96-.96.96s-.96-.43-.96-.96.43-.96.96-.96.96.43.96.96Z"/>
  <path d="M147.69,32.56c0,.3-.24.54-.54.54s-.54-.24-.54-.54.24-.54.54-.54.54.24.54.54Z"/>
  <path d="M136.19,21.12c0,.45-.36.82-.82.82s-.82-.37-.82-.82.37-.82.82-.82.82.37.82.82Z"/>
  <path d="M94.13,76.32c0,.77-.62,1.4-1.39,1.4s-1.4-.62-1.4-1.4.63-1.39,1.4-1.39,1.39.62,1.39,1.39Z"/>
  <path d="M100.05,11.26c0,.5-.4.9-.9.9s-.9-.4-.9-.9.4-.9.9-.9.9.4.9.9Z"/>
  <path d="M95.54,69.46c0,.3-.24.54-.54.54s-.54-.24-.54-.54.24-.53.54-.53.54.24.54.53Z"/>
  <path d="M109.21,79.23c0,.71-.58,1.28-1.29,1.28s-1.29-.57-1.29-1.28.58-1.29,1.29-1.29,1.29.58,1.29,1.29Z"/>
  <path d="M82.8,51.19c0,.71-.57,1.28-1.28,1.28s-1.28-.57-1.28-1.28.57-1.28,1.28-1.28,1.28.57,1.28,1.28Z"/>
  <path d="M132.89,58.57c0,.72-.59,1.31-1.31,1.31s-1.31-.59-1.31-1.31.59-1.31,1.31-1.31,1.31.59,1.31,1.31Z"/>
  <path d="M126.47,96.92c0,.5-.41.91-.91.91s-.91-.41-.91-.91.41-.91.91-.91.91.41.91.91Z"/>
  <path d="M48.04,102.16c0,.79-.64,1.43-1.43,1.43s-1.43-.64-1.43-1.43.64-1.43,1.43-1.43,1.43.64,1.43,1.43Z"/>
  <path d="M108.72,29.31c0,.52-.43.95-.95.95s-.95-.43-.95-.95.43-.95.95-.95.95.42.95.95Z"/>
  <path d="M92.23,37.82c0,.44-.36.8-.8.8s-.8-.36-.8-.8.36-.8.8-.8.8.36.8.8Z"/>
  <path d="M101.37,41.45c0,.41-.33.74-.74.74s-.74-.33-.74-.74.33-.74.74-.74.74.33.74.74Z"/>
  <path d="M131.44,83.82c0,.4-.32.73-.73.73s-.72-.32-.72-.73.33-.73.72-.73.73.33.73.73Z"/>
  <path d="M137.56,63.87c0,.44-.36.8-.8.8s-.8-.36-.8-.8.36-.8.8-.8.8.36.8.8Z"/>
  <path d="M95.65,55.79c0,.62-.5,1.13-1.13,1.13s-1.13-.51-1.13-1.13.51-1.13,1.13-1.13,1.13.51,1.13,1.13Z"/>
  <path d="M127.81,96.25c0,.32-.26.58-.58.58s-.58-.26-.58-.58.26-.58.58-.58.58.26.58.58Z"/>
  <path d="M116.63,113.34c0,.25-.2.46-.46.46s-.46-.21-.46-.46.2-.46.46-.46.46.2.46.46Z"/>
  <path d="M69.59,34.02c0,.55-.45,1-1,1s-1-.45-1-1,.45-1,1-1,1,.45,1,1Z"/>
  <path d="M97.27,91.13c0,.3-.24.54-.54.54s-.54-.24-.54-.54.24-.54.54-.54.54.24.54.54Z"/>
  <path d="M78.42,104.37c0,.53-.43.96-.96.96s-.95-.43-.95-.96.43-.96.95-.96.96.43.96.96Z"/>
  <circle cx="119.75" cy="48.85" r="1.26"/>
  <path d="M52.96,46.87c0,.53-.43.96-.96.96s-.96-.43-.96-.96.43-.96.96-.96.96.43.96.96Z"/>
  <path d="M70.05,68.98c0,.69-.56,1.25-1.25,1.25s-1.25-.56-1.25-1.25.56-1.25,1.25-1.25,1.25.56,1.25,1.25Z"/>
  <path d="M113.83,38.51c0,.45-.37.82-.82.82s-.82-.37-.82-.82.37-.82.82-.82.82.37.82.82Z"/>
  <path d="M132.45,70.84c0,.26-.21.48-.48.48s-.48-.21-.48-.48.21-.48.48-.48.48.21.48.48Z"/>
  <path d="M132.67,24.47c0,.51-.42.93-.93.93s-.93-.42-.93-.93.42-.93.93-.93.93.42.93.93Z"/>
  <path d="M93.95,104.36c0,.34-.27.61-.61.61s-.61-.27-.61-.61.27-.61.61-.61.61.27.61.61Z"/>
  <path d="M79.22,82.35c0,.49-.4.89-.88.89s-.89-.4-.89-.89.4-.89.89-.89.88.4.88.89Z"/>
  <path d="M138.93,89.3c0,.66-.53,1.19-1.19,1.19s-1.19-.53-1.19-1.19.53-1.19,1.19-1.19,1.19.53,1.19,1.19Z"/>
  <path d="M79.1,73.71c0,.41-.33.73-.73.73s-.73-.33-.73-.73.33-.73.73-.73.73.33.73.73Z"/>
  <path d="M102.3,81.13c0,.54-.44.99-.98.99s-.99-.44-.99-.99.44-.99.99-.99.98.44.98.99Z"/>
  <path d="M92.11,27.76c0,.96-.78,1.74-1.74,1.74s-1.74-.78-1.74-1.74.78-1.74,1.74-1.74,1.74.78,1.74,1.74Z"/>
  <path d="M88.89,63.39c0,.34-.28.62-.62.62s-.62-.28-.62-.62.28-.62.62-.62.62.28.62.62Z"/>
  <path d="M48.88,37.37c0,.24-.19.43-.43.43s-.43-.19-.43-.43.19-.43.43-.43.43.19.43.43Z"/>
  <path d="M96.99,104.91c0,.46-.37.83-.83.83s-.83-.37-.83-.83.37-.83.83-.83.83.37.83.83Z"/>
  <path d="M97.09,98.29c0,.36-.29.65-.65.65s-.65-.29-.65-.65.29-.65.65-.65.65.29.65.65Z"/>
  <path d="M113.57,50.26c0,.57-.46,1.03-1.03,1.03s-1.03-.46-1.03-1.03.46-1.03,1.03-1.03,1.03.46,1.03,1.03Z"/>
  <path d="M113.08,37.05c0,.66-.54,1.19-1.19,1.19s-1.19-.54-1.19-1.19.54-1.19,1.19-1.19,1.19.53,1.19,1.19Z"/>
  <path d="M159.8,77.52c0,.71-.57,1.28-1.28,1.28s-1.28-.57-1.28-1.28.57-1.28,1.28-1.28,1.28.57,1.28,1.28Z"/>
  <path d="M100.85,48.71c0,.24-.2.44-.43.44s-.44-.19-.44-.44.2-.44.44-.44.43.2.43.44Z"/>
  <path d="M124.8,87.76c0,.31-.25.56-.56.56s-.56-.25-.56-.56.25-.56.56-.56.56.25.56.56Z"/>
  <path d="M153.77.72c0,.4-.32.72-.72.72s-.72-.32-.72-.72.33-.72.72-.72.72.32.72.72Z"/>
  <path d="M123.49,42.22c0,.51-.41.91-.91.91s-.91-.41-.91-.91.41-.91.91-.91.91.41.91.91Z"/>
  <path d="M183.87,77.41c0,.56-.45,1.02-1.01,1.02s-1.02-.45-1.02-1.02.46-1.01,1.02-1.01,1.01.45,1.01,1.01Z"/>
  <path d="M167.82,81.89c0,.28-.23.51-.51.51s-.5-.23-.5-.51.23-.51.5-.51.51.23.51.51Z"/>
  <path d="M117.28,47.15c0,.59-.48,1.06-1.07,1.06s-1.07-.48-1.07-1.06.48-1.07,1.07-1.07,1.07.48,1.07,1.07Z"/>
  <path d="M126.83,29.68c0,.55-.44.99-.99.99s-.99-.44-.99-.99.44-.99.99-.99.99.44.99.99Z"/>
  <path d="M162.61,103.61c0,.59-.48,1.06-1.06,1.06s-1.06-.48-1.06-1.06.48-1.06,1.06-1.06,1.06.48,1.06,1.06Z"/>
  <path d="M134.46,62.02c0,.46-.37.83-.83.83s-.83-.37-.83-.83.37-.83.83-.83.83.37.83.83Z"/>
  <path d="M88.95,115.98c0,.25-.2.44-.45.44s-.45-.2-.45-.44.2-.45.45-.45.45.2.45.45Z"/>
  <path d="M122.41,81.47c0,.49-.39.88-.88.88s-.88-.39-.88-.88.39-.88.88-.88.88.39.88.88Z"/>
  <path d="M159.62,15.77c0,.42-.34.77-.76.77s-.77-.34-.77-.77.34-.77.77-.77.76.34.76.77Z"/>
  <path d="M90.04,13.52c0,.87-.71,1.57-1.57,1.57s-1.58-.7-1.58-1.57.7-1.57,1.58-1.57,1.57.7,1.57,1.57Z"/>
  <path d="M109.67,18.1c0,.53-.43.96-.96.96s-.96-.43-.96-.96.43-.96.96-.96.96.43.96.96Z"/>
  <path d="M149.95,43.92c0,.52-.42.94-.94.94s-.94-.42-.94-.94.42-.94.94-.94.94.42.94.94Z"/>
  <path d="M188.9,30.43c0,.35-.28.63-.63.63s-.63-.28-.63-.63.28-.63.63-.63.63.28.63.63Z"/>
  <path d="M98,9.13c0,.28-.23.51-.51.51s-.51-.23-.51-.51.23-.51.51-.51.51.23.51.51Z"/>
  <path d="M107.98,59.09c0,.22-.17.39-.39.39s-.39-.17-.39-.39.18-.39.39-.39.39.18.39.39Z"/>
  <path d="M98.07,47.56c0,.42-.34.76-.76.76s-.76-.34-.76-.76.34-.76.76-.76.76.34.76.76Z"/>
  <path d="M170.96,107.89c0,.5-.41.91-.91.91s-.91-.41-.91-.91.41-.91.91-.91.91.41.91.91Z"/>
  <path d="M180.33,90.79c0,.65-.53,1.18-1.17,1.18s-1.18-.53-1.18-1.18.53-1.18,1.18-1.18,1.17.53,1.17,1.18Z"/>
  <path d="M99.43,75.16c0,.22-.18.41-.41.41s-.4-.18-.4-.41.18-.41.4-.41.41.18.41.41Z"/>
  <path d="M166.57,86.6c0,.3-.24.54-.54.54s-.54-.24-.54-.54.24-.54.54-.54.54.24.54.54Z"/>
  <path d="M160.91,94.51c0,.44-.36.8-.8.8s-.8-.36-.8-.8.36-.8.8-.8.8.36.8.8Z"/>
  <path d="M149.44,52.23c0,.49-.39.88-.88.88s-.88-.39-.88-.88.39-.88.88-.88.88.39.88.88Z"/>
  <path d="M168.77,106.31c0,1.09-.89,1.98-1.98,1.98s-1.98-.88-1.98-1.98.89-1.97,1.98-1.97,1.98.88,1.98,1.97Z"/>
  <path d="M158.62,51.67c0,.41-.33.74-.74.74s-.75-.33-.75-.74.33-.74.75-.74.74.33.74.74Z"/>
  <circle cx="131.08" cy="86.27" r="1.03"/>
  <path d="M147.27,110.11c0,.43-.34.77-.77.77s-.77-.35-.77-.77.34-.77.77-.77.77.35.77.77Z"/>
  <path d="M183.19,96.79c0,.68-.55,1.24-1.24,1.24s-1.24-.55-1.24-1.24.55-1.24,1.24-1.24,1.24.55,1.24,1.24Z"/>
  <path d="M136.82,99.66c0,.48-.39.87-.87.87s-.87-.39-.87-.87.39-.87.87-.87.87.39.87.87Z"/>
  <path d="M199.05,100.95c0,.31-.25.56-.56.56s-.56-.25-.56-.56.25-.56.56-.56.56.25.56.56Z"/>
  <path d="M198.46,39.44c0,.65-.53,1.18-1.18,1.18s-1.18-.53-1.18-1.18.53-1.18,1.18-1.18,1.18.53,1.18,1.18Z"/>
  <path d="M162.39,106.09c0,.52-.42.94-.94.94s-.94-.42-.94-.94.42-.94.94-.94.94.42.94.94Z"/>
  <path d="M154.26,31.3c0,.4-.33.73-.74.73s-.73-.33-.73-.73.33-.73.73-.73.74.33.74.73Z"/>
  <path d="M151.81,98.81c0,.23-.19.42-.42.42s-.42-.19-.42-.42.19-.42.42-.42.42.19.42.42Z"/>
  <path d="M157.57,123.39c0,.35-.28.63-.63.63s-.63-.28-.63-.63.28-.63.63-.63.63.28.63.63Z"/>
  <path d="M107.79,91.1c0,.39-.31.7-.7.7s-.7-.31-.7-.7.31-.7.7-.7.7.31.7.7Z"/>
  <path d="M141.8,78.73c0,.21-.17.38-.38.38s-.38-.17-.38-.38.17-.38.38-.38.38.17.38.38Z"/>
  <path d="M97.62,65.5c0,.46-.37.84-.83.84s-.84-.37-.84-.84.37-.84.84-.84.83.37.83.84Z"/>
  <path d="M184.89,36.09c0,.4-.33.73-.73.73s-.73-.32-.73-.73.32-.73.73-.73.73.33.73.73Z"/>
  <path d="M189.62,103.31c0,.27-.22.49-.5.49s-.5-.22-.5-.49.22-.5.5-.5.5.22.5.5Z"/>
  <path d="M203.7,98.69c0,.32-.26.58-.58.58s-.58-.26-.58-.58.26-.58.58-.58.58.26.58.58Z"/>
  <path d="M146.64,49.33c0,.51-.41.92-.92.92s-.92-.41-.92-.92.41-.92.92-.92.92.41.92.92Z"/>
  <path d="M179.68,24.43c0,.5-.41.92-.92.92s-.91-.41-.91-.92.41-.91.91-.91.92.41.92.91Z"/>
  <path d="M194.35,21.62c0,.77-.63,1.4-1.4,1.4s-1.4-.63-1.4-1.4.63-1.4,1.4-1.4,1.4.63,1.4,1.4Z"/>
  <path d="M183.5,100.69c0,.37-.3.68-.68.68s-.68-.3-.68-.68.3-.68.68-.68.68.3.68.68Z"/>
  <path d="M168.42,68.43c0,.62-.51,1.13-1.13,1.13s-1.13-.5-1.13-1.13.51-1.13,1.13-1.13,1.13.51,1.13,1.13Z"/>
  <path d="M198.8,83.99c0,.51-.41.91-.92.91s-.91-.41-.91-.91.41-.91.91-.91.92.41.92.91Z"/>
  <path d="M154.93,81.92c0,.93-.76,1.69-1.69,1.69s-1.69-.76-1.69-1.69.76-1.69,1.69-1.69,1.69.76,1.69,1.69Z"/>
  <path d="M166.16,77.08c0,.8-.65,1.46-1.46,1.46s-1.46-.65-1.46-1.46.65-1.46,1.46-1.46,1.46.65,1.46,1.46Z"/>
  <path d="M136.32,90.31c0,.42-.34.75-.75.75s-.75-.34-.75-.75.34-.75.75-.75.75.34.75.75Z"/>
  <path d="M101.45,74.73c0,.63-.51,1.14-1.14,1.14s-1.14-.51-1.14-1.14.51-1.14,1.14-1.14,1.14.51,1.14,1.14Z"/>
  <path d="M140.75,128.93c0,.51-.41.92-.92.92s-.92-.41-.92-.92.41-.92.92-.92.92.41.92.92Z"/>
  <path d="M102.71,110.88c0,.34-.27.61-.61.61s-.61-.27-.61-.61.27-.61.61-.61.61.27.61.61Z"/>
  <path d="M152.88,73.32c0,.91-.74,1.64-1.64,1.64s-1.64-.74-1.64-1.64.74-1.64,1.64-1.64,1.64.74,1.64,1.64Z"/>
  <path d="M95,104.36c0,.38-.31.68-.69.68s-.68-.31-.68-.68.31-.69.68-.69.69.31.69.69Z"/>
  <path d="M98.3,111.56c0,.39-.32.71-.71.71s-.71-.32-.71-.71.32-.71.71-.71.71.32.71.71Z"/>
  <path d="M136.94,108.67c0,.45-.36.81-.81.81s-.81-.36-.81-.81.36-.81.81-.81.81.36.81.81Z"/>
  <path d="M127.75,126.06c0,.57-.46,1.04-1.04,1.04s-1.04-.46-1.04-1.04.46-1.04,1.04-1.04,1.04.46,1.04,1.04Z"/>
  <path d="M158.25,79.82c0,.75-.61,1.37-1.37,1.37s-1.37-.61-1.37-1.37.61-1.37,1.37-1.37,1.37.61,1.37,1.37Z"/>
  <path d="M156.93,68.65c0,.9-.73,1.64-1.64,1.64s-1.64-.73-1.64-1.64.73-1.64,1.64-1.64,1.64.73,1.64,1.64Z"/>
  <path d="M119.04,99.74c0,.4-.33.73-.73.73s-.73-.33-.73-.73.33-.73.73-.73.73.33.73.73Z"/>
  <path d="M81.63,147.31c0,.31-.25.56-.55.56s-.56-.25-.56-.56.25-.55.56-.55.55.25.55.55Z"/>
  <path d="M119.7,99.06c0,.55-.45,1-1,1s-1-.45-1-1,.45-1,1-1,1,.45,1,1Z"/>
  <path d="M94.43,117.61c0,.29-.24.53-.53.53s-.54-.24-.54-.53.24-.54.54-.54.53.24.53.54Z"/>
  <path d="M120.66,104.32c0,.66-.54,1.2-1.2,1.2s-1.2-.54-1.2-1.2.54-1.21,1.2-1.21,1.2.54,1.2,1.21Z"/>
  <path d="M99.94,84.03c0,.58-.47,1.05-1.05,1.05s-1.05-.47-1.05-1.05.47-1.05,1.05-1.05,1.05.47,1.05,1.05Z"/>
  <path d="M133.9,71.21c0,.4-.33.73-.73.73s-.73-.33-.73-.73.33-.73.73-.73.73.33.73.73Z"/>
  <path d="M172.14,78.19c0,.84-.68,1.53-1.52,1.53s-1.53-.69-1.53-1.53.68-1.53,1.53-1.53,1.52.68,1.52,1.53Z"/>
  <path d="M100.87,72.07c0,.65-.53,1.18-1.17,1.18s-1.17-.53-1.17-1.18.52-1.17,1.17-1.17,1.17.52,1.17,1.17Z"/>
  <path d="M99.08,91.92c0,.5-.41.91-.91.91s-.91-.41-.91-.91.41-.91.91-.91.91.41.91.91Z"/>
  <path d="M158.42,53.19c0,.51-.41.91-.92.91s-.91-.41-.91-.91.41-.91.91-.91.92.41.92.91Z"/>
  <path d="M184.52,123.84c0,.55-.44.99-.99.99s-1-.44-1-.99.45-.99,1-.99.99.44.99.99Z"/>
  <path d="M124.63,78.68c0,.44-.35.79-.79.79s-.79-.35-.79-.79.36-.79.79-.79.79.35.79.79Z"/>
  <path d="M102.25,51.47c0,.33-.27.6-.59.6s-.6-.27-.6-.6.27-.6.6-.6.59.27.59.6Z"/>
  <path d="M105.43,101.18c0,.34-.27.61-.61.61s-.61-.27-.61-.61.28-.61.61-.61.61.27.61.61Z"/>
  <path d="M130.3,69.22c0,.72-.59,1.31-1.31,1.31s-1.3-.58-1.3-1.31.59-1.31,1.3-1.31,1.31.59,1.31,1.31Z"/>
  <path d="M166.08,161.61c0,.83-.67,1.5-1.5,1.5s-1.5-.67-1.5-1.5.67-1.5,1.5-1.5,1.5.67,1.5,1.5Z"/>
  <path d="M113.63,145.44c0,.38-.31.68-.68.68s-.68-.31-.68-.68.3-.68.68-.68.68.3.68.68Z"/>
  <path d="M154.6,113.92c0,.4-.32.72-.72.72s-.72-.32-.72-.72.32-.72.72-.72.72.32.72.72Z"/>
  <path d="M137.04,181.57c0,.22-.17.4-.39.4s-.39-.18-.39-.4.17-.39.39-.39.39.18.39.39Z"/>
  <path d="M141.38,171.66c0,.25-.2.46-.46.46s-.46-.2-.46-.46.21-.46.46-.46.46.2.46.46Z"/>
  <path d="M178.71,164.82c0,.34-.27.61-.61.61s-.61-.27-.61-.61.28-.61.61-.61.61.28.61.61Z"/>
  <path d="M123.5,138.29c0,.41-.33.74-.74.74s-.74-.33-.74-.74.33-.74.74-.74.74.33.74.74Z"/>
  <path d="M95.78,96.76c0,.33-.27.6-.59.6s-.59-.27-.59-.6.27-.6.59-.6.59.27.59.6Z"/>
  <path d="M174.53,95.86c0,.75-.61,1.36-1.36,1.36s-1.36-.6-1.36-1.36.61-1.36,1.36-1.36,1.36.61,1.36,1.36Z"/>
  <path d="M191.97,138.38c0,.44-.35.79-.79.79s-.79-.35-.79-.79.36-.79.79-.79.79.35.79.79Z"/>
  <path d="M140.47,157.39c0,.28-.23.51-.52.51s-.51-.23-.51-.51.23-.52.51-.52.52.23.52.52Z"/>
  <path d="M148.59,147.28c0,.86-.7,1.55-1.56,1.55s-1.56-.69-1.56-1.55.7-1.56,1.56-1.56,1.56.7,1.56,1.56Z"/>
  <path d="M142.32,85.09c0,.22-.18.4-.4.4s-.4-.18-.4-.4.18-.4.4-.4.4.18.4.4Z"/>
  <path d="M144.16,72.8c0,.38-.31.69-.69.69s-.69-.31-.69-.69.31-.69.69-.69.69.31.69.69Z"/>
  <path d="M145.29,140.07c0,.54-.43.97-.97.97s-.97-.43-.97-.97.43-.97.97-.97.97.43.97.97Z"/>
  <path d="M100.06,131.29c0,.56-.45,1.01-1.01,1.01s-1.01-.45-1.01-1.01.46-1.01,1.01-1.01,1.01.45,1.01,1.01Z"/>
  <path d="M164.14,108.96c0,.52-.42.93-.93.93s-.93-.42-.93-.93.42-.93.93-.93.93.42.93.93Z"/>
  <path d="M167.35,117.87c0,.5-.41.92-.92.92s-.92-.41-.92-.92.41-.92.92-.92.92.41.92.92Z"/>
  <path d="M182.58,98.27c0,.53-.43.96-.96.96s-.96-.43-.96-.96.43-.96.96-.96.96.43.96.96Z"/>
  <path d="M130.28,85.08c0,.53-.43.95-.95.95s-.95-.43-.95-.95.43-.95.95-.95.95.43.95.95Z"/>
  <path d="M116.54,134.01c0,.51-.41.92-.92.92s-.92-.41-.92-.92.41-.92.92-.92.92.41.92.92Z"/>
  <path d="M86.96,51.2c0,.69-.55,1.24-1.24,1.24s-1.24-.55-1.24-1.24.55-1.24,1.24-1.24,1.24.56,1.24,1.24Z"/>
  <path d="M95.52,109.95c0,.3-.24.54-.54.54s-.54-.24-.54-.54.24-.54.54-.54.54.24.54.54Z"/>
  <path d="M178.86,166.22c0,.81-.65,1.47-1.46,1.47s-1.47-.66-1.47-1.47.66-1.46,1.47-1.46,1.46.65,1.46,1.46Z"/>
  <path d="M189.49,91.45c0,.34-.28.62-.62.62s-.62-.28-.62-.62.28-.62.62-.62.62.28.62.62Z"/>
  <path d="M139.89,119.99c0,.42-.34.76-.76.76s-.76-.34-.76-.76.34-.76.76-.76.76.34.76.76Z"/>
  <path d="M157.16,153.05c0,.3-.25.54-.54.54s-.55-.24-.55-.54.25-.55.55-.55.54.24.54.55Z"/>
  <path d="M170.18,140.28c0,.69-.56,1.25-1.25,1.25s-1.25-.56-1.25-1.25.56-1.25,1.25-1.25,1.25.56,1.25,1.25Z"/>
  <path d="M151.2,154.79c0,.86-.7,1.55-1.55,1.55s-1.55-.69-1.55-1.55.7-1.55,1.55-1.55,1.55.69,1.55,1.55Z"/>
  <path d="M148.23,147.92c0,.49-.39.88-.88.88s-.88-.4-.88-.88.4-.88.88-.88.88.39.88.88Z"/>
  <circle cx="131.27" cy="115.72" r=".79"/>
  <path d="M135.48,71.99c0,.57-.46,1.03-1.02,1.03s-1.03-.46-1.03-1.03.46-1.03,1.03-1.03,1.02.46,1.02,1.03Z"/>
  <path d="M142.32,103.48c0,.29-.24.53-.53.53s-.53-.24-.53-.53.24-.53.53-.53.53.24.53.53Z"/>
  <path d="M127.17,160.42c0,.38-.3.69-.69.69s-.69-.31-.69-.69.31-.69.69-.69.69.31.69.69Z"/>
  <path d="M142.33,105.66c0,.48-.39.87-.87.87s-.87-.39-.87-.87.39-.87.87-.87.87.39.87.87Z"/>
  <path d="M213.53,143.37c0,.73-.59,1.31-1.31,1.31s-1.31-.59-1.31-1.31.59-1.31,1.31-1.31,1.31.59,1.31,1.31Z"/>
  <path d="M141.62,119.58c0,.84-.68,1.52-1.52,1.52s-1.52-.68-1.52-1.52.68-1.51,1.52-1.51,1.52.68,1.52,1.51Z"/>
  <path d="M174.25,159.29c0,.31-.25.56-.56.56s-.56-.25-.56-.56.25-.56.56-.56.56.25.56.56Z"/>
  <path d="M155.19,190.42c0,.59-.48,1.07-1.07,1.07s-1.07-.48-1.07-1.07.48-1.07,1.07-1.07,1.07.48,1.07,1.07Z"/>
  <path d="M160.76,151.44c0,.34-.28.62-.62.62s-.62-.28-.62-.62.28-.62.62-.62.62.28.62.62Z"/>
  <path d="M157.95,147.42c0,.58-.47,1.06-1.06,1.06s-1.06-.48-1.06-1.06.48-1.06,1.06-1.06,1.06.48,1.06,1.06Z"/>
  <path d="M176.76,77.41c0,.41-.33.74-.74.74s-.74-.33-.74-.74.33-.74.74-.74.74.33.74.74Z"/>
  <path d="M126.08,145.48c0,.28-.22.5-.5.5s-.5-.22-.5-.5.22-.5.5-.5.5.22.5.5Z"/>
  <path d="M215.39,143.51c0,.52-.42.95-.95.95s-.94-.42-.94-.95.42-.95.94-.95.95.42.95.95Z"/>
  <path d="M195.92,120.98c0,.27-.22.48-.48.48s-.48-.22-.48-.48.22-.48.48-.48.48.22.48.48Z"/>
  <path d="M149.63,132.47c0,.76-.62,1.37-1.37,1.37s-1.37-.62-1.37-1.37.62-1.37,1.37-1.37,1.37.62,1.37,1.37Z"/>
  <path d="M118.46,144.23c0,.44-.35.79-.79.79s-.79-.35-.79-.79.36-.79.79-.79.79.35.79.79Z"/>
  <path d="M109.94,137.28c0,.61-.49,1.1-1.1,1.1s-1.1-.49-1.1-1.1.49-1.1,1.1-1.1,1.1.49,1.1,1.1Z"/>
  <path d="M138.22,142.34c0,.87-.71,1.58-1.58,1.58s-1.58-.7-1.58-1.58.71-1.58,1.58-1.58,1.58.71,1.58,1.58Z"/>
  <path d="M165.68,103.39c0,.61-.49,1.1-1.1,1.1s-1.1-.49-1.1-1.1.49-1.1,1.1-1.1,1.1.49,1.1,1.1Z"/>
  <path d="M132.58,118.93c0,.32-.26.57-.57.57s-.57-.25-.57-.57.25-.57.57-.57.57.25.57.57Z"/>
  <path d="M77.61,146.04c0,.85-.69,1.54-1.54,1.54s-1.54-.69-1.54-1.54.69-1.54,1.54-1.54,1.54.69,1.54,1.54Z"/>
  <path d="M112.57,146.89c0,.72-.58,1.3-1.3,1.3s-1.3-.58-1.3-1.3.58-1.3,1.3-1.3,1.3.58,1.3,1.3Z"/>
  <path d="M180.93,106.49c0,.26-.21.47-.47.47s-.47-.21-.47-.47.21-.47.47-.47.47.21.47.47Z"/>
  <path d="M117.49,141.46c0,.68-.55,1.23-1.23,1.23s-1.23-.55-1.23-1.23.55-1.23,1.23-1.23,1.23.55,1.23,1.23Z"/>
  <path d="M142.64,135.46c0,.82-.67,1.49-1.49,1.49s-1.49-.67-1.49-1.49.67-1.49,1.49-1.49,1.49.67,1.49,1.49Z"/>
  <path d="M139.84,133.42c0,.44-.35.79-.79.79s-.79-.35-.79-.79.35-.78.79-.78.79.35.79.78Z"/>
  <path d="M151.32,173.71c0,.71-.58,1.29-1.29,1.29s-1.29-.58-1.29-1.29.58-1.29,1.29-1.29,1.29.58,1.29,1.29Z"/>
  <path d="M138.55,111.79c0,.43-.35.79-.79.79s-.79-.35-.79-.79.35-.79.79-.79.79.35.79.79Z"/>
  <path d="M148.75,111.64c0,.24-.2.44-.44.44s-.44-.2-.44-.44.19-.44.44-.44.44.2.44.44Z"/>
  <path d="M106.9,142.77c0,.33-.26.59-.59.59s-.59-.26-.59-.59.26-.59.59-.59.59.26.59.59Z"/>
  <path d="M128.02,98.24c0,.3-.24.54-.54.54s-.54-.24-.54-.54.24-.54.54-.54.54.24.54.54Z"/>
  <path d="M146.24,169.76c0,.46-.38.84-.84.84s-.84-.38-.84-.84.38-.84.84-.84.84.38.84.84Z"/>
  <path d="M165.6,145.42c0,.48-.39.87-.87.87s-.87-.39-.87-.87.39-.87.87-.87.87.39.87.87Z"/>
  <path d="M128.04,130.85c0,.53-.42.95-.95.95s-.95-.42-.95-.95.42-.95.95-.95.95.43.95.95Z"/>
  <path d="M92.45,137.94c0,.79-.64,1.42-1.42,1.42s-1.42-.64-1.42-1.42.64-1.42,1.42-1.42,1.42.63,1.42,1.42Z"/>
  <path d="M118.92,174.2c0,.9-.73,1.63-1.63,1.63s-1.63-.73-1.63-1.63.73-1.63,1.63-1.63,1.63.73,1.63,1.63Z"/>
  <path d="M134.46,190.16c0,.44-.35.79-.79.79s-.8-.36-.8-.79.36-.8.8-.8.79.36.79.8Z"/>
  <path d="M122.24,137.1c0,.35-.29.64-.64.64s-.64-.29-.64-.64.29-.64.64-.64.64.29.64.64Z"/>
  <path d="M141.64,110.97c0,.92-.74,1.66-1.66,1.66s-1.67-.74-1.67-1.66.74-1.66,1.67-1.66,1.66.74,1.66,1.66Z"/>
  <path d="M117.86,92.17c0,.74-.61,1.35-1.35,1.35s-1.35-.61-1.35-1.35.61-1.35,1.35-1.35,1.35.61,1.35,1.35Z"/>
  <path d="M112.45,173.9c0,.44-.36.8-.8.8s-.8-.36-.8-.8.36-.8.8-.8.8.36.8.8Z"/>
  <path d="M115.21,133.68c0,.25-.2.45-.46.45s-.46-.2-.46-.45.2-.45.46-.45.46.2.46.45Z"/>
  <path d="M155.5,137.29c0,.63-.51,1.14-1.14,1.14s-1.14-.51-1.14-1.14.51-1.14,1.14-1.14,1.14.51,1.14,1.14Z"/>
  <path d="M157.13,106.9c0,.63-.51,1.15-1.14,1.15s-1.15-.51-1.15-1.15.51-1.14,1.15-1.14,1.14.51,1.14,1.14Z"/>
  <path d="M154.92,182.82c0,.25-.2.45-.45.45s-.45-.2-.45-.45.2-.45.45-.45.45.2.45.45Z"/>
  <path d="M118.12,193.23c0,.51-.41.92-.92.92s-.92-.41-.92-.92.41-.91.92-.91.92.41.92.91Z"/>
  <path d="M168.8,103.28c0,.46-.37.84-.84.84s-.84-.37-.84-.84.37-.84.84-.84.84.37.84.84Z"/>
  <path d="M159.95,67.09c0,.5-.41.91-.91.91s-.91-.41-.91-.91.41-.91.91-.91.91.41.91.91Z"/>
  <path d="M188.62,75.93c0,.87-.7,1.57-1.57,1.57s-1.57-.7-1.57-1.57.7-1.57,1.57-1.57,1.57.7,1.57,1.57Z"/>
  <path d="M129.29,80.64c0,.6-.48,1.08-1.08,1.08s-1.08-.48-1.08-1.08.48-1.08,1.08-1.08,1.08.48,1.08,1.08Z"/>
  <path d="M134.33,116.69c0,.29-.23.52-.52.52s-.53-.23-.53-.52.23-.53.53-.53.52.23.52.53Z"/>
  <path d="M176.55,107.57c0,.36-.29.65-.65.65s-.65-.29-.65-.65.29-.65.65-.65.65.29.65.65Z"/>
  <path d="M139.68,73.61c0,.31-.25.57-.57.57s-.57-.25-.57-.57.25-.57.57-.57.57.25.57.57Z"/>
  <path d="M111.14,88.83c0,.35-.28.64-.63.64s-.63-.28-.63-.64.28-.64.63-.64.63.29.63.64Z"/>
  <path d="M121.36,22.9c0,.52-.42.94-.94.94s-.94-.42-.94-.94.42-.94.94-.94.94.42.94.94Z"/>
  <path d="M138.82,68.81c0,.29-.24.53-.53.53s-.52-.24-.52-.53.24-.52.52-.52.53.23.53.52Z"/>
  <path d="M185.38,42.88c0,.5-.41.91-.91.91s-.91-.41-.91-.91.41-.91.91-.91.91.41.91.91Z"/>
  <path d="M156.01,83.5c0,.78-.63,1.41-1.41,1.41s-1.41-.63-1.41-1.41.63-1.41,1.41-1.41,1.41.63,1.41,1.41Z"/>
  <path d="M142.76,91.91c0,.83-.67,1.5-1.5,1.5s-1.5-.67-1.5-1.5.67-1.5,1.5-1.5,1.5.67,1.5,1.5Z"/>
  <path d="M157.77,120.49c0,.42-.34.76-.76.76s-.76-.34-.76-.76.34-.76.76-.76.76.34.76.76Z"/>
  <path d="M117.15,95.94c0,.51-.41.93-.93.93s-.92-.41-.92-.93.41-.93.92-.93.93.42.93.93Z"/>
  <path d="M122.02,70.1c0,.44-.36.8-.8.8s-.8-.36-.8-.8.35-.8.8-.8.8.36.8.8Z"/>
  <path d="M111.93,32.11c0,.29-.23.53-.53.53s-.53-.24-.53-.53.24-.53.53-.53.53.24.53.53Z"/>
  <path d="M107.46,119.65c0,.51-.41.92-.92.92s-.92-.41-.92-.92.41-.92.92-.92.92.41.92.92Z"/>
  <path d="M113.22,79.61c0,.43-.35.78-.78.78s-.78-.35-.78-.78.35-.78.78-.78.78.35.78.78Z"/>
  <path d="M108.9,69.06c0,.68-.55,1.24-1.24,1.24s-1.24-.55-1.24-1.24.56-1.24,1.24-1.24,1.24.55,1.24,1.24Z"/>
  <path d="M181.95,48.4c0,.22-.18.4-.41.4s-.41-.18-.41-.4.18-.41.41-.41.41.18.41.41Z"/>
  <path d="M156.92,25.27c0,.25-.2.45-.45.45s-.45-.2-.45-.45.2-.45.45-.45.45.2.45.45Z"/>
  <path d="M160.5,63.88c0,.18-.14.32-.32.32s-.32-.14-.32-.32.14-.32.32-.32.32.14.32.32Z"/>
  <path d="M117.28,62.48c0,.36-.29.66-.66.66s-.66-.29-.66-.66.29-.66.66-.66.66.3.66.66Z"/>
  <path d="M183.35,74.88c0,.55-.45,1-1,1s-1-.44-1-1,.45-.99,1-.99,1,.44,1,.99Z"/>
  <path d="M114.3,72.44c0,.6-.48,1.08-1.08,1.08s-1.08-.49-1.08-1.08.49-1.08,1.08-1.08,1.08.48,1.08,1.08Z"/>
  <path d="M167.29,139.21c0,.27-.22.48-.48.48s-.48-.21-.48-.48.22-.48.48-.48.48.22.48.48Z"/>
  <path d="M137.44,126.63c0,.44-.35.79-.79.79s-.79-.35-.79-.79.35-.79.79-.79.79.35.79.79Z"/>
  <path d="M130.9,75.54c0,.34-.27.61-.61.61s-.61-.27-.61-.61.27-.61.61-.61.61.27.61.61Z"/>
  <path d="M160.76,70.1c0,.37-.3.67-.67.67s-.67-.3-.67-.67.3-.67.67-.67.67.3.67.67Z"/>
  <path d="M143.99,141.32c0,.65-.53,1.18-1.18,1.18s-1.18-.53-1.18-1.18.53-1.18,1.18-1.18,1.18.53,1.18,1.18Z"/>
  <path d="M134.13,110.14c0,.41-.34.75-.75.75s-.75-.34-.75-.75.34-.75.75-.75.75.33.75.75Z"/>
  <path d="M119.4,119.49c0,.77-.62,1.39-1.38,1.39s-1.38-.62-1.38-1.39.62-1.38,1.38-1.38,1.38.62,1.38,1.38Z"/>
  <path d="M108.4,92.8c0,.62-.5,1.13-1.13,1.13s-1.12-.51-1.12-1.13.5-1.13,1.12-1.13,1.13.5,1.13,1.13Z"/>
  <path d="M202.67,82.64c0,.34-.28.62-.62.62s-.62-.28-.62-.62.28-.62.62-.62.62.28.62.62Z"/>
  <path d="M136.65,114.8c0,.22-.18.4-.41.4s-.41-.18-.41-.4.18-.41.41-.41.41.18.41.41Z"/>
  <path d="M172.7,63.53c0,.47-.38.85-.85.85s-.85-.38-.85-.85.38-.85.85-.85.85.38.85.85Z"/>
  <path d="M167.17,98.27c0,.31-.25.56-.56.56s-.57-.25-.57-.56.25-.56.57-.56.56.25.56.56Z"/>
  <path d="M203.84,135.68c0,.9-.73,1.64-1.64,1.64s-1.63-.73-1.63-1.64.73-1.63,1.63-1.63,1.64.73,1.64,1.63Z"/>
  <path d="M188.93,111.78c0,.45-.37.82-.82.82s-.82-.37-.82-.82.37-.82.82-.82.82.37.82.82Z"/>
  <path d="M132.08,71.05c0,.47-.38.84-.84.84s-.84-.38-.84-.84.38-.84.84-.84.84.38.84.84Z"/>
  <path d="M190.79,87.23c0,.55-.45,1-1,1s-1-.45-1-1,.45-1,1-1,1,.45,1,1Z"/>
  <path d="M161.71,75.86c0,.5-.4.9-.9.9s-.9-.4-.9-.9.4-.9.9-.9.9.4.9.9Z"/>
  <path d="M179.3,67.08c0,.55-.44.99-.99.99s-.99-.44-.99-.99.44-.99.99-.99.99.44.99.99Z"/>
  <path d="M184.74,123.93c0,.67-.54,1.21-1.21,1.21s-1.21-.54-1.21-1.21.54-1.21,1.21-1.21,1.21.54,1.21,1.21Z"/>
  <path d="M145.93,47.01c0,.27-.22.5-.49.5s-.5-.22-.5-.5.22-.5.5-.5.49.22.49.5Z"/>
  <path d="M155.35,58.17c0,.37-.3.66-.66.66s-.66-.3-.66-.66.3-.66.66-.66.66.3.66.66Z"/>
  <path d="M214.47,102.9c0,.42-.34.76-.76.76s-.76-.34-.76-.76.34-.76.76-.76.76.34.76.76Z"/>
  <path d="M168.62,42.74c0,.41-.33.75-.75.75s-.75-.33-.75-.75.34-.75.75-.75.75.33.75.75Z"/>
  <path d="M150.74,103.43c0,.32-.26.58-.58.58s-.58-.26-.58-.58.26-.58.58-.58.58.26.58.58Z"/>
  <path d="M182.86,126.54c0,.49-.4.89-.89.89s-.89-.4-.89-.89.4-.89.89-.89.89.4.89.89Z"/>
  <path d="M173,68.59c0,.64-.51,1.15-1.15,1.15s-1.15-.52-1.15-1.15.51-1.16,1.15-1.16,1.15.52,1.15,1.16Z"/>
  <path d="M132.01,123.76c0,.28-.22.5-.5.5s-.5-.22-.5-.5.22-.5.5-.5.5.22.5.5Z"/>
  <path d="M161.83,96.25c0,.33-.27.6-.6.6s-.6-.27-.6-.6.27-.6.6-.6.6.27.6.6Z"/>
  <path d="M163.42,70.22c0,1.1-.9,2-2,2s-1.99-.89-1.99-2,.89-2,1.99-2,2,.89,2,2Z"/>
  <path d="M157.73,114.96c0,.68-.55,1.22-1.22,1.22s-1.22-.55-1.22-1.22.55-1.22,1.22-1.22,1.22.55,1.22,1.22Z"/>
  <path d="M155.62,84.5c0,.56-.45,1-1,1s-1-.45-1-1,.45-1,1-1,1,.45,1,1Z"/>
  <path d="M128.74,117.24c0,.87-.71,1.58-1.58,1.58s-1.58-.71-1.58-1.58.71-1.58,1.58-1.58,1.58.71,1.58,1.58Z"/>
  <path d="M129.59,81.37c0,.6-.49,1.08-1.08,1.08s-1.08-.48-1.08-1.08.48-1.08,1.08-1.08,1.08.49,1.08,1.08Z"/>
  <path d="M158.09,123.18c0,.59-.48,1.07-1.07,1.07s-1.07-.48-1.07-1.07.48-1.07,1.07-1.07,1.07.48,1.07,1.07Z"/>
  <path d="M114.41,67.75c0,.6-.48,1.08-1.08,1.08s-1.08-.48-1.08-1.08.48-1.08,1.08-1.08,1.08.48,1.08,1.08Z"/>
  <path d="M164.39,101.07c0,.42-.34.77-.77.77s-.77-.35-.77-.77.34-.77.77-.77.77.35.77.77Z"/>
  <path d="M111.44,89.11c0,.5-.41.91-.91.91s-.91-.41-.91-.91.41-.91.91-.91.91.41.91.91Z"/>
  <path d="M116.87,76.28c0,.35-.29.64-.64.64s-.64-.29-.64-.64.29-.64.64-.64.64.29.64.64Z"/>
  <path d="M156.76,112.02c0,.26-.22.48-.48.48s-.48-.22-.48-.48.21-.48.48-.48.48.21.48.48Z"/>
  <path d="M96.11,168.99c0,.69-.56,1.26-1.26,1.26s-1.26-.56-1.26-1.26.56-1.26,1.26-1.26,1.26.56,1.26,1.26Z"/>
  <path d="M168.02,94.1c0,.61-.49,1.1-1.1,1.1s-1.1-.49-1.1-1.1.49-1.1,1.1-1.1,1.1.49,1.1,1.1Z"/>
  <path d="M102.43,141.63c0,.31-.25.56-.56.56s-.56-.25-.56-.56.25-.56.56-.56.56.25.56.56Z"/>
  <path d="M127.56,111.26c0,.3-.25.54-.55.54s-.54-.24-.54-.54.24-.54.54-.54.55.24.55.54Z"/>
  <path d="M100.5,137.68c0,.45-.37.82-.82.82s-.82-.37-.82-.82.37-.82.82-.82.82.37.82.82Z"/>
  <path d="M78.79,82.47c0,.31-.25.56-.56.56s-.56-.25-.56-.56.25-.56.56-.56.56.25.56.56Z"/>
  <path d="M117.88,120.72c0,.64-.52,1.17-1.17,1.17s-1.16-.52-1.16-1.17.52-1.16,1.16-1.16,1.17.52,1.17,1.16Z"/>
  <path d="M133.92,135.61c0,.75-.61,1.36-1.36,1.36s-1.37-.61-1.37-1.36.61-1.36,1.37-1.36,1.36.61,1.36,1.36Z"/>
  <path d="M149.94,118.01c0,.52-.42.94-.94.94s-.94-.42-.94-.94.42-.94.94-.94.94.42.94.94Z"/>
  <path d="M158.11,107.14c0,.74-.6,1.33-1.33,1.33s-1.33-.59-1.33-1.33.6-1.33,1.33-1.33,1.33.6,1.33,1.33Z"/>
  <path d="M116.77,71.42c0,.58-.47,1.05-1.05,1.05s-1.05-.47-1.05-1.05.47-1.05,1.05-1.05,1.05.47,1.05,1.05Z"/>
  <path d="M104.04,122.16c0,.44-.36.8-.8.8s-.8-.36-.8-.8.36-.8.8-.8.8.36.8.8Z"/>
  <path d="M108.77,59.16c0,.54-.44.99-.98.99s-.99-.44-.99-.99.44-.99.99-.99.98.44.98.99Z"/>
  <path d="M168.58,75.33c0,.38-.31.69-.69.69s-.69-.31-.69-.69.31-.69.69-.69.69.31.69.69Z"/>
  <path d="M153.02,147.74c0,.28-.23.5-.5.5s-.51-.23-.51-.5.23-.5.51-.5.5.23.5.5Z"/>
  <path d="M110.91,111c0,.38-.3.69-.68.69s-.68-.31-.68-.69.31-.69.68-.69.68.31.68.69Z"/>
  <path d="M110.69,103.3c0,.33-.27.6-.6.6s-.6-.27-.6-.6.27-.6.6-.6.6.27.6.6Z"/>
  <path d="M68.5,54.29c0,.52-.42.93-.93.93s-.93-.42-.93-.93.42-.93.93-.93.93.42.93.93Z"/>
  <path d="M110.69,57.96c0,.51-.41.92-.92.92s-.92-.41-.92-.92.41-.92.92-.92.92.41.92.92Z"/>
  <path d="M73.49,57.65c0,.5-.41.9-.9.9s-.9-.4-.9-.9.4-.9.9-.9.9.4.9.9Z"/>
  <path d="M117.46,98.06c0,.46-.38.84-.84.84s-.84-.38-.84-.84.37-.85.84-.85.84.38.84.85Z"/>
  <path d="M97.77,91.35c0,.23-.19.42-.42.42s-.42-.19-.42-.42.19-.42.42-.42.42.19.42.42Z"/>
  <path d="M101.31,55.82c0,.41-.33.74-.75.74s-.75-.33-.75-.74.33-.74.75-.74.75.33.75.74Z"/>
  <path d="M73.67,82.73c0,.22-.17.39-.39.39s-.39-.18-.39-.39.18-.39.39-.39.39.17.39.39Z"/>
  <path d="M140.29,83.03c0,.53-.43.96-.96.96s-.96-.43-.96-.96.43-.96.96-.96.96.43.96.96Z"/>
  <path d="M119.01,60.61c0,.43-.35.77-.78.77s-.78-.35-.78-.77.35-.78.78-.78.78.35.78.78Z"/>
  <path d="M83.2,67.43c0,1.17-.95,2.12-2.12,2.12s-2.12-.95-2.12-2.12.95-2.12,2.12-2.12,2.12.95,2.12,2.12Z"/>
  <path d="M116.1,62.31c0,.43-.35.78-.78.78s-.78-.35-.78-.78.35-.78.78-.78.78.35.78.78Z"/>
  <path d="M127.09,41.34c0,.59-.48,1.07-1.07,1.07s-1.07-.48-1.07-1.07.48-1.07,1.07-1.07,1.07.48,1.07,1.07Z"/>
  <path d="M80.4,102.97c0,.77-.62,1.4-1.39,1.4s-1.39-.62-1.39-1.4.62-1.39,1.39-1.39,1.39.62,1.39,1.39Z"/>
  <path d="M139.17,132.26c0,.54-.44.98-.98.98s-.98-.44-.98-.98.44-.98.98-.98.98.44.98.98Z"/>
  <path d="M78.27,46.85c0,.8-.65,1.46-1.46,1.46s-1.45-.65-1.45-1.46.65-1.45,1.45-1.45,1.46.65,1.46,1.45Z"/>
  <path d="M127.79,58.44c0,.28-.22.5-.5.5s-.5-.22-.5-.5.22-.5.5-.5.5.22.5.5Z"/>
  <path d="M110.83,48c0,.57-.47,1.04-1.04,1.04s-1.04-.46-1.04-1.04.46-1.04,1.04-1.04,1.04.46,1.04,1.04Z"/>
  <path d="M102.54,80.25c0,.6-.49,1.08-1.08,1.08s-1.08-.48-1.08-1.08.49-1.09,1.08-1.09,1.08.49,1.08,1.09Z"/>
  <path d="M111.08,120.87c0,.27-.22.49-.49.49s-.49-.22-.49-.49.22-.49.49-.49.49.22.49.49Z"/>
  <path d="M126.66,99.3c0,.55-.45,1-1,1s-1-.45-1-1,.45-1,1-1,1,.45,1,1Z"/>
  <path d="M93.34,68.32c0,.29-.23.52-.52.52s-.52-.23-.52-.52.23-.52.52-.52.52.23.52.52Z"/>
  <path d="M134.81,46.11c0,.2-.16.36-.36.36s-.36-.16-.36-.36.16-.36.36-.36.36.16.36.36Z"/>
  <path d="M113.26,21.06c0,.43-.35.77-.77.77s-.77-.35-.77-.77.35-.77.77-.77.77.35.77.77Z"/>
  <path d="M146.04,118.12c0,.32-.26.58-.58.58s-.58-.26-.58-.58.26-.58.58-.58.58.26.58.58Z"/>
  <path d="M104.58,155.36c0,.8-.65,1.44-1.44,1.44s-1.44-.65-1.44-1.44.65-1.44,1.44-1.44,1.44.65,1.44,1.44Z"/>
  <path d="M126.13,93.73c0,.28-.22.5-.5.5s-.5-.23-.5-.5.22-.5.5-.5.5.23.5.5Z"/>
  <path d="M144.71,63.99c0,.28-.22.5-.5.5s-.5-.23-.5-.5.22-.5.5-.5.5.22.5.5Z"/>
  <path d="M116.84,134.57c0,.53-.43.95-.95.95s-.96-.43-.96-.95.43-.95.96-.95.95.43.95.95Z"/>
  <path d="M118.74,72.08c0,.48-.39.88-.88.88s-.88-.39-.88-.88.39-.88.88-.88.88.39.88.88Z"/>
  <path d="M96.37,146.35c0,.39-.32.71-.71.71s-.71-.32-.71-.71.32-.71.71-.71.71.32.71.71Z"/>
  <path d="M117.26,75.61c0,.44-.36.8-.8.8s-.81-.36-.81-.8.36-.8.81-.8.8.36.8.8Z"/>
  <path d="M99.06,112.22c0,.47-.38.85-.86.85s-.85-.38-.85-.85.38-.86.85-.86.86.38.86.86Z"/>
  <path d="M86.75,81.99c0,.59-.48,1.07-1.07,1.07s-1.07-.48-1.07-1.07.48-1.07,1.07-1.07,1.07.48,1.07,1.07Z"/>
  <path d="M135.83,65.2c0,.38-.31.7-.7.7s-.7-.31-.7-.7.31-.7.7-.7.7.31.7.7Z"/>
  <path d="M97.45,133.56c0,.23-.18.41-.41.41s-.41-.19-.41-.41.18-.41.41-.41.41.18.41.41Z"/>
  <path d="M132.8,115.58c0,1.02-.83,1.85-1.85,1.85s-1.85-.83-1.85-1.85.83-1.85,1.85-1.85,1.85.83,1.85,1.85Z"/>
  <path d="M185.42,90.54c0,.6-.48,1.08-1.08,1.08s-1.08-.48-1.08-1.08.48-1.08,1.08-1.08,1.08.48,1.08,1.08Z"/>
  <path d="M107.84,63.16c0,.75-.61,1.36-1.36,1.36s-1.36-.61-1.36-1.36.61-1.36,1.36-1.36,1.36.61,1.36,1.36Z"/>
  <path d="M156.09,103.39c0,.49-.4.89-.89.89s-.9-.4-.9-.89.4-.89.9-.89.89.4.89.89Z"/>
  <path d="M167.51,88.54c0,.31-.25.55-.55.55s-.56-.25-.56-.55.25-.55.56-.55.55.25.55.55Z"/>
  <path d="M125.37,130.63c0,.37-.3.67-.67.67s-.67-.3-.67-.67.3-.67.67-.67.67.3.67.67Z"/>
  <path d="M151.39,79.33c0,.47-.38.86-.86.86s-.85-.38-.85-.86.38-.85.85-.85.86.38.86.85Z"/>
  <path d="M132.38,107.02c0,.59-.48,1.08-1.08,1.08s-1.08-.48-1.08-1.08.48-1.08,1.08-1.08,1.08.48,1.08,1.08Z"/>
  <path d="M162.4,25.97c0,.6-.49,1.09-1.09,1.09s-1.09-.49-1.09-1.09.49-1.09,1.09-1.09,1.09.49,1.09,1.09Z"/>
  <path d="M175.16,79.2c0,.32-.26.57-.57.57s-.57-.26-.57-.57.26-.57.57-.57.57.26.57.57Z"/>
  <path d="M114.96,82.34c0,.6-.48,1.08-1.08,1.08s-1.08-.48-1.08-1.08.48-1.08,1.08-1.08,1.08.48,1.08,1.08Z"/>
  <path d="M158.89,80.15c0,.69-.56,1.25-1.25,1.25s-1.25-.56-1.25-1.25.56-1.25,1.25-1.25,1.25.56,1.25,1.25Z"/>
  <path d="M153.45,32.54c0,.4-.32.72-.72.72s-.73-.32-.73-.72.33-.72.73-.72.72.32.72.72Z"/>
  <path d="M121.4,56.18c0,.31-.25.57-.57.57s-.57-.25-.57-.57.25-.57.57-.57.57.25.57.57Z"/>
  <path d="M129.27,56.34c0,.5-.4.9-.9.9s-.9-.4-.9-.9.4-.9.9-.9.9.4.9.9Z"/>
  <path d="M147.56,84.64c0,.73-.59,1.33-1.32,1.33s-1.33-.59-1.33-1.33.59-1.32,1.33-1.32,1.32.59,1.32,1.32Z"/>
  <path d="M158.43,115.7c0,.55-.45,1-1,1s-1-.45-1-1,.45-1,1-1,1,.45,1,1Z"/>
  <path d="M152.95,81.56c0,.49-.4.89-.89.89s-.89-.4-.89-.89.4-.89.89-.89.89.4.89.89Z"/>
  <path d="M84.21,133.5c0,1.08-.87,1.95-1.95,1.95s-1.95-.87-1.95-1.95.87-1.95,1.95-1.95,1.95.87,1.95,1.95Z"/>
  <path d="M80.67,106.13c0,.62-.5,1.12-1.12,1.12s-1.12-.5-1.12-1.12.5-1.12,1.12-1.12,1.12.5,1.12,1.12Z"/>
  <path d="M75.99,84.79c0,.41-.33.75-.75.75s-.75-.34-.75-.75.33-.75.75-.75.75.33.75.75Z"/>
  <path d="M125.28,113.98c0,.71-.57,1.28-1.28,1.28s-1.28-.58-1.28-1.28.57-1.28,1.28-1.28,1.28.57,1.28,1.28Z"/>
  <path d="M99.62,148.34c0,.44-.36.8-.8.8s-.8-.36-.8-.8.36-.8.8-.8.8.36.8.8Z"/>
  <path d="M116.23,122.36c0,.29-.23.52-.52.52s-.52-.24-.52-.52.23-.52.52-.52.52.23.52.52Z"/>
  <path d="M166.19,69.05c0,.64-.52,1.16-1.16,1.16s-1.16-.52-1.16-1.16.52-1.16,1.16-1.16,1.16.52,1.16,1.16Z"/>
  <path d="M105.98,80.24c0,.49-.4.89-.89.89s-.89-.4-.89-.89.4-.89.89-.89.89.4.89.89Z"/>
  <path d="M124.99,73.39c0,.3-.24.54-.54.54s-.54-.24-.54-.54.24-.54.54-.54.54.24.54.54Z"/>
  <path d="M70.43,78.5c0,.45-.36.81-.81.81s-.81-.36-.81-.81.36-.81.81-.81.81.36.81.81Z"/>
  <path d="M145.7,114.74c0,.69-.56,1.26-1.26,1.26s-1.26-.56-1.26-1.26.56-1.26,1.26-1.26,1.26.56,1.26,1.26Z"/>
  <path d="M80.96,74.88c0,.63-.51,1.13-1.13,1.13s-1.14-.51-1.14-1.13.51-1.14,1.14-1.14,1.13.51,1.13,1.14Z"/>
  <path d="M108.91,97.09c0,.49-.4.88-.88.88s-.88-.4-.88-.88.39-.88.88-.88.88.39.88.88Z"/>
  <path d="M120.58,144.53c0,.69-.56,1.25-1.25,1.25s-1.25-.56-1.25-1.25.56-1.25,1.25-1.25,1.25.56,1.25,1.25Z"/>
  <path d="M62.68,99.51c0,.69-.56,1.25-1.25,1.25s-1.25-.56-1.25-1.25.56-1.26,1.25-1.26,1.25.56,1.25,1.26Z"/>
  <path d="M112.03,151.01c0,.45-.37.82-.82.82s-.82-.37-.82-.82.37-.82.82-.82.82.37.82.82Z"/>
  <path d="M86.87,103.85c0,.34-.28.62-.62.62s-.62-.28-.62-.62.28-.62.62-.62.62.28.62.62Z"/>
  <path d="M92.17,59.48c0,.43-.35.78-.78.78s-.78-.35-.78-.78.35-.78.78-.78.78.35.78.78Z"/>
  <path d="M133.59,141.69c0,.75-.61,1.36-1.36,1.36s-1.36-.61-1.36-1.36.61-1.36,1.36-1.36,1.36.61,1.36,1.36Z"/>
  <path d="M140.34,68.96c0,.44-.35.79-.79.79s-.79-.36-.79-.79.35-.79.79-.79.79.36.79.79Z"/>
  <path d="M102.14,94.85c0,.36-.29.65-.66.65s-.65-.29-.65-.65.29-.65.65-.65.66.29.66.65Z"/>
  <path d="M94.28,103.78c0,.55-.45,1-1,1s-1-.45-1-1,.45-1,1-1,1,.45,1,1Z"/>
  <path d="M108.79,70.36c0,.76-.61,1.37-1.37,1.37s-1.37-.61-1.37-1.37.62-1.37,1.37-1.37,1.37.62,1.37,1.37Z"/>
  <path d="M95.81,112.24c0,.56-.45,1-1,1s-1-.45-1-1,.45-1,1-1,1,.45,1,1Z"/>
  <path d="M73.94,146.17c0,.36-.29.65-.65.65s-.65-.29-.65-.65.29-.65.65-.65.65.29.65.65Z"/>
  <path d="M142.61,111.8c0,.48-.39.86-.86.86s-.87-.39-.87-.86.39-.86.87-.86.86.38.86.86Z"/>
  <path d="M73.43,98.55c0,.45-.36.81-.81.81s-.8-.36-.8-.81.36-.81.8-.81.81.36.81.81Z"/>
  <path d="M76.9,110.47c0,.55-.45,1-1,1s-1-.45-1-1,.45-1,1-1,1,.45,1,1Z"/>
  <path d="M73.56,171.17c0,.59-.47,1.06-1.06,1.06s-1.06-.47-1.06-1.06.47-1.06,1.06-1.06,1.06.47,1.06,1.06Z"/>
  <path d="M82.93,150.74c0,.4-.33.73-.73.73s-.73-.33-.73-.73.33-.73.73-.73.73.33.73.73Z"/>
  <path d="M87.13,117.98c0,.9-.73,1.64-1.64,1.64s-1.63-.73-1.63-1.64.73-1.63,1.63-1.63,1.64.73,1.64,1.63Z"/>
  <path d="M106.72,112.34c0,.34-.27.61-.61.61s-.61-.27-.61-.61.27-.61.61-.61.61.27.61.61Z"/>
  <path d="M64.58,178.89c0,.21-.17.39-.39.39s-.39-.17-.39-.39.17-.39.39-.39.39.17.39.39Z"/>
  <path d="M63.75,167.84c0,.28-.23.51-.51.51s-.51-.23-.51-.51.23-.51.51-.51.51.23.51.51Z"/>
  <path d="M94.82,151.91c0,.47-.38.85-.85.85s-.85-.38-.85-.85.38-.86.85-.86.85.38.85.86Z"/>
  <path d="M144.45,95.01c0,.3-.25.55-.55.55s-.55-.25-.55-.55.25-.55.55-.55.55.25.55.55Z"/>
  <path d="M100.69,132.44c0,.52-.42.94-.94.94s-.94-.42-.94-.94.42-.94.94-.94.94.42.94.94Z"/>
  <path d="M113.73,186.13c0,.9-.73,1.63-1.63,1.63s-1.63-.73-1.63-1.63.73-1.63,1.63-1.63,1.63.73,1.63,1.63Z"/>
  <path d="M78.93,169.57c0,.48-.39.87-.87.87s-.87-.39-.87-.87.39-.87.87-.87.87.39.87.87Z"/>
  <path d="M128.67,128.65c0,.51-.42.93-.93.93s-.92-.41-.92-.93.41-.92.92-.92.93.41.93.92Z"/>
  <path d="M123.1,165.88c0,.43-.35.78-.78.78s-.78-.35-.78-.78.35-.78.78-.78.78.35.78.78Z"/>
  <path d="M87.49,144.62c0,.32-.26.58-.58.58s-.58-.26-.58-.58.26-.58.58-.58.58.26.58.58Z"/>
  <path d="M98.63,145.41c0,.85-.69,1.54-1.54,1.54s-1.54-.69-1.54-1.54.69-1.54,1.54-1.54,1.54.69,1.54,1.54Z"/>
  <path d="M83.74,141.98c0,.45-.36.81-.81.81s-.81-.36-.81-.81.36-.81.81-.81.81.36.81.81Z"/>
  <path d="M54.87,77.95c0,.9-.73,1.62-1.63,1.62s-1.63-.73-1.63-1.62.73-1.63,1.63-1.63,1.63.73,1.63,1.63Z"/>
  <path d="M71.88,160.53c0,.8-.65,1.46-1.46,1.46s-1.46-.65-1.46-1.46.65-1.46,1.46-1.46,1.46.65,1.46,1.46Z"/>
  <path d="M150.52,134.44c0,.42-.34.76-.76.76s-.76-.34-.76-.76.34-.76.76-.76.76.34.76.76Z"/>
  <path d="M114.99,147.09c0,.32-.26.58-.58.58s-.58-.26-.58-.58.26-.58.58-.58.58.26.58.58Z"/>
  <path d="M86.51,120.26c0,.29-.24.53-.53.53s-.53-.24-.53-.53.24-.53.53-.53.53.24.53.53Z"/>
  <path d="M73.8,94.03c0,.42-.34.76-.76.76s-.76-.34-.76-.76.34-.76.76-.76.76.34.76.76Z"/>
  <path d="M137.27,84.11c0,.52-.42.94-.93.94s-.93-.42-.93-.94.42-.93.93-.93.93.42.93.93Z"/>
  <path d="M111.96,171.27c0,.29-.24.53-.53.53s-.53-.24-.53-.53.24-.53.53-.53.53.24.53.53Z"/>
  <path d="M76.12,170.87c0,.55-.45,1-1,1s-1-.45-1-1,.45-1,1-1,1,.45,1,1Z"/>
  <path d="M105.5,112.95c0,.48-.39.87-.87.87s-.87-.39-.87-.87.39-.87.87-.87.87.39.87.87Z"/>
  <path d="M149.25,173.88c0,.36-.29.65-.65.65s-.65-.29-.65-.65.29-.65.65-.65.65.29.65.65Z"/>
  <path d="M139.6,116.43c0,.36-.29.65-.65.65s-.65-.29-.65-.65.29-.65.65-.65.65.29.65.65Z"/>
  <path d="M139.89,206.88c0,.45-.37.81-.81.81s-.81-.36-.81-.81.37-.81.81-.81.81.36.81.81Z"/>
  <path d="M169.24,184.65c0,.61-.5,1.11-1.11,1.11s-1.11-.5-1.11-1.11.5-1.11,1.11-1.11,1.11.5,1.11,1.11Z"/>
  <path d="M144.82,161.26c0,.68-.55,1.23-1.24,1.23s-1.23-.55-1.23-1.23.55-1.23,1.23-1.23,1.24.55,1.24,1.23Z"/>
  <circle cx="85.88" cy="209.44" r=".58"/>
  <path d="M115.92,187.25c0,.7-.56,1.26-1.26,1.26s-1.26-.56-1.26-1.26.56-1.25,1.26-1.25,1.26.56,1.26,1.25Z"/>
  <path d="M126.59,179.54c0,.49-.4.89-.9.89s-.9-.4-.9-.89.4-.9.9-.9.9.4.9.9Z"/>
  <path d="M112.08,166.14c0,.3-.25.55-.55.55s-.55-.25-.55-.55.25-.55.55-.55.55.24.55.55Z"/>
  <path d="M134.32,106.09c0,.5-.4.89-.89.89s-.9-.4-.9-.89.4-.9.9-.9.89.4.89.9Z"/>
  <path d="M130.15,192.08c0,.57-.46,1.03-1.02,1.03s-1.03-.46-1.03-1.03.46-1.03,1.03-1.03,1.02.46,1.02,1.03Z"/>
  <path d="M148.2,172.35c0,.53-.43.96-.96.96s-.96-.43-.96-.96.43-.96.96-.96.96.43.96.96Z"/>
  <path d="M143.95,133.43c0,.62-.51,1.13-1.13,1.13s-1.13-.5-1.13-1.13.5-1.13,1.13-1.13,1.13.51,1.13,1.13Z"/>
  <path d="M130.25,136.53c0,.53-.43.96-.96.96s-.96-.43-.96-.96.43-.97.96-.97.96.43.96.97Z"/>
  <path d="M94.78,188.98c0,.25-.2.45-.45.45s-.45-.2-.45-.45.2-.45.45-.45.45.2.45.45Z"/>
  <path d="M127.63,126.94c0,.52-.42.94-.94.94s-.94-.42-.94-.94.42-.94.94-.94.94.42.94.94Z"/>
  <path d="M123.75,155.46c0,.41-.33.74-.74.74s-.74-.33-.74-.74.33-.74.74-.74.74.33.74.74Z"/>
  <path d="M151.43,146.62c0,.53-.43.96-.96.96s-.96-.43-.96-.96.43-.96.96-.96.96.43.96.96Z"/>
  <path d="M136.71,163.53c0,.22-.18.4-.4.4s-.4-.18-.4-.4.18-.4.4-.4.4.18.4.4Z"/>
  <path d="M110.02,137.33c0,.34-.28.62-.62.62s-.62-.28-.62-.62.28-.62.62-.62.62.28.62.62Z"/>
  <path d="M91.85,126.76c0,.62-.5,1.11-1.11,1.11s-1.11-.5-1.11-1.11.5-1.11,1.11-1.11,1.11.5,1.11,1.11Z"/>
  <path d="M74.45,162.28c0,.6-.48,1.08-1.08,1.08s-1.08-.48-1.08-1.08.48-1.08,1.08-1.08,1.08.48,1.08,1.08Z"/>
  <path d="M151.02,97.03c0,.48-.39.86-.86.86s-.87-.39-.87-.86.39-.86.87-.86.86.39.86.86Z"/>
  <path d="M81.38,152.68c0,.48-.39.87-.87.87s-.87-.39-.87-.87.39-.87.87-.87.87.39.87.87Z"/>
  <path d="M108.11,193.23c0,.46-.37.83-.83.83s-.83-.37-.83-.83.37-.83.83-.83.83.37.83.83Z"/>
  <path d="M86.14,165.95c0,.3-.24.54-.54.54s-.54-.24-.54-.54.24-.54.54-.54.54.24.54.54Z"/>
  <path d="M98.35,201.33c0,.49-.4.89-.89.89s-.88-.4-.88-.89.4-.88.88-.88.89.4.89.88Z"/>
  <path d="M119.96,123.05c0,.62-.5,1.12-1.12,1.12s-1.12-.5-1.12-1.12.5-1.12,1.12-1.12,1.12.5,1.12,1.12Z"/>
  <path d="M83.95,167.91c0,.39-.32.71-.71.71s-.71-.32-.71-.71.32-.71.71-.71.71.32.71.71Z"/>
  <path d="M92.33,155.77c0,.84-.68,1.53-1.53,1.53s-1.53-.69-1.53-1.53.69-1.53,1.53-1.53,1.53.68,1.53,1.53Z"/>
  <path d="M86.68,190.2c0,.39-.31.7-.7.7s-.7-.31-.7-.7.31-.7.7-.7.7.31.7.7Z"/>
  <path d="M78.97,191.59c0,1-.81,1.81-1.81,1.81s-1.81-.81-1.81-1.81.81-1.81,1.81-1.81,1.81.81,1.81,1.81Z"/>
  <path d="M97.24,176.07c0,.27-.22.48-.48.48s-.48-.21-.48-.48.22-.48.48-.48.48.22.48.48Z"/>
  <path d="M92.81,117.05c0,.34-.28.62-.62.62s-.62-.28-.62-.62.28-.62.62-.62.62.28.62.62Z"/>
  <path d="M97.3,157.55c0,.39-.32.71-.71.71s-.71-.32-.71-.71.32-.71.71-.71.71.32.71.71Z"/>
  <path d="M138.45,194.77c0,.34-.28.62-.62.62s-.62-.28-.62-.62.28-.62.62-.62.62.28.62.62Z"/>
  <path d="M62.53,159.51c0,.54-.44.98-.97.98s-.97-.44-.97-.98.43-.97.97-.97.97.44.97.97Z"/>
  <path d="M42.75,115.4c0,.79-.64,1.44-1.44,1.44s-1.43-.64-1.43-1.44.64-1.44,1.43-1.44,1.44.64,1.44,1.44Z"/>
  <path d="M117.96,136.64c0,.63-.51,1.15-1.14,1.15s-1.15-.51-1.15-1.15.51-1.14,1.15-1.14,1.14.51,1.14,1.14Z"/>
  <path d="M125.35,162.82c0,.47-.37.84-.84.84s-.84-.38-.84-.84.38-.84.84-.84.84.38.84.84Z"/>
  <path d="M96.39,124.37c0,.4-.33.73-.73.73s-.74-.33-.74-.73.33-.74.74-.74.73.33.73.74Z"/>
  <path d="M86.45,166.07c0,.54-.44.98-.98.98s-.98-.44-.98-.98.44-.98.98-.98.98.44.98.98Z"/>
  <path d="M138.66,169.05c0,.35-.28.63-.62.63s-.62-.28-.62-.63.28-.62.62-.62.62.28.62.62Z"/>
  <path d="M120.37,105.03c0,.26-.21.47-.47.47s-.47-.21-.47-.47.21-.47.47-.47.47.21.47.47Z"/>
  <path d="M81.33,107.11c0,.47-.38.85-.85.85s-.85-.38-.85-.85.38-.85.85-.85.85.38.85.85Z"/>
  <path d="M136.6,179.57c0,.35-.28.63-.63.63s-.63-.28-.63-.63.28-.63.63-.63.63.28.63.63Z"/>
  <circle cx="87.54" cy="186.94" r=".96"/>
  <path d="M79.71,225.42c0,.26-.21.47-.47.47s-.47-.21-.47-.47.21-.47.47-.47.47.21.47.47Z"/>
  <path d="M159.89,92.4c0,.34-.27.61-.61.61s-.61-.27-.61-.61.27-.61.61-.61.61.27.61.61Z"/>
  <path d="M174.26,147c0,.81-.66,1.47-1.48,1.47s-1.47-.66-1.47-1.47.66-1.47,1.47-1.47,1.48.66,1.48,1.47Z"/>
  <path d="M123.48,148.96c0,.72-.58,1.31-1.31,1.31s-1.31-.59-1.31-1.31.59-1.31,1.31-1.31,1.31.58,1.31,1.31Z"/>
  <path d="M90.32,127.1c0,1-.81,1.82-1.82,1.82s-1.82-.81-1.82-1.82.81-1.82,1.82-1.82,1.82.81,1.82,1.82Z"/>
  <path d="M147.25,113.4c0,.19-.15.34-.34.34s-.34-.15-.34-.34.15-.34.34-.34.34.15.34.34Z"/>
  <path d="M91.72,137.4c0,.31-.25.56-.55.56s-.56-.25-.56-.56.25-.55.56-.55.55.25.55.55Z"/>
  <path d="M149.29,115.49c0,.42-.34.77-.77.77s-.77-.35-.77-.77.35-.77.77-.77.77.34.77.77Z"/>
  <path d="M122.35,134.76c0,.36-.29.66-.66.66s-.66-.3-.66-.66.3-.66.66-.66.66.29.66.66Z"/>
  <path d="M99.17,133.34c0,.39-.32.71-.7.71s-.71-.31-.71-.71.31-.7.71-.7.7.31.7.7Z"/>
  <path d="M144.42,105.11c0,.4-.32.72-.72.72s-.72-.32-.72-.72.32-.72.72-.72.72.32.72.72Z"/>
  <path d="M194.12,159.83c0,.71-.58,1.28-1.28,1.28s-1.28-.57-1.28-1.28.57-1.28,1.28-1.28,1.28.57,1.28,1.28Z"/>
  <path d="M176.29,132.28c0,.67-.54,1.21-1.21,1.21s-1.21-.54-1.21-1.21.54-1.21,1.21-1.21,1.21.54,1.21,1.21Z"/>
  <path d="M81.54,164.48c0,.65-.53,1.17-1.17,1.17s-1.17-.52-1.17-1.17.52-1.17,1.17-1.17,1.17.52,1.17,1.17Z"/>
  <path d="M146.05,129.24c0,.43-.35.77-.77.77s-.77-.34-.77-.77.34-.77.77-.77.77.34.77.77Z"/>
  <path d="M136.48,131.21c0,.44-.36.8-.8.8s-.8-.36-.8-.8.36-.8.8-.8.8.36.8.8Z"/>
  <path d="M110.42,127.19c0,.48-.39.87-.87.87s-.87-.39-.87-.87.39-.87.87-.87.87.39.87.87Z"/>
  <path d="M137.35,142.53c0,.44-.35.79-.79.79s-.79-.36-.79-.79.36-.79.79-.79.79.35.79.79Z"/>
  <path d="M133.73,119.73c0,.58-.47,1.06-1.06,1.06s-1.05-.47-1.05-1.06.47-1.06,1.05-1.06,1.06.47,1.06,1.06Z"/>
  <path d="M165.72,152.54c0,.72-.58,1.3-1.3,1.3s-1.3-.59-1.3-1.3.58-1.31,1.3-1.31,1.3.59,1.3,1.31Z"/>
  <path d="M176.18,147.58c0,.74-.6,1.33-1.33,1.33s-1.33-.6-1.33-1.33.6-1.33,1.33-1.33,1.33.6,1.33,1.33Z"/>
  <path d="M117.36,148.58c0,.36-.29.64-.64.64s-.64-.29-.64-.64.29-.64.64-.64.64.29.64.64Z"/>
  <path d="M130.54,154.51c0,.31-.25.57-.57.57s-.57-.25-.57-.57.25-.57.57-.57.57.25.57.57Z"/>
  <path d="M112.25,97.34c0,.35-.28.63-.63.63s-.63-.28-.63-.63.28-.63.63-.63.63.28.63.63Z"/>
  <path d="M116.01,140.81c0,.49-.39.88-.88.88s-.88-.39-.88-.88.39-.88.88-.88.88.39.88.88Z"/>
  <path d="M190.38,97.37c0,.48-.39.86-.86.86s-.86-.39-.86-.86.39-.86.86-.86.86.39.86.86Z"/>
  <path d="M141.03,185.81c0,.45-.36.81-.81.81s-.81-.36-.81-.81.36-.81.81-.81.81.36.81.81Z"/>
  <circle cx="178.47" cy="147.66" r=".58"/>
  <path d="M190.06,164.51c0,.43-.35.77-.77.77s-.77-.35-.77-.77.35-.77.77-.77.77.34.77.77Z"/>
  <path d="M192.36,117.73c0,.22-.18.4-.4.4s-.4-.18-.4-.4.18-.4.4-.4.4.18.4.4Z"/>
  <path d="M137.28,185.9c0,.6-.48,1.08-1.08,1.08s-1.08-.48-1.08-1.08.48-1.08,1.08-1.08,1.08.48,1.08,1.08Z"/>
  <path d="M191.61,106.02c0,.84-.68,1.53-1.52,1.53s-1.53-.68-1.53-1.53.68-1.52,1.53-1.52,1.52.68,1.52,1.52Z"/>
  <path d="M136.67,129.59c0,.37-.3.67-.66.67s-.67-.3-.67-.67.3-.67.67-.67.66.3.66.67Z"/>
  <path d="M149.19,111.93c0,.5-.41.91-.91.91s-.91-.41-.91-.91.4-.91.91-.91.91.41.91.91Z"/>
  <path d="M156.93,116.48c0,.67-.55,1.22-1.22,1.22s-1.22-.55-1.22-1.22.54-1.22,1.22-1.22,1.22.55,1.22,1.22Z"/>
  <path d="M139.52,111.95c0,.72-.58,1.31-1.31,1.31s-1.31-.59-1.31-1.31.58-1.31,1.31-1.31,1.31.58,1.31,1.31Z"/>
  <path d="M153.45,120.12c0,.47-.38.86-.86.86s-.85-.38-.85-.86.38-.85.85-.85.86.38.86.85Z"/>
  <path d="M187.91,137.51c0,.67-.54,1.21-1.21,1.21s-1.2-.54-1.2-1.21.54-1.2,1.2-1.2,1.21.54,1.21,1.2Z"/>
  <path d="M161.4,88.14c0,.54-.44.98-.98.98s-.98-.44-.98-.98.44-.98.98-.98.98.44.98.98Z"/>
  <path d="M209.4,103.53c0,.36-.29.66-.66.66s-.66-.29-.66-.66.29-.66.66-.66.66.29.66.66Z"/>
  <path d="M138.59,139.31c0,.33-.27.59-.59.59s-.59-.26-.59-.59.27-.59.59-.59.59.26.59.59Z"/>
  <path d="M196.19,160.2c0,.45-.37.81-.81.81s-.81-.36-.81-.81.36-.81.81-.81.81.36.81.81Z"/>
  <path d="M156.13,113.61c0,.64-.52,1.16-1.16,1.16s-1.16-.52-1.16-1.16.52-1.16,1.16-1.16,1.16.52,1.16,1.16Z"/>
  <path d="M117.51,116.09c0,.66-.54,1.2-1.2,1.2s-1.2-.53-1.2-1.2.54-1.2,1.2-1.2,1.2.54,1.2,1.2Z"/>
  <path d="M132.62,142.01c0,.56-.45,1-1.01,1s-1.01-.45-1.01-1,.45-1.01,1.01-1.01,1.01.45,1.01,1.01Z"/>
  <path d="M115.6,157.51c0,.69-.56,1.24-1.25,1.24s-1.25-.56-1.25-1.24.56-1.25,1.25-1.25,1.25.56,1.25,1.25Z"/>
  <path d="M152.72,173.87c0,.32-.26.58-.58.58s-.58-.26-.58-.58.26-.58.58-.58.58.26.58.58Z"/>
  <path d="M105.6,212.7c0,.46-.37.83-.83.83s-.83-.37-.83-.83.37-.83.83-.83.83.37.83.83Z"/>
  <path d="M151.16,143.99c0,.5-.41.91-.91.91s-.91-.41-.91-.91.41-.91.91-.91.91.41.91.91Z"/>
  <path d="M102.45,173.91c0,.41-.33.75-.74.75s-.75-.33-.75-.75.34-.74.75-.74.74.33.74.74Z"/>
  <path d="M127.77,132.28c0,.87-.7,1.57-1.57,1.57s-1.57-.7-1.57-1.57.7-1.57,1.57-1.57,1.57.7,1.57,1.57Z"/>
  <path d="M100.96,155.93c0,.37-.3.67-.67.67s-.67-.3-.67-.67.3-.67.67-.67.67.3.67.67Z"/>
  <path d="M143.25,123.18c0,.34-.28.61-.62.61s-.62-.28-.62-.61.28-.62.62-.62.62.27.62.62Z"/>
  <path d="M129.76,140.87c0,.49-.39.88-.88.88s-.88-.39-.88-.88.39-.88.88-.88.88.39.88.88Z"/>
  <path d="M125.97,175.86c0,.38-.31.69-.69.69s-.69-.31-.69-.69.31-.69.69-.69.69.31.69.69Z"/>
  <path d="M120.97,218.19c0,.62-.5,1.12-1.12,1.12s-1.12-.5-1.12-1.12.5-1.12,1.12-1.12,1.12.5,1.12,1.12Z"/>
  <path d="M102.05,184.58c0,.64-.52,1.15-1.15,1.15s-1.15-.51-1.15-1.15.51-1.15,1.15-1.15,1.15.52,1.15,1.15Z"/>
  <path d="M94.67,187.65c0,.77-.62,1.39-1.4,1.39s-1.39-.62-1.39-1.39.62-1.39,1.39-1.39,1.4.62,1.4,1.39Z"/>
  <path d="M124.13,207.6c0,.55-.44.99-1,.99s-.99-.44-.99-.99.44-.99.99-.99,1,.44,1,.99Z"/>
  <path d="M118.81,111.59c0,.41-.33.74-.73.74s-.74-.33-.74-.74.33-.73.74-.73.73.33.73.73Z"/>
  <path d="M117.56,187.87c0,.74-.6,1.34-1.34,1.34s-1.35-.6-1.35-1.34.6-1.34,1.35-1.34,1.34.6,1.34,1.34Z"/>
  <path d="M143.18,135.41c0,.44-.35.79-.79.79s-.79-.35-.79-.79.36-.79.79-.79.79.36.79.79Z"/>
  <path d="M133.21,154.15c0,.47-.38.85-.85.85s-.85-.38-.85-.85.38-.85.85-.85.85.38.85.85Z"/>
  <path d="M164.75,112.58c0,.64-.52,1.16-1.17,1.16s-1.16-.52-1.16-1.16.52-1.17,1.16-1.17,1.17.52,1.17,1.17Z"/>
  <path d="M154.89,171.3c0,.75-.61,1.37-1.37,1.37s-1.37-.61-1.37-1.37.61-1.37,1.37-1.37,1.37.61,1.37,1.37Z"/>
</svg>