<?xml version="1.0" encoding="UTF-8"?>
<svg id="Vrstva_1" data-name="Vrstva 1" xmlns="http://www.w3.org/2000/svg" viewBox="0 0 311.33 306.32">
  <path d="M127.47,84.5c0,.31-.25.56-.56.56s-.56-.25-.56-.56.25-.56.56-.56.56.25.56.56Z"/>
  <path d="M56.9,140.65c0,.75-.61,1.37-1.37,1.37s-1.37-.61-1.37-1.37.61-1.37,1.37-1.37,1.37.61,1.37,1.37Z"/>
  <path d="M117.87,143.74c0,.67-.54,1.21-1.21,1.21s-1.21-.54-1.21-1.21.54-1.21,1.21-1.21,1.21.54,1.21,1.21Z"/>
  <path d="M80.37,172.2c0,.94-.76,1.7-1.7,1.7s-1.7-.76-1.7-1.7.76-1.7,1.7-1.7,1.7.76,1.7,1.7Z"/>
  <path d="M70.11,240.67c0,.33-.27.6-.6.6s-.6-.27-.6-.6.27-.6.6-.6.6.27.6.6Z"/>
  <path d="M37.07,96.59c0,.36-.29.66-.65.66s-.65-.29-.65-.66.29-.65.65-.65.65.29.65.65Z"/>
  <path d="M128.12,195.8c0,.41-.33.74-.74.74s-.74-.33-.74-.74.33-.74.74-.74.74.33.74.74Z"/>
  <path d="M73.54,154c0,.32-.26.58-.57.58s-.58-.26-.58-.58.26-.57.58-.57.57.26.57.57Z"/>
  <path d="M124.95,178.19c0,.43-.34.77-.77.77s-.77-.34-.77-.77.34-.77.77-.77.77.35.77.77Z"/>
  <path d="M33.79,181.57c0,.47-.38.85-.85.85s-.85-.38-.85-.85.38-.85.85-.85.85.38.85.85Z"/>
  <path d="M138.35,156.07c0,.56-.45,1.01-1,1.01s-1-.45-1-1.01.45-1,1-1,1,.45,1,1Z"/>
  <path d="M151.23,105.2c0,.29-.23.52-.52.52s-.52-.23-.52-.52.23-.52.52-.52.52.23.52.52Z"/>
  <path d="M132.98,107.83c0,.73-.59,1.32-1.32,1.32s-1.32-.59-1.32-1.32.59-1.32,1.32-1.32,1.32.59,1.32,1.32Z"/>
  <path d="M131.61,160.14c0,.29-.24.54-.53.54s-.53-.24-.53-.54.24-.53.53-.53.53.24.53.53Z"/>
  <path d="M103,131.43c0,.33-.27.6-.6.6s-.6-.27-.6-.6.27-.6.6-.6.6.27.6.6Z"/>
  <path d="M21.84,153.17c0,.63-.51,1.14-1.14,1.14s-1.14-.51-1.14-1.14.51-1.14,1.14-1.14,1.14.51,1.14,1.14Z"/>
  <path d="M51.52,181.6c0,.18-.15.33-.33.33s-.33-.15-.33-.33.15-.33.33-.33.33.15.33.33Z"/>
  <path d="M59.24,209.54c0,.87-.71,1.59-1.59,1.59s-1.59-.71-1.59-1.59.71-1.59,1.59-1.59,1.59.71,1.59,1.59Z"/>
  <path d="M199.66,167.36c0,.38-.31.69-.69.69s-.69-.31-.69-.69.31-.69.69-.69.69.31.69.69Z"/>
  <path d="M163.73,160.25c0,.55-.45,1-1,1s-1-.44-1-1,.45-1,1-1,1,.45,1,1Z"/>
  <path d="M94.67,133.91c0,.5-.4.9-.9.9s-.9-.41-.9-.9.4-.9.9-.9.9.4.9.9Z"/>
  <path d="M111.61,127.52c0,.27-.22.49-.49.49s-.49-.22-.49-.49.22-.49.49-.49.49.22.49.49Z"/>
  <path d="M60.82,162.35c0,.36-.3.66-.66.66s-.66-.29-.66-.66.29-.66.66-.66.66.29.66.66Z"/>
  <path d="M29.04,210.25c0,.53-.43.97-.97.97s-.97-.44-.97-.97.43-.97.97-.97.97.43.97.97Z"/>
  <path d="M221.29,179.27c0,.4-.33.73-.73.73s-.73-.33-.73-.73.33-.73.73-.73.73.33.73.73Z"/>
  <circle cx="112.33" cy="196.83" r="1.52"/>
  <path d="M106.53,128.43c0,.5-.4.9-.9.9s-.9-.4-.9-.9.4-.9.9-.9.9.4.9.9Z"/>
  <path d="M67.51,160.97c0,.37-.3.68-.67.68s-.68-.3-.68-.68.3-.67.68-.67.67.3.67.67Z"/>
  <path d="M141.47,190.91c0,.54-.44.98-.97.98s-.98-.44-.98-.98.44-.97.98-.97.97.44.97.97Z"/>
  <path d="M11.04,174.65c0,.52-.42.94-.94.94s-.94-.42-.94-.94.42-.94.94-.94.94.42.94.94Z"/>
  <path d="M180.76,64.58c0,.57-.46,1.03-1.03,1.03s-1.03-.46-1.03-1.03.46-1.03,1.03-1.03,1.03.46,1.03,1.03Z"/>
  <path d="M143.08,251.77c0,.81-.65,1.46-1.46,1.46s-1.46-.65-1.46-1.46.65-1.46,1.46-1.46,1.46.66,1.46,1.46Z"/>
  <path d="M197.31,166.95c0,.85-.69,1.54-1.53,1.54s-1.53-.69-1.53-1.54.69-1.53,1.53-1.53,1.53.69,1.53,1.53Z"/>
  <path d="M142.45,158.1c0,.41-.33.73-.73.73s-.73-.33-.73-.73.33-.73.73-.73.73.33.73.73Z"/>
  <path d="M69.49,199.8c0,.35-.28.63-.63.63s-.63-.28-.63-.63.28-.63.63-.63.63.28.63.63Z"/>
  <path d="M136.61,159.19c0,.36-.29.65-.65.65s-.65-.29-.65-.65.29-.65.65-.65.65.29.65.65Z"/>
  <path d="M161.52,88.23c0,1.03-.84,1.87-1.87,1.87s-1.87-.84-1.87-1.87.84-1.87,1.87-1.87,1.87.83,1.87,1.87Z"/>
  <path d="M49.51,160.73c0,.57-.46,1.02-1.02,1.02s-1.02-.46-1.02-1.02.46-1.02,1.02-1.02,1.02.45,1.02,1.02Z"/>
  <path d="M53.31,183.92c0,.52-.42.94-.94.94s-.94-.42-.94-.94.42-.94.94-.94.94.42.94.94Z"/>
  <path d="M123.07,184.59c0,.39-.32.71-.71.71s-.71-.32-.71-.71.32-.71.71-.71.71.32.71.71Z"/>
  <path d="M25.95,231.34c0,.54-.43.97-.97.97s-.97-.43-.97-.97.43-.97.97-.97.97.44.97.97Z"/>
  <path d="M51.5,238.74c0,.49-.4.89-.89.89s-.89-.4-.89-.89.4-.89.89-.89.89.4.89.89Z"/>
  <path d="M115.48,257.34c0,.41-.34.75-.75.75s-.75-.34-.75-.75.33-.75.75-.75.75.34.75.75Z"/>
  <path d="M73.82,162.18c0,.48-.39.87-.87.87s-.87-.39-.87-.87.39-.87.87-.87.87.39.87.87Z"/>
  <path d="M100.24,147.81c0,.45-.37.81-.82.81s-.82-.37-.82-.81.36-.82.82-.82.82.37.82.82Z"/>
  <path d="M96.91,67.38c0,.51-.41.92-.92.92s-.92-.41-.92-.92.41-.92.92-.92.92.41.92.92Z"/>
  <path d="M124.34,147.35c0,.25-.2.44-.44.44s-.45-.2-.45-.44.2-.44.45-.44.44.2.44.44Z"/>
  <path d="M133.59,165.95c0,.56-.45,1.01-1.01,1.01s-1.01-.45-1.01-1.01.45-1.01,1.01-1.01,1.01.45,1.01,1.01Z"/>
  <path d="M97.73,199.32c0,.82-.67,1.49-1.49,1.49s-1.49-.67-1.49-1.49.67-1.49,1.49-1.49,1.49.67,1.49,1.49Z"/>
  <path d="M146.22,108.65c0,.75-.61,1.37-1.37,1.37s-1.37-.61-1.37-1.37.61-1.37,1.37-1.37,1.37.61,1.37,1.37Z"/>
  <path d="M74.71,110.58c0,.41-.33.74-.74.74s-.74-.33-.74-.74.33-.74.74-.74.74.33.74.74Z"/>
  <path d="M98.4,149.33c0,.66-.53,1.19-1.19,1.19s-1.19-.53-1.19-1.19.53-1.19,1.19-1.19,1.19.53,1.19,1.19Z"/>
  <path d="M116.18,244.66c0,.35-.28.63-.63.63s-.63-.29-.63-.63.28-.63.63-.63.63.29.63.63Z"/>
  <path d="M147.64,94.88c0,.4-.33.73-.73.73s-.73-.33-.73-.73.33-.73.73-.73.73.33.73.73Z"/>
  <path d="M144.47,115.33c0,.57-.46,1.03-1.03,1.03s-1.04-.46-1.04-1.03.46-1.03,1.04-1.03,1.03.46,1.03,1.03Z"/>
  <path d="M64.99,91.07c0,.61-.5,1.11-1.11,1.11s-1.11-.5-1.11-1.11.5-1.11,1.11-1.11,1.11.5,1.11,1.11Z"/>
  <circle cx="82.53" cy="192.74" r="1.37"/>
  <path d="M135.61,169.58c0,.4-.32.72-.72.72s-.72-.32-.72-.72.32-.71.72-.71.72.32.72.71Z"/>
  <path d="M167.15,248.15c0,.41-.33.74-.75.74s-.74-.33-.74-.74.33-.74.74-.74.75.33.75.74Z"/>
  <path d="M69.43,137.17c0,.46-.37.83-.83.83s-.83-.37-.83-.83.37-.83.83-.83.83.37.83.83Z"/>
  <path d="M128.31,181.77c0,.39-.32.71-.71.71s-.71-.32-.71-.71.32-.71.71-.71.71.32.71.71Z"/>
  <path d="M125.2,241.51c0,.73-.59,1.32-1.32,1.32s-1.32-.59-1.32-1.32.59-1.32,1.32-1.32,1.32.59,1.32,1.32Z"/>
  <path d="M98.2,184.8c0,.36-.29.66-.66.66s-.66-.3-.66-.66.29-.66.66-.66.66.29.66.66Z"/>
  <path d="M11.44,269.66c0,.43-.35.78-.79.78s-.78-.35-.78-.78.35-.79.78-.79.79.35.79.79Z"/>
  <path d="M136.18,88.42c0,.35-.28.63-.63.63s-.63-.28-.63-.63.28-.62.63-.62.63.28.63.62Z"/>
  <path d="M161.63,250.69c0,.64-.51,1.15-1.15,1.15s-1.15-.51-1.15-1.15.52-1.15,1.15-1.15,1.15.52,1.15,1.15Z"/>
  <path d="M135.38,156.4c0,1.04-.84,1.89-1.89,1.89s-1.89-.84-1.89-1.89.84-1.89,1.89-1.89,1.89.84,1.89,1.89Z"/>
  <path d="M148.68,200.64c0,.64-.51,1.15-1.14,1.15s-1.15-.51-1.15-1.15.51-1.14,1.15-1.14,1.14.51,1.14,1.14Z"/>
  <path d="M115.17,140.46c0,.53-.42.95-.95.95s-.95-.43-.95-.95.43-.95.95-.95.95.43.95.95Z"/>
  <path d="M74.32,161.87c0,.59-.48,1.07-1.07,1.07s-1.07-.48-1.07-1.07.48-1.07,1.07-1.07,1.07.48,1.07,1.07Z"/>
  <path d="M95.97,186.3c0,.67-.54,1.21-1.2,1.21s-1.21-.54-1.21-1.21.54-1.2,1.21-1.2,1.2.54,1.2,1.2Z"/>
  <path d="M124.79,153.28c0,.34-.28.62-.62.62s-.62-.28-.62-.62.28-.62.62-.62.62.28.62.62Z"/>
  <path d="M95.91,241.97c0,.3-.24.55-.55.55s-.55-.24-.55-.55.25-.55.55-.55.55.25.55.55Z"/>
  <path d="M99.38,114.93c0,.53-.43.96-.96.96s-.96-.43-.96-.96.43-.96.96-.96.96.43.96.96Z"/>
  <path d="M46.32,43.22c0,.45-.37.82-.82.82s-.82-.37-.82-.82.37-.82.82-.82.82.37.82.82Z"/>
  <path d="M8.8,100.37c0,.95-.77,1.72-1.72,1.72s-1.72-.77-1.72-1.72.77-1.72,1.72-1.72,1.72.77,1.72,1.72Z"/>
  <path d="M38.09,183.76c0,.54-.44.97-.97.97s-.98-.44-.98-.97.44-.98.98-.98.97.44.97.98Z"/>
  <path d="M76.72,204.1c0,.36-.29.66-.66.66s-.65-.29-.65-.66.29-.66.65-.66.66.29.66.66Z"/>
  <path d="M135.36,187.11c0,.24-.2.44-.44.44s-.44-.2-.44-.44.2-.44.44-.44.44.2.44.44Z"/>
  <path d="M104.01,142.83c0,.24-.19.43-.43.43s-.43-.19-.43-.43.19-.43.43-.43.43.19.43.43Z"/>
  <path d="M52.54,132.78c0,.37-.3.67-.67.67s-.67-.3-.67-.67.3-.67.67-.67.67.3.67.67Z"/>
  <path d="M104.5,213.15c0,.2-.16.37-.37.37s-.37-.16-.37-.37.16-.37.37-.37.37.16.37.37Z"/>
  <path d="M107.22,166.14c0,.53-.43.96-.96.96s-.96-.43-.96-.96.43-.96.96-.96.96.43.96.96Z"/>
  <path d="M166.88,56.61c0,.47-.38.84-.84.84s-.84-.38-.84-.84.38-.84.84-.84.84.38.84.84Z"/>
  <path d="M113.3,185.04c0,.36-.29.65-.65.65s-.65-.29-.65-.65.29-.65.65-.65.65.29.65.65Z"/>
  <path d="M102.19,162.74c0,.5-.4.9-.91.9s-.9-.4-.9-.9.4-.9.9-.9.91.4.91.9Z"/>
  <path d="M40.86,164.61c0,.41-.33.74-.74.74s-.74-.33-.74-.74.33-.74.74-.74.74.33.74.74Z"/>
  <path d="M67.68,100.3c0,.57-.46,1.03-1.03,1.03s-1.04-.46-1.04-1.03.46-1.03,1.04-1.03,1.03.46,1.03,1.03Z"/>
  <path d="M2.67,115.38c0,.74-.6,1.33-1.34,1.33s-1.33-.6-1.33-1.33.6-1.33,1.33-1.33,1.34.6,1.34,1.33Z"/>
  <path d="M62.52,158.41c0,.56-.46,1.02-1.02,1.02s-1.02-.46-1.02-1.02.46-1.02,1.02-1.02,1.02.46,1.02,1.02Z"/>
  <path d="M134.83,55.62c0,.83-.67,1.5-1.5,1.5s-1.5-.67-1.5-1.5.67-1.5,1.5-1.5,1.5.67,1.5,1.5Z"/>
  <circle cx="125.03" cy="83.39" r=".61"/>
  <path d="M140.22,76.16c0,.31-.25.57-.57.57s-.57-.25-.57-.57.25-.57.57-.57.57.26.57.57Z"/>
  <path d="M32.61,156.81c0,.46-.37.83-.83.83s-.83-.37-.83-.83.37-.83.83-.83.83.37.83.83Z"/>
  <path d="M100.6,60.24c0,.49-.4.89-.89.89s-.89-.4-.89-.89.4-.89.89-.89.89.4.89.89Z"/>
  <path d="M72.34,106.31c0,.44-.36.8-.8.8s-.8-.36-.8-.8.36-.8.8-.8.8.36.8.8Z"/>
  <path d="M161.95,154.85c0,.44-.36.8-.8.8s-.8-.36-.8-.8.36-.8.8-.8.8.36.8.8Z"/>
  <path d="M199.55,152.95c0,.67-.54,1.21-1.21,1.21s-1.21-.54-1.21-1.21.54-1.21,1.21-1.21,1.21.54,1.21,1.21Z"/>
  <path d="M65,174.71c0,.41-.33.74-.74.74s-.74-.33-.74-.74.33-.74.74-.74.74.33.74.74Z"/>
  <path d="M171.68,146.73c0,.4-.32.72-.72.72s-.72-.32-.72-.72.32-.72.72-.72.72.32.72.72Z"/>
  <path d="M207.59,202.67c0,.27-.22.5-.5.5s-.5-.22-.5-.5.22-.5.5-.5.5.22.5.5Z"/>
  <path d="M222.51,75.41c0,.87-.71,1.58-1.58,1.58s-1.58-.71-1.58-1.58.71-1.58,1.58-1.58,1.58.71,1.58,1.58Z"/>
  <path d="M124.55,169.22c0,.71-.58,1.29-1.29,1.29s-1.29-.58-1.29-1.29.58-1.29,1.29-1.29,1.29.58,1.29,1.29Z"/>
  <path d="M181.71,91.84c0,.72-.58,1.3-1.3,1.3s-1.3-.58-1.3-1.3.58-1.3,1.3-1.3,1.3.58,1.3,1.3Z"/>
  <path d="M105.07,108.45c0,.78-.63,1.41-1.41,1.41s-1.41-.63-1.41-1.41.63-1.41,1.41-1.41,1.41.63,1.41,1.41Z"/>
  <path d="M167.36,232.38c0,.42-.34.76-.76.76s-.76-.34-.76-.76.34-.76.76-.76.76.34.76.76Z"/>
  <path d="M104.68,78.45c0,.25-.2.45-.45.45s-.45-.2-.45-.45.2-.45.45-.45.45.2.45.45Z"/>
  <path d="M126.34,125.57c0,.66-.53,1.19-1.19,1.19s-1.19-.53-1.19-1.19.53-1.19,1.19-1.19,1.19.53,1.19,1.19Z"/>
  <path d="M167.59,152.04c0,.77-.62,1.39-1.39,1.39s-1.39-.62-1.39-1.39.62-1.39,1.39-1.39,1.39.62,1.39,1.39Z"/>
  <path d="M87.35,105.45c0,.87-.7,1.57-1.57,1.57s-1.57-.7-1.57-1.57.71-1.57,1.57-1.57,1.57.71,1.57,1.57Z"/>
  <path d="M16.81,95.08c0,.61-.49,1.1-1.1,1.1s-1.1-.49-1.1-1.1.49-1.1,1.1-1.1,1.1.49,1.1,1.1Z"/>
  <path d="M133.02,87.5c0,.47-.38.85-.85.85s-.86-.38-.86-.85.38-.86.86-.86.85.38.85.86Z"/>
  <path d="M162.33,127.05c0,.48-.39.87-.87.87s-.88-.39-.88-.87.39-.87.88-.87.87.39.87.87Z"/>
  <path d="M76.29,181.94c0,.46-.37.84-.84.84s-.84-.37-.84-.84.37-.83.84-.83.84.37.84.83Z"/>
  <path d="M192.6,112.18c0,.54-.44.99-.99.99s-.99-.44-.99-.99.44-.99.99-.99.99.44.99.99Z"/>
  <path d="M124.09,193.58c0,.28-.23.5-.51.5s-.5-.23-.5-.5.23-.51.5-.51.51.23.51.51Z"/>
  <path d="M123.42,125.64c0,.53-.43.97-.96.97s-.97-.43-.97-.97.43-.97.97-.97.96.43.96.97Z"/>
  <path d="M180.99,205.72c0,.28-.22.5-.5.5s-.49-.22-.49-.5.22-.49.49-.49.5.22.5.49Z"/>
  <path d="M87.85,140.87c0,.49-.4.89-.89.89s-.89-.4-.89-.89.4-.89.89-.89.89.4.89.89Z"/>
  <path d="M118.06,93.48c0,.37-.3.66-.66.66s-.66-.3-.66-.66.3-.66.66-.66.66.3.66.66Z"/>
  <path d="M160.79,170.43c0,.58-.47,1.05-1.05,1.05s-1.05-.47-1.05-1.05.47-1.05,1.05-1.05,1.05.47,1.05,1.05Z"/>
  <path d="M69.56,118.45c0,.38-.31.69-.69.69s-.69-.31-.69-.69.31-.69.69-.69.69.31.69.69Z"/>
  <path d="M87.86,88.46c0,.57-.46,1.04-1.04,1.04s-1.04-.47-1.04-1.04.46-1.04,1.04-1.04,1.04.46,1.04,1.04Z"/>
  <path d="M170.67,137.59c0,.56-.45,1.01-1.01,1.01s-1.01-.45-1.01-1.01.45-1.01,1.01-1.01,1.01.45,1.01,1.01Z"/>
  <path d="M151.09,122.49c0,.35-.29.64-.64.64s-.64-.29-.64-.64.29-.64.64-.64.64.29.64.64Z"/>
  <path d="M88.91,114.44c0,.5-.41.91-.91.91s-.91-.41-.91-.91.41-.91.91-.91.91.41.91.91Z"/>
  <path d="M151.94,77.1c0,.65-.53,1.17-1.17,1.17s-1.17-.52-1.17-1.17.52-1.17,1.17-1.17,1.17.52,1.17,1.17Z"/>
  <path d="M10.59,120.68c0,.85-.69,1.53-1.53,1.53s-1.53-.69-1.53-1.53.68-1.53,1.53-1.53,1.53.68,1.53,1.53Z"/>
  <path d="M93.47,184.78c0,.26-.21.47-.47.47s-.47-.21-.47-.47.21-.47.47-.47.47.21.47.47Z"/>
  <path d="M91.71,152.74c0,.55-.45,1-1,1s-1-.45-1-1,.45-1,1-1,1,.45,1,1Z"/>
  <path d="M165.75,223.8c0,.53-.43.96-.96.96s-.96-.43-.96-.96.43-.97.96-.97.96.43.96.97Z"/>
  <path d="M84.4,209.13c0,.31-.25.56-.56.56s-.56-.25-.56-.56.25-.56.56-.56.56.25.56.56Z"/>
  <path d="M107.68,137.58c0,.56-.45,1.01-1.01,1.01s-1.01-.45-1.01-1.01.45-1.01,1.01-1.01,1.01.45,1.01,1.01Z"/>
  <path d="M78.33,88.87c0,.46-.37.82-.82.82s-.82-.37-.82-.82.37-.82.82-.82.82.37.82.82Z"/>
  <path d="M132.95,76.38c0,.24-.2.44-.44.44s-.44-.2-.44-.44.2-.44.44-.44.44.2.44.44Z"/>
  <path d="M69.5,155.38c0,.59-.48,1.07-1.07,1.07s-1.07-.48-1.07-1.07.48-1.07,1.07-1.07,1.07.48,1.07,1.07Z"/>
  <path d="M120.69,170.89c0,.44-.36.81-.8.81s-.8-.36-.8-.81.36-.8.8-.8.8.36.8.8Z"/>
  <path d="M113.4,139.25c0,.83-.67,1.5-1.5,1.5s-1.5-.67-1.5-1.5.67-1.51,1.5-1.51,1.5.68,1.5,1.51Z"/>
  <path d="M80.79,187.08c0,.45-.37.82-.82.82s-.82-.37-.82-.82.37-.82.82-.82.82.37.82.82Z"/>
  <path d="M67.63,113.03c0,.5-.41.91-.91.91s-.91-.41-.91-.91.41-.91.91-.91.91.41.91.91Z"/>
  <path d="M56.8,100.39c0,.36-.29.65-.65.65s-.65-.29-.65-.65.29-.65.65-.65.65.29.65.65Z"/>
  <path d="M118.91,102.43c0,.46-.38.84-.84.84s-.84-.38-.84-.84.38-.84.84-.84.84.38.84.84Z"/>
  <path d="M92.01,230.52c0,.39-.32.71-.71.71s-.71-.32-.71-.71.32-.71.71-.71.71.32.71.71Z"/>
  <path d="M92.53,139.31c0,.76-.61,1.37-1.37,1.37s-1.37-.62-1.37-1.37.61-1.37,1.37-1.37,1.37.61,1.37,1.37Z"/>
  <path d="M81.42,72.48c0,.8-.65,1.46-1.46,1.46s-1.46-.65-1.46-1.46.65-1.46,1.46-1.46,1.46.65,1.46,1.46Z"/>
  <path d="M115.26,162.75c0,.75-.6,1.35-1.35,1.35s-1.35-.6-1.35-1.35.61-1.35,1.35-1.35,1.35.6,1.35,1.35Z"/>
  <path d="M23.42,138.33c0,.76-.62,1.38-1.38,1.38s-1.38-.62-1.38-1.38.62-1.38,1.38-1.38,1.38.62,1.38,1.38Z"/>
  <path d="M99.44,154.45c0,.48-.38.86-.86.86s-.86-.38-.86-.86.38-.86.86-.86.86.39.86.86Z"/>
  <path d="M194.02,142.72c0,.69-.56,1.25-1.25,1.25s-1.25-.56-1.25-1.25.56-1.25,1.25-1.25,1.25.56,1.25,1.25Z"/>
  <path d="M120.47,119.05c0,.46-.37.84-.84.84s-.84-.37-.84-.84.37-.84.84-.84.84.37.84.84Z"/>
  <path d="M113.71,99.88c0,.54-.44.98-.98.98s-.98-.44-.98-.98.44-.98.98-.98.98.44.98.98Z"/>
  <path d="M41.63,145.26c0,.3-.24.54-.54.54s-.54-.24-.54-.54.24-.54.54-.54.54.24.54.54Z"/>
  <path d="M123.65,155.56c0,.46-.37.82-.82.82s-.82-.37-.82-.82.37-.82.82-.82.82.37.82.82Z"/>
  <path d="M171.03,145.56c0,.36-.29.65-.65.65s-.65-.29-.65-.65.29-.65.65-.65.65.29.65.65Z"/>
  <path d="M113.52,11.71c0,.55-.45.99-.99.99s-.99-.44-.99-.99.44-.99.99-.99.99.44.99.99Z"/>
  <path d="M161.86,151.38c0,.96-.78,1.74-1.74,1.74s-1.74-.78-1.74-1.74.78-1.74,1.74-1.74,1.74.78,1.74,1.74Z"/>
  <circle cx="85.41" cy="55.59" r=".98"/>
  <path d="M168.05,166.02c0,.34-.28.62-.63.62s-.62-.28-.62-.62.28-.63.62-.63.63.28.63.63Z"/>
  <path d="M151.6,224.44c0,.41-.33.74-.74.74s-.74-.33-.74-.74.33-.74.74-.74.74.33.74.74Z"/>
  <path d="M149.57,81.28c0,.38-.31.69-.69.69s-.69-.31-.69-.69.31-.69.69-.69.69.31.69.69Z"/>
  <path d="M137.13,180.88c0,.48-.39.87-.87.87s-.87-.39-.87-.87.39-.87.87-.87.87.39.87.87Z"/>
  <path d="M186.65,52.34c0,.33-.27.6-.6.6s-.6-.27-.6-.6.27-.6.6-.6.6.27.6.6Z"/>
  <path d="M202.47,52.39c0,.2-.16.35-.36.35s-.35-.16-.35-.35.16-.35.35-.35.36.16.36.35Z"/>
  <path d="M76.04,152.92c0,.44-.35.79-.79.79s-.79-.35-.79-.79.35-.79.79-.79.79.35.79.79Z"/>
  <path d="M176.63,102.8c0,.25-.2.46-.46.46s-.46-.21-.46-.46.21-.46.46-.46.46.21.46.46Z"/>
  <path d="M103.36,192.72c0,.56-.45,1.01-1.01,1.01s-1.01-.45-1.01-1.01.45-1.01,1.01-1.01,1.01.45,1.01,1.01Z"/>
  <path d="M141.26,82.76c0,.74-.6,1.34-1.34,1.34s-1.34-.6-1.34-1.34.6-1.34,1.34-1.34,1.34.6,1.34,1.34Z"/>
  <path d="M127.62,131c0,.35-.28.63-.63.63s-.63-.28-.63-.63.28-.63.63-.63.63.28.63.63Z"/>
  <path d="M122.05,102.74c0,.47-.39.86-.86.86s-.86-.39-.86-.86.38-.86.86-.86.86.38.86.86Z"/>
  <path d="M219.66,153.2c0,.29-.24.52-.52.52s-.52-.24-.52-.52.23-.53.52-.53.52.23.52.53Z"/>
  <path d="M197.29,82.32c0,1.1-.89,1.99-1.99,1.99s-1.99-.89-1.99-1.99.89-1.99,1.99-1.99,1.99.89,1.99,1.99Z"/>
  <path d="M137.62,80.85c0,.86-.7,1.56-1.56,1.56s-1.56-.7-1.56-1.56.7-1.56,1.56-1.56,1.56.7,1.56,1.56Z"/>
  <path d="M83.31,129.26c0,.57-.46,1.04-1.04,1.04s-1.04-.46-1.04-1.04.46-1.04,1.04-1.04,1.04.47,1.04,1.04Z"/>
  <path d="M92.34,122.34c0,.47-.38.86-.86.86s-.86-.38-.86-.86.38-.86.86-.86.86.38.86.86Z"/>
  <path d="M127.97,132.08c0,.27-.22.49-.49.49s-.49-.22-.49-.49.22-.49.49-.49.49.22.49.49Z"/>
  <path d="M95.95,74.6c0,.3-.24.54-.54.54s-.54-.24-.54-.54.24-.54.54-.54.54.24.54.54Z"/>
  <path d="M129.18,143.79c0,.57-.46,1.03-1.03,1.03s-1.03-.46-1.03-1.03.46-1.03,1.03-1.03,1.03.46,1.03,1.03Z"/>
  <path d="M135.4,113.45c0,.53-.43.97-.97.97s-.97-.43-.97-.97.43-.97.97-.97.97.43.97.97Z"/>
  <path d="M163.5,120.82c0,.56-.45,1.01-1.01,1.01s-1.01-.45-1.01-1.01.45-1.01,1.01-1.01,1.01.45,1.01,1.01Z"/>
  <path d="M151.38,220.91c0,.48-.39.87-.87.87s-.87-.39-.87-.87.39-.87.87-.87.87.39.87.87Z"/>
  <path d="M255.84,224.31c0,.62-.5,1.11-1.12,1.11s-1.11-.5-1.11-1.11.5-1.11,1.11-1.11,1.12.5,1.12,1.11Z"/>
  <path d="M113.43,106.99c0,.36-.29.66-.66.66s-.66-.29-.66-.66.29-.65.66-.65.66.29.66.65Z"/>
  <path d="M132.58,166.51c0,.23-.19.42-.42.42s-.42-.19-.42-.42.19-.42.42-.42.42.19.42.42Z"/>
  <path d="M203.91,112.15c0,.36-.29.65-.65.65s-.65-.29-.65-.65.29-.65.65-.65.65.29.65.65Z"/>
  <path d="M258.2,128.41c0,.5-.41.9-.91.9s-.9-.41-.9-.9.41-.9.9-.9.91.4.91.9Z"/>
  <path d="M188.37,191.4c0,.58-.47,1.06-1.06,1.06s-1.06-.47-1.06-1.06.47-1.06,1.06-1.06,1.06.47,1.06,1.06Z"/>
  <path d="M213.07,163.39c0,.64-.52,1.17-1.17,1.17s-1.17-.53-1.17-1.17.52-1.17,1.17-1.17,1.17.52,1.17,1.17Z"/>
  <path d="M192.68,129.03c0,.36-.29.65-.65.65s-.65-.29-.65-.65.29-.65.65-.65.65.29.65.65Z"/>
  <path d="M138.24,178.7c0,.27-.22.49-.49.49s-.49-.22-.49-.49.22-.49.49-.49.49.22.49.49Z"/>
  <path d="M104.79,79.21c0,.62-.51,1.13-1.13,1.13s-1.13-.51-1.13-1.13.51-1.13,1.13-1.13,1.13.51,1.13,1.13Z"/>
  <path d="M200.84,35.87c0,.54-.44.97-.97.97s-.97-.43-.97-.97.43-.97.97-.97.97.43.97.97Z"/>
  <path d="M172.24,163.52c0,.61-.5,1.11-1.11,1.11s-1.11-.5-1.11-1.11.49-1.11,1.11-1.11,1.11.5,1.11,1.11Z"/>
  <path d="M147.16,172.74c0,.64-.52,1.16-1.16,1.16s-1.16-.52-1.16-1.16.52-1.16,1.16-1.16,1.16.52,1.16,1.16Z"/>
  <path d="M152.5,77.3c0,.31-.25.56-.56.56s-.56-.25-.56-.56.25-.56.56-.56.56.25.56.56Z"/>
  <path d="M173.04,238.3c0,.26-.21.47-.47.47s-.47-.21-.47-.47.21-.47.47-.47.47.21.47.47Z"/>
  <path d="M183.77,125.89c0,.53-.43.96-.96.96s-.96-.43-.96-.96.43-.96.96-.96.96.43.96.96Z"/>
  <path d="M86.54,94.23c0,.66-.53,1.19-1.19,1.19s-1.19-.53-1.19-1.19.53-1.19,1.19-1.19,1.19.53,1.19,1.19Z"/>
  <path d="M252.86,159.88c0,.55-.44.99-.99.99s-.99-.44-.99-.99.44-.99.99-.99.99.44.99.99Z"/>
  <path d="M240.88,127.55c0,.32-.26.57-.57.57s-.57-.25-.57-.57.25-.57.57-.57.57.25.57.57Z"/>
  <path d="M124.5,90.24c0,.48-.39.87-.87.87s-.87-.39-.87-.87.39-.87.87-.87.87.39.87.87Z"/>
  <path d="M123.01,127.08c0,.41-.33.74-.74.74s-.74-.33-.74-.74.33-.74.74-.74.74.33.74.74Z"/>
  <path d="M114.9,70.35c0,.66-.54,1.2-1.2,1.2s-1.2-.54-1.2-1.2.54-1.2,1.2-1.2,1.2.54,1.2,1.2Z"/>
  <path d="M170.62,154.45c0,.42-.34.75-.76.75s-.75-.34-.75-.75.34-.76.75-.76.76.34.76.76Z"/>
  <path d="M103.31,60.67c0,.38-.31.68-.69.68s-.68-.31-.68-.68.31-.69.68-.69.69.31.69.69Z"/>
  <path d="M206.26,93.99c0,.74-.6,1.34-1.35,1.34s-1.34-.6-1.34-1.34.6-1.34,1.34-1.34,1.35.6,1.35,1.34Z"/>
  <path d="M134.7,122.34c0,.39-.32.71-.71.71s-.71-.32-.71-.71.32-.71.71-.71.71.32.71.71Z"/>
  <path d="M211.59,199.9c0,.59-.48,1.07-1.07,1.07s-1.07-.48-1.07-1.07.48-1.07,1.07-1.07,1.07.48,1.07,1.07Z"/>
  <path d="M151.95,155.53c0,.68-.55,1.23-1.23,1.23s-1.23-.55-1.23-1.23.55-1.22,1.23-1.22,1.23.55,1.23,1.22Z"/>
  <path d="M105.14,221.34c0,.6-.48,1.09-1.09,1.09s-1.08-.49-1.08-1.09.49-1.08,1.08-1.08,1.09.48,1.09,1.08Z"/>
  <path d="M138.33,152.67c0,.41-.34.75-.75.75s-.75-.34-.75-.75.33-.75.75-.75.75.33.75.75Z"/>
  <path d="M97.78,173.72c0,.91-.74,1.64-1.64,1.64s-1.64-.74-1.64-1.64.74-1.64,1.64-1.64,1.64.74,1.64,1.64Z"/>
  <path d="M110.95,190.23c0,.45-.36.81-.81.81s-.81-.36-.81-.81.36-.81.81-.81.81.36.81.81Z"/>
  <path d="M117.23,177.72c0,.56-.45,1.01-1.01,1.01s-1.01-.45-1.01-1.01.45-1.01,1.01-1.01,1.01.45,1.01,1.01Z"/>
  <path d="M135.8,171.58c0,.93-.75,1.68-1.68,1.68s-1.68-.75-1.68-1.68.75-1.68,1.68-1.68,1.68.75,1.68,1.68Z"/>
  <path d="M131.48,128.43c0,.37-.3.67-.68.67s-.67-.3-.67-.67.3-.68.67-.68.68.3.68.68Z"/>
  <path d="M176.47,159.22c0,.51-.41.92-.92.92s-.92-.41-.92-.92.41-.91.92-.91.92.41.92.91Z"/>
  <path d="M146.15,141.36c0,.6-.49,1.09-1.09,1.09s-1.09-.49-1.09-1.09.49-1.09,1.09-1.09,1.09.49,1.09,1.09Z"/>
  <path d="M187.63,140.8c0,.58-.47,1.06-1.06,1.06s-1.06-.47-1.06-1.06.47-1.06,1.06-1.06,1.06.47,1.06,1.06Z"/>
  <path d="M71.67,197c0,.38-.31.69-.68.69s-.69-.31-.69-.69.31-.68.69-.68.68.31.68.68Z"/>
  <path d="M85.55,142.39c0,.66-.54,1.2-1.19,1.2s-1.2-.54-1.2-1.2.54-1.19,1.2-1.19,1.19.53,1.19,1.19Z"/>
  <path d="M11.42,184.37c0,.39-.31.7-.69.7s-.7-.31-.7-.7.31-.69.7-.69.69.31.69.69Z"/>
  <path d="M192.25,249.07c0,.45-.37.82-.82.82s-.82-.37-.82-.82.37-.83.82-.83.82.37.82.83Z"/>
  <path d="M63.92,68.85c0,.91-.74,1.65-1.65,1.65s-1.65-.74-1.65-1.65.74-1.65,1.65-1.65,1.65.74,1.65,1.65Z"/>
  <path d="M141.84,130.43c0,.27-.22.49-.49.49s-.49-.22-.49-.49.22-.49.49-.49.49.22.49.49Z"/>
  <path d="M171.46,146.79c0,.77-.62,1.4-1.39,1.4s-1.4-.62-1.4-1.4.62-1.39,1.4-1.39,1.39.62,1.39,1.39Z"/>
  <path d="M106.05,154.76c0,.42-.34.76-.76.76s-.76-.34-.76-.76.34-.76.76-.76.76.34.76.76Z"/>
  <path d="M155.7,134.05c0,.39-.31.7-.7.7s-.7-.31-.7-.7.31-.7.7-.7.7.31.7.7Z"/>
  <path d="M101.34,130.21c0,.52-.42.93-.93.93s-.94-.42-.94-.93.42-.94.94-.94.93.42.93.94Z"/>
  <path d="M129.08,101.42c0,.45-.37.82-.82.82s-.82-.37-.82-.82.37-.81.82-.81.82.36.82.81Z"/>
  <path d="M29.59,104.39c0,.61-.49,1.1-1.1,1.1s-1.1-.49-1.1-1.1.49-1.1,1.1-1.1,1.1.49,1.1,1.1Z"/>
  <path d="M62.63,59.94c0,.52-.42.94-.94.94s-.94-.42-.94-.94.42-.94.94-.94.94.42.94.94Z"/>
  <path d="M180.34,158.27c0,.37-.3.67-.68.67s-.67-.3-.67-.67.3-.68.67-.68.68.3.68.68Z"/>
  <path d="M136.97,89.85c0,.38-.31.68-.68.68s-.68-.31-.68-.68.31-.68.68-.68.68.31.68.68Z"/>
  <path d="M187.07,81.85c0,.41-.33.74-.74.74s-.74-.33-.74-.74.33-.74.74-.74.74.33.74.74Z"/>
  <path d="M185.85,137.59c0,.71-.57,1.28-1.28,1.28s-1.28-.57-1.28-1.28.57-1.28,1.28-1.28,1.28.57,1.28,1.28Z"/>
  <path d="M173.34,132.62c0,1.05-.85,1.9-1.9,1.9s-1.9-.85-1.9-1.9.85-1.9,1.9-1.9,1.9.85,1.9,1.9Z"/>
  <path d="M78.22,136.28c0,.87-.7,1.58-1.57,1.58s-1.57-.71-1.57-1.58.7-1.57,1.57-1.57,1.57.7,1.57,1.57Z"/>
  <path d="M172.54,103.97c0,.55-.45,1-1,1s-1-.45-1-1,.45-1,1-1,1,.45,1,1Z"/>
  <path d="M125.1,89.32c0,.39-.32.71-.71.71s-.71-.32-.71-.71.32-.71.71-.71.71.32.71.71Z"/>
  <path d="M191.8,129.94c0,.29-.24.53-.53.53s-.53-.23-.53-.53.24-.53.53-.53.53.24.53.53Z"/>
  <path d="M228.15,155c0,.22-.18.41-.41.41s-.41-.18-.41-.41.18-.41.41-.41.41.18.41.41Z"/>
  <path d="M71.73,148.2c0,.46-.37.83-.83.83s-.83-.37-.83-.83.37-.83.83-.83.83.37.83.83Z"/>
  <path d="M126.31,130.94c0,.22-.18.4-.4.4s-.4-.18-.4-.4.18-.4.4-.4.4.18.4.4Z"/>
  <path d="M148.72,229.49c0,.27-.22.48-.48.48s-.48-.22-.48-.48.22-.48.48-.48.48.21.48.48Z"/>
  <path d="M203.34,142.81c0,.59-.48,1.06-1.06,1.06s-1.07-.48-1.07-1.06.48-1.07,1.07-1.07,1.06.48,1.06,1.07Z"/>
  <path d="M98.65,183.04c0,.3-.24.54-.54.54s-.54-.24-.54-.54.24-.54.54-.54.54.24.54.54Z"/>
  <path d="M139.63,190.33c0,.93-.75,1.68-1.68,1.68s-1.69-.75-1.69-1.68.75-1.68,1.69-1.68,1.68.75,1.68,1.68Z"/>
  <path d="M114.36,242.12c0,.25-.2.46-.46.46s-.45-.2-.45-.46.2-.46.45-.46.46.2.46.46Z"/>
  <path d="M97.06,163.57c0,.39-.31.7-.69.7s-.7-.31-.7-.7.31-.69.7-.69.69.31.69.69Z"/>
  <path d="M52.6,67.19c0,.77-.62,1.39-1.39,1.39s-1.39-.62-1.39-1.39.62-1.39,1.39-1.39,1.39.62,1.39,1.39Z"/>
  <path d="M108.72,126.91c0,.37-.3.66-.66.66s-.66-.3-.66-.66.3-.66.66-.66.66.3.66.66Z"/>
  <path d="M46.11,101.57c0,.52-.42.93-.93.93s-.93-.42-.93-.93.42-.93.93-.93.93.42.93.93Z"/>
  <path d="M136.53,169.89c0,.82-.67,1.49-1.49,1.49s-1.49-.67-1.49-1.49.67-1.49,1.49-1.49,1.49.67,1.49,1.49Z"/>
  <path d="M153.47,170.06c0,.76-.61,1.37-1.37,1.37s-1.37-.61-1.37-1.37.61-1.37,1.37-1.37,1.37.61,1.37,1.37Z"/>
  <path d="M99.08,108.76c0,.49-.4.89-.89.89s-.88-.39-.88-.89.4-.88.88-.88.89.4.89.88Z"/>
  <path d="M141.25,169.14c0,.47-.38.85-.85.85s-.85-.38-.85-.85.38-.85.85-.85.85.38.85.85Z"/>
  <path d="M167.02,96.85c0,.38-.31.69-.7.69s-.69-.31-.69-.69.31-.7.69-.7.7.31.7.7Z"/>
  <path d="M160.57,194.22c0,.67-.54,1.22-1.22,1.22s-1.21-.54-1.21-1.22.54-1.21,1.21-1.21,1.22.54,1.22,1.21Z"/>
  <path d="M56.76,107c0,.57-.47,1.04-1.04,1.04s-1.04-.47-1.04-1.04.46-1.04,1.04-1.04,1.04.47,1.04,1.04Z"/>
  <path d="M122.08,190.33c0,.56-.45,1.01-1.01,1.01s-1.01-.45-1.01-1.01.45-1.01,1.01-1.01,1.01.45,1.01,1.01Z"/>
  <path d="M148.93,189.69c0,.34-.28.62-.62.62s-.62-.28-.62-.62.28-.62.62-.62.62.28.62.62Z"/>
  <path d="M184.15,181.02c0,.5-.4.9-.9.9s-.9-.4-.9-.9.4-.9.9-.9.9.4.9.9Z"/>
  <path d="M122.79,162.23c0,.35-.28.63-.63.63s-.63-.28-.63-.63.28-.63.63-.63.63.28.63.63Z"/>
  <path d="M146.83,162.3c0,.46-.37.84-.84.84s-.84-.38-.84-.84.37-.84.84-.84.84.37.84.84Z"/>
  <path d="M150.66,163.89c0,.49-.4.88-.88.88s-.88-.39-.88-.88.4-.88.88-.88.88.4.88.88Z"/>
  <path d="M160.88,189.28c0,.59-.48,1.07-1.07,1.07s-1.07-.48-1.07-1.07.48-1.06,1.07-1.06,1.07.48,1.07,1.06Z"/>
  <path d="M163.45,112c0,.42-.34.75-.75.75s-.75-.34-.75-.75.34-.75.75-.75.75.34.75.75Z"/>
  <path d="M162.72,242.21c0,.72-.58,1.3-1.3,1.3s-1.3-.58-1.3-1.3.58-1.3,1.3-1.3,1.3.58,1.3,1.3Z"/>
  <path d="M171.5,129.58c0,.46-.38.84-.84.84s-.84-.38-.84-.84.38-.84.84-.84.84.38.84.84Z"/>
  <path d="M144.95,155.49c0,.49-.4.89-.89.89s-.89-.4-.89-.89.4-.89.89-.89.89.4.89.89Z"/>
  <path d="M159.96,114.09c0,.64-.52,1.17-1.17,1.17s-1.17-.52-1.17-1.17.52-1.17,1.17-1.17,1.17.52,1.17,1.17Z"/>
  <path d="M130.66,134.82c0,.47-.38.85-.85.85s-.85-.38-.85-.85.38-.85.85-.85.85.38.85.85Z"/>
  <path d="M128.9,212.65c0,.6-.49,1.09-1.09,1.09s-1.09-.49-1.09-1.09.49-1.09,1.09-1.09,1.09.49,1.09,1.09Z"/>
  <path d="M142.72,209.73c0,.29-.24.53-.54.53s-.53-.24-.53-.53.24-.53.53-.53.54.24.54.53Z"/>
  <path d="M119.99,158.54c0,.38-.3.68-.68.68s-.68-.3-.68-.68.3-.68.68-.68.68.3.68.68Z"/>
  <path d="M207.75,198.35c0,.48-.39.87-.87.87s-.87-.39-.87-.87.39-.87.87-.87.87.39.87.87Z"/>
  <path d="M114.94,197.1c0,.4-.32.72-.72.72s-.72-.32-.72-.72.32-.72.72-.72.72.32.72.72Z"/>
  <path d="M206.06,235.52c0,.58-.47,1.05-1.05,1.05s-1.05-.47-1.05-1.05.47-1.05,1.05-1.05,1.05.47,1.05,1.05Z"/>
  <path d="M221.54,204.94c0,.58-.47,1.06-1.05,1.06s-1.05-.47-1.05-1.06.47-1.06,1.05-1.06,1.05.47,1.05,1.06Z"/>
  <path d="M43.35,180.02c0,.34-.28.62-.62.62s-.62-.28-.62-.62.28-.62.62-.62.62.28.62.62Z"/>
  <path d="M216.52,149.53c0,.32-.26.59-.59.59s-.59-.26-.59-.59.26-.59.59-.59.59.26.59.59Z"/>
  <path d="M172.79,164.22c0,.53-.43.96-.96.96s-.96-.43-.96-.96.43-.96.96-.96.96.43.96.96Z"/>
  <path d="M112.36,144.63c0,.56-.46,1.02-1.02,1.02s-1.02-.46-1.02-1.02.46-1.02,1.02-1.02,1.02.46,1.02,1.02Z"/>
  <path d="M209.97,127.04c0,.58-.47,1.06-1.06,1.06s-1.06-.47-1.06-1.06.47-1.06,1.06-1.06,1.06.47,1.06,1.06Z"/>
  <path d="M112.22,89.35c0,.42-.34.76-.75.76s-.76-.34-.76-.76.34-.75.76-.75.75.34.75.75Z"/>
  <path d="M221.13,268.05c0,.5-.41.91-.91.91s-.91-.41-.91-.91.41-.91.91-.91.91.41.91.91Z"/>
  <path d="M148.97,190.68c0,.43-.35.78-.78.78s-.78-.35-.78-.78.35-.78.78-.78.78.35.78.78Z"/>
  <path d="M191.83,131.6c0,.78-.63,1.42-1.41,1.42s-1.41-.63-1.41-1.42.63-1.41,1.41-1.41,1.41.63,1.41,1.41Z"/>
  <path d="M209.66,118.46c0,.45-.36.81-.81.81s-.81-.36-.81-.81.36-.81.81-.81.81.36.81.81Z"/>
  <path d="M133.04,131.69c0,.55-.44.99-.99.99s-.99-.44-.99-.99.44-.99.99-.99.99.44.99.99Z"/>
  <path d="M74.8,281.43c0,.49-.4.89-.89.89s-.89-.4-.89-.89.4-.89.89-.89.89.4.89.89Z"/>
  <path d="M116.67,241.65c0,.79-.64,1.43-1.43,1.43s-1.43-.64-1.43-1.43.64-1.43,1.43-1.43,1.43.64,1.43,1.43Z"/>
  <path d="M142.58,210.87c0,.42-.34.76-.76.76s-.76-.34-.76-.76.34-.76.76-.76.76.34.76.76Z"/>
  <path d="M225.07,91.51c0,.41-.33.75-.75.75s-.75-.33-.75-.75.33-.75.75-.75.75.34.75.75Z"/>
  <path d="M68.51,235.15c0,.52-.42.94-.94.94s-.94-.42-.94-.94.42-.94.94-.94.94.42.94.94Z"/>
  <path d="M85.41,123.52c0,.41-.33.75-.75.75s-.75-.33-.75-.75.33-.75.75-.75.75.33.75.75Z"/>
  <path d="M67.92,166.23c0,.38-.31.69-.69.69s-.69-.31-.69-.69.31-.69.69-.69.69.31.69.69Z"/>
  <path d="M148.05,194.31c0,.46-.37.84-.83.84s-.83-.38-.83-.84.37-.83.83-.83.83.37.83.83Z"/>
  <path d="M143.34,169.54c0,.39-.32.71-.7.71s-.71-.32-.71-.71.32-.7.71-.7.7.32.7.7Z"/>
  <path d="M190.26,288c0,.48-.38.86-.86.86s-.86-.38-.86-.86.38-.86.86-.86.86.38.86.86Z"/>
  <path d="M145.82,274.52c0,.59-.48,1.06-1.07,1.06s-1.07-.48-1.07-1.06.48-1.07,1.07-1.07,1.07.48,1.07,1.07Z"/>
  <path d="M50.59,241.28c0,.52-.42.94-.94.94s-.94-.42-.94-.94.42-.94.94-.94.94.42.94.94Z"/>
  <path d="M19.96,262.68c0,.44-.36.8-.8.8s-.8-.36-.8-.8.36-.8.8-.8.8.36.8.8Z"/>
  <path d="M196.41,54.27c0,.58-.47,1.05-1.05,1.05s-1.05-.47-1.05-1.05.47-1.05,1.05-1.05,1.05.47,1.05,1.05Z"/>
  <path d="M115.83,136.09c0,.35-.28.62-.62.62s-.62-.28-.62-.62.28-.62.62-.62.62.28.62.62Z"/>
  <path d="M128.55,241.6c0,.66-.53,1.19-1.19,1.19s-1.19-.53-1.19-1.19.53-1.19,1.19-1.19,1.19.53,1.19,1.19Z"/>
  <path d="M159.25,266.81c0,.88-.72,1.6-1.6,1.6s-1.6-.71-1.6-1.6.72-1.6,1.6-1.6,1.6.72,1.6,1.6Z"/>
  <path d="M145.95,178.61c0,.57-.46,1.03-1.03,1.03s-1.03-.46-1.03-1.03.46-1.03,1.03-1.03,1.03.46,1.03,1.03Z"/>
  <path d="M142.66,151.92c0,.34-.27.61-.61.61s-.61-.27-.61-.61.27-.6.61-.6.61.27.61.6Z"/>
  <path d="M9.31,127.46c0,.52-.42.94-.94.94s-.94-.42-.94-.94.42-.94.94-.94.94.42.94.94Z"/>
  <path d="M81.88,163.09c0,.47-.38.85-.85.85s-.85-.38-.85-.85.38-.85.85-.85.85.38.85.85Z"/>
  <path d="M135.49,251.99c0,.53-.43.95-.95.95s-.96-.43-.96-.95.43-.96.96-.96.95.43.95.96Z"/>
  <path d="M202.35,197.17c0,.32-.26.57-.57.57s-.57-.26-.57-.57.26-.57.57-.57.57.26.57.57Z"/>
  <path d="M224.04,164.43c0,.6-.49,1.09-1.09,1.09s-1.09-.49-1.09-1.09.49-1.09,1.09-1.09,1.09.49,1.09,1.09Z"/>
  <path d="M109.48,305.5c0,.45-.37.82-.82.82s-.82-.37-.82-.82.37-.82.82-.82.82.37.82.82Z"/>
  <path d="M117.89,194.61c0,.53-.43.96-.96.96s-.96-.43-.96-.96.43-.95.96-.95.96.43.96.95Z"/>
  <path d="M152.08,202.89c0,.69-.56,1.25-1.25,1.25s-1.25-.56-1.25-1.25.56-1.25,1.25-1.25,1.25.56,1.25,1.25Z"/>
  <path d="M168.36,174.02c0,.67-.55,1.22-1.22,1.22s-1.22-.55-1.22-1.22.55-1.22,1.22-1.22,1.22.54,1.22,1.22Z"/>
  <path d="M152.35,108.59c0,.66-.53,1.19-1.19,1.19s-1.19-.54-1.19-1.19.54-1.2,1.19-1.2,1.19.54,1.19,1.2Z"/>
  <path d="M123.38,181.32c0,.31-.26.57-.57.57s-.57-.25-.57-.57.26-.57.57-.57.57.25.57.57Z"/>
  <path d="M162.62,132.03c0,.5-.4.9-.89.9s-.89-.4-.89-.9.4-.89.89-.89.89.4.89.89Z"/>
  <path d="M157.19,172.89c0,.23-.18.41-.41.41s-.41-.18-.41-.41.18-.41.41-.41.41.18.41.41Z"/>
  <path d="M28.33,210c0,.65-.53,1.18-1.18,1.18s-1.18-.53-1.18-1.18.53-1.18,1.18-1.18,1.18.53,1.18,1.18Z"/>
  <path d="M218.3,174.96c0,.39-.32.7-.71.7s-.7-.31-.7-.7.31-.7.7-.7.71.31.71.7Z"/>
  <path d="M177.13,194.25c0,.95-.77,1.72-1.72,1.72s-1.72-.77-1.72-1.72.77-1.72,1.72-1.72,1.72.77,1.72,1.72Z"/>
  <path d="M134.69,100.47c0,.62-.5,1.12-1.12,1.12s-1.11-.5-1.11-1.12.5-1.11,1.11-1.11,1.12.5,1.12,1.11Z"/>
  <path d="M168.5,102.14c0,.34-.28.62-.62.62s-.62-.28-.62-.62.28-.62.62-.62.62.28.62.62Z"/>
  <path d="M93.41,216.25c0,.37-.3.67-.67.67s-.68-.3-.68-.67.3-.68.68-.68.67.3.67.68Z"/>
  <path d="M63.8,234.59c0,.42-.34.77-.77.77s-.77-.34-.77-.77.34-.77.77-.77.77.34.77.77Z"/>
  <path d="M97.25,216.61c0,.44-.36.8-.8.8s-.8-.36-.8-.8.36-.8.8-.8.8.36.8.8Z"/>
  <path d="M76.22,119.52c0,.4-.32.73-.72.73s-.72-.33-.72-.73.32-.72.72-.72.72.32.72.72Z"/>
  <path d="M89.6,179.44c0,.4-.32.72-.72.72s-.72-.32-.72-.72.32-.72.72-.72.72.32.72.72Z"/>
  <path d="M64.79,258.89c0,.34-.28.61-.62.61s-.61-.27-.61-.61.27-.61.61-.61.62.27.62.61Z"/>
  <path d="M119.9,102.7c0,.36-.29.65-.65.65s-.64-.29-.64-.65.29-.64.64-.64.65.29.65.64Z"/>
  <path d="M36.91,143.37c0,.43-.34.77-.77.77s-.77-.34-.77-.77.34-.77.77-.77.77.34.77.77Z"/>
  <path d="M90.4,147.92c0,.47-.38.85-.86.85s-.85-.38-.85-.85.38-.85.85-.85.86.38.86.85Z"/>
  <path d="M48.1,147.91c0,.54-.44.99-.99.99s-.99-.44-.99-.99.44-.99.99-.99.99.44.99.99Z"/>
  <path d="M82.35,195.73c0,.71-.58,1.29-1.29,1.29s-1.29-.58-1.29-1.29.58-1.29,1.29-1.29,1.29.57,1.29,1.29Z"/>
  <path d="M63.05,213.51c0,.34-.28.62-.62.62s-.62-.28-.62-.62.28-.62.62-.62.62.28.62.62Z"/>
  <path d="M64.71,196.88c0,.46-.37.82-.82.82s-.82-.37-.82-.82.37-.82.82-.82.82.37.82.82Z"/>
  <path d="M72.58,152.27c0,.29-.23.52-.52.52s-.52-.23-.52-.52.23-.52.52-.52.52.24.52.52Z"/>
  <path d="M99.49,202.78c0,.43-.35.79-.79.79s-.79-.35-.79-.79.35-.78.79-.78.79.35.79.78Z"/>
  <path d="M183.91,178.5c0,.72-.59,1.31-1.31,1.31s-1.31-.59-1.31-1.31.58-1.31,1.31-1.31,1.31.59,1.31,1.31Z"/>
  <path d="M134.16,165.86c0,.32-.26.58-.58.58s-.58-.26-.58-.58.26-.58.58-.58.58.26.58.58Z"/>
  <path d="M171.25,185.25c0,.49-.4.88-.88.88s-.88-.39-.88-.88.4-.88.88-.88.88.39.88.88Z"/>
  <path d="M193.41,260.95c0,.5-.41.9-.9.9s-.9-.4-.9-.9.41-.9.9-.9.9.4.9.9Z"/>
  <path d="M167.68,196.17c0,.25-.2.44-.44.44s-.44-.2-.44-.44.2-.44.44-.44.44.2.44.44Z"/>
  <path d="M59.72,149.8c0,.36-.29.65-.65.65s-.65-.29-.65-.65.29-.65.65-.65.65.29.65.65Z"/>
  <path d="M103.7,174.28c0,.48-.39.88-.87.88s-.88-.39-.88-.88.39-.87.88-.87.87.39.87.87Z"/>
  <path d="M147.48,253.33c0,.62-.51,1.13-1.13,1.13s-1.13-.5-1.13-1.13.5-1.13,1.13-1.13,1.13.51,1.13,1.13Z"/>
  <path d="M64.77,184.1c0,.73-.59,1.33-1.33,1.33s-1.33-.6-1.33-1.33.59-1.33,1.33-1.33,1.33.6,1.33,1.33Z"/>
  <path d="M42.45,188.89c0,.62-.5,1.13-1.13,1.13s-1.13-.51-1.13-1.13.51-1.13,1.13-1.13,1.13.5,1.13,1.13Z"/>
  <path d="M127.96,196.15c0,.69-.56,1.25-1.25,1.25s-1.25-.56-1.25-1.25.56-1.25,1.25-1.25,1.25.56,1.25,1.25Z"/>
  <path d="M79.1,199.25c0,.39-.31.7-.7.7s-.7-.31-.7-.7.31-.7.7-.7.7.31.7.7Z"/>
  <path d="M105.65,202.37c0,.43-.35.78-.78.78s-.78-.35-.78-.78.35-.78.78-.78.78.35.78.78Z"/>
  <path d="M145.84,216.57c0,.6-.49,1.09-1.09,1.09s-1.09-.49-1.09-1.09.49-1.09,1.09-1.09,1.09.48,1.09,1.09Z"/>
  <path d="M149.4,170.76c0,.25-.2.46-.46.46s-.46-.21-.46-.46.2-.46.46-.46.46.21.46.46Z"/>
  <path d="M175.63,143.53c0,.32-.26.58-.58.58s-.58-.26-.58-.58.26-.58.58-.58.58.26.58.58Z"/>
  <path d="M138.95,215.16c0,.38-.31.68-.69.68s-.69-.31-.69-.68.31-.69.69-.69.69.31.69.69Z"/>
  <path d="M70.83,154.7c0,.38-.3.68-.68.68s-.68-.3-.68-.68.3-.68.68-.68.68.3.68.68Z"/>
  <path d="M170.9,187.02c0,.51-.41.91-.91.91s-.92-.41-.92-.91.41-.91.92-.91.91.41.91.91Z"/>
  <path d="M109.58,227.63c0,.73-.6,1.33-1.33,1.33s-1.33-.6-1.33-1.33.59-1.33,1.33-1.33,1.33.6,1.33,1.33Z"/>
  <path d="M62.7,192.71c0,.59-.48,1.07-1.07,1.07s-1.07-.48-1.07-1.07.48-1.07,1.07-1.07,1.07.48,1.07,1.07Z"/>
  <path d="M148.27,221.49c0,.81-.66,1.47-1.47,1.47s-1.47-.66-1.47-1.47.66-1.47,1.47-1.47,1.47.66,1.47,1.47Z"/>
  <path d="M170.54,257.67c0,.56-.45,1.01-1.01,1.01s-1.01-.46-1.01-1.01.46-1.01,1.01-1.01,1.01.45,1.01,1.01Z"/>
  <path d="M73.78,244.94c0,.4-.32.72-.71.72s-.71-.32-.71-.72.32-.71.71-.71.71.32.71.71Z"/>
  <path d="M74.8,124.77c0,.61-.49,1.1-1.1,1.1s-1.1-.49-1.1-1.1.49-1.1,1.1-1.1,1.1.49,1.1,1.1Z"/>
  <path d="M76.31,199.73c0,.29-.24.54-.53.54s-.54-.24-.54-.54.24-.53.54-.53.53.24.53.53Z"/>
  <path d="M10.66,263.88c0,.54-.43.97-.97.97s-.97-.43-.97-.97.43-.97.97-.97.97.43.97.97Z"/>
  <path d="M169.46,174.55c0,.39-.32.71-.71.71s-.71-.32-.71-.71.32-.7.71-.7.71.31.71.7Z"/>
  <path d="M150.07,101.79c0,.42-.34.77-.77.77s-.76-.34-.76-.77.34-.77.76-.77.77.34.77.77Z"/>
  <path d="M51.96,173.27c0,.59-.48,1.06-1.06,1.06s-1.06-.48-1.06-1.06.48-1.06,1.06-1.06,1.06.48,1.06,1.06Z"/>
  <path d="M118.8,101.29c0,.26-.21.47-.47.47s-.47-.21-.47-.47.21-.47.47-.47.47.21.47.47Z"/>
  <path d="M128.9,181.03c0,.49-.4.89-.89.89s-.89-.4-.89-.89.4-.89.89-.89.89.4.89.89Z"/>
  <path d="M127.33,105.99c0,.24-.19.43-.43.43s-.44-.19-.44-.43.19-.43.44-.43.43.2.43.43Z"/>
  <path d="M99.99,37.01c0,.38-.31.69-.69.69s-.69-.31-.69-.69.31-.69.69-.69.69.31.69.69Z"/>
  <path d="M101.53,46.69c0,.31-.25.57-.57.57s-.57-.25-.57-.57.25-.57.57-.57.57.25.57.57Z"/>
  <path d="M133,138.1c0,.42-.34.76-.77.76s-.76-.34-.76-.76.34-.77.76-.77.77.34.77.77Z"/>
  <path d="M100.48,124.81c0,.32-.26.58-.58.58s-.58-.26-.58-.58.26-.58.58-.58.58.26.58.58Z"/>
  <path d="M92.34,156.54c0,.65-.52,1.17-1.17,1.17s-1.17-.52-1.17-1.17.53-1.17,1.17-1.17,1.17.53,1.17,1.17Z"/>
  <path d="M19.62,68.76c0,.31-.25.56-.56.56s-.56-.25-.56-.56.25-.56.56-.56.56.25.56.56Z"/>
  <path d="M167.5,47.12c0,.68-.55,1.24-1.24,1.24s-1.24-.55-1.24-1.24.55-1.24,1.24-1.24,1.24.55,1.24,1.24Z"/>
  <path d="M202.68,34.77c0,.56-.46,1.02-1.02,1.02s-1.02-.46-1.02-1.02.45-1.02,1.02-1.02,1.02.46,1.02,1.02Z"/>
  <path d="M150.81,109.43c0,.59-.48,1.07-1.07,1.07s-1.07-.48-1.07-1.07.48-1.07,1.07-1.07,1.07.48,1.07,1.07Z"/>
  <path d="M58.42,114.38c0,.73-.59,1.32-1.32,1.32s-1.32-.59-1.32-1.32.59-1.32,1.32-1.32,1.32.59,1.32,1.32Z"/>
  <path d="M193.83,126.14c0,.8-.65,1.45-1.45,1.45s-1.45-.65-1.45-1.45.65-1.45,1.45-1.45,1.45.65,1.45,1.45Z"/>
  <path d="M165.59,15.19c0,.39-.32.71-.7.71s-.71-.31-.71-.71.32-.71.71-.71.7.32.7.71Z"/>
  <path d="M154.33,148.43c0,.37-.3.67-.67.67s-.67-.3-.67-.67.3-.67.67-.67.67.3.67.67Z"/>
  <path d="M201.94,53.5c0,.56-.45,1.01-1.01,1.01s-1.01-.45-1.01-1.01.45-1.01,1.01-1.01,1.01.45,1.01,1.01Z"/>
  <path d="M104.61,129.08c0,.85-.69,1.54-1.54,1.54s-1.54-.69-1.54-1.54.69-1.54,1.54-1.54,1.54.69,1.54,1.54Z"/>
  <path d="M143.76,79.01c0,.44-.36.8-.8.8s-.8-.36-.8-.8.36-.8.8-.8.8.36.8.8Z"/>
  <path d="M95.55,46.34c0,.6-.49,1.08-1.08,1.08s-1.08-.49-1.08-1.08.48-1.08,1.08-1.08,1.08.49,1.08,1.08Z"/>
  <path d="M125.97,103.63c0,.69-.56,1.25-1.25,1.25s-1.25-.56-1.25-1.25.56-1.25,1.25-1.25,1.25.56,1.25,1.25Z"/>
  <path d="M170.03,110.09c0,.9-.73,1.63-1.63,1.63s-1.63-.73-1.63-1.63.73-1.63,1.63-1.63,1.63.73,1.63,1.63Z"/>
  <path d="M208,119.49c0,.38-.3.69-.68.69s-.68-.31-.68-.69.31-.68.68-.68.68.31.68.68Z"/>
  <path d="M180.45,75.76c0,.35-.28.63-.64.63s-.64-.29-.64-.63.28-.64.64-.64.64.28.64.64Z"/>
  <circle cx="127.69" cy="64.5" r="1.4"/>
  <path d="M219.39,111.73c0,.67-.54,1.21-1.21,1.21s-1.21-.54-1.21-1.21.54-1.21,1.21-1.21,1.21.54,1.21,1.21Z"/>
  <path d="M168.34,141.54c0,.75-.61,1.37-1.37,1.37s-1.37-.61-1.37-1.37.61-1.37,1.37-1.37,1.37.61,1.37,1.37Z"/>
  <path d="M103.54,53.64c0,.45-.37.82-.82.82s-.82-.37-.82-.82.37-.82.82-.82.82.37.82.82Z"/>
  <path d="M139.32,123.2c0,.51-.41.92-.92.92s-.92-.41-.92-.92.41-.92.92-.92.92.41.92.92Z"/>
  <path d="M123.33,80.33c0,.35-.29.64-.64.64s-.64-.29-.64-.64.29-.64.64-.64.64.29.64.64Z"/>
  <path d="M156.68,155.42c0,.42-.34.76-.76.76s-.76-.34-.76-.76.34-.76.76-.76.76.34.76.76Z"/>
  <path d="M104.65,33.86c0,.52-.42.93-.93.93s-.93-.41-.93-.93.42-.93.93-.93.93.42.93.93Z"/>
  <path d="M61.66,35.7c0,.5-.41.91-.91.91s-.91-.41-.91-.91.41-.91.91-.91.91.41.91.91Z"/>
  <path d="M179.36,138.84c0,.23-.19.42-.41.42s-.41-.19-.41-.42.18-.41.41-.41.41.19.41.41Z"/>
  <path d="M222.52,57.35c0,.47-.38.86-.86.86s-.86-.38-.86-.86.38-.86.86-.86.86.38.86.86Z"/>
  <path d="M74.79,45.97c0,.45-.37.82-.82.82s-.82-.37-.82-.82.37-.82.82-.82.82.37.82.82Z"/>
  <path d="M182.91,71.22c0,.95-.76,1.71-1.71,1.71s-1.71-.77-1.71-1.71.77-1.71,1.71-1.71,1.71.77,1.71,1.71Z"/>
  <path d="M156.99,187.42c0,.51-.41.92-.92.92s-.92-.41-.92-.92.41-.92.92-.92.92.41.92.92Z"/>
  <path d="M127.16,160.99c0,.61-.49,1.1-1.1,1.1s-1.1-.49-1.1-1.1.49-1.1,1.1-1.1,1.1.49,1.1,1.1Z"/>
  <path d="M146.3,141.11c0,.98-.79,1.77-1.77,1.77s-1.77-.79-1.77-1.77.79-1.77,1.77-1.77,1.77.79,1.77,1.77Z"/>
  <path d="M113.77,119.58c0,.38-.31.69-.69.69s-.69-.31-.69-.69.31-.69.69-.69.69.31.69.69Z"/>
  <path d="M159.2,152.86c0,.86-.69,1.55-1.55,1.55s-1.55-.69-1.55-1.55.69-1.54,1.55-1.54,1.55.69,1.55,1.54Z"/>
  <path d="M149.28,103.05c0,.58-.47,1.05-1.05,1.05s-1.05-.47-1.05-1.05.47-1.05,1.05-1.05,1.05.47,1.05,1.05Z"/>
  <path d="M167.42,114.99c0,.61-.5,1.11-1.11,1.11s-1.11-.5-1.11-1.11.5-1.1,1.11-1.1,1.11.49,1.11,1.1Z"/>
  <path d="M73.87,121.33c0,.37-.29.66-.66.66s-.66-.3-.66-.66.3-.66.66-.66.66.3.66.66Z"/>
  <path d="M67.27,176.41c0,.66-.54,1.2-1.2,1.2s-1.2-.54-1.2-1.2.54-1.2,1.2-1.2,1.2.54,1.2,1.2Z"/>
  <path d="M95.4,110.05c0,.83-.67,1.5-1.5,1.5s-1.5-.67-1.5-1.5.67-1.5,1.5-1.5,1.5.67,1.5,1.5Z"/>
  <path d="M49.81,222.16c0,.72-.58,1.29-1.3,1.29s-1.29-.58-1.29-1.29.58-1.29,1.29-1.29,1.3.58,1.3,1.29Z"/>
  <path d="M84.35,182.33c0,.58-.47,1.05-1.05,1.05s-1.05-.47-1.05-1.05.47-1.05,1.05-1.05,1.05.47,1.05,1.05Z"/>
  <path d="M84.28,40.32c0,.62-.5,1.12-1.12,1.12s-1.12-.5-1.12-1.12.5-1.12,1.12-1.12,1.12.5,1.12,1.12Z"/>
  <path d="M57.55,88.18c0,.33-.27.6-.6.6s-.6-.27-.6-.6.27-.6.6-.6.6.27.6.6Z"/>
  <path d="M20.66,175.64c0,.29-.24.54-.54.54s-.54-.24-.54-.54.24-.54.54-.54.54.24.54.54Z"/>
  <path d="M112.43,180.87c0,.42-.35.77-.77.77s-.77-.35-.77-.77.35-.77.77-.77.77.35.77.77Z"/>
  <path d="M131.04,147.64c0,.4-.32.72-.72.72s-.71-.32-.71-.72.32-.72.71-.72.72.32.72.72Z"/>
  <path d="M116.91,108.58c0,.85-.69,1.55-1.55,1.55s-1.54-.69-1.54-1.55.69-1.55,1.54-1.55,1.55.69,1.55,1.55Z"/>
  <path d="M104.89,160.32c0,.26-.21.47-.47.47s-.47-.21-.47-.47.21-.47.47-.47.47.21.47.47Z"/>
  <path d="M55.71,81.4c0,.51-.41.91-.91.91s-.91-.41-.91-.91.41-.91.91-.91.91.41.91.91Z"/>
  <path d="M76.98,141.32c0,.4-.33.73-.73.73s-.73-.33-.73-.73.33-.73.73-.73.73.33.73.73Z"/>
  <path d="M77.41,85.98c0,.25-.2.45-.45.45s-.45-.2-.45-.45.2-.45.45-.45.45.2.45.45Z"/>
  <path d="M101.33,139.46c0,.63-.51,1.15-1.15,1.15s-1.15-.52-1.15-1.15.52-1.15,1.15-1.15,1.15.52,1.15,1.15Z"/>
  <path d="M116.44,116.25c0,.53-.43.96-.96.96s-.96-.43-.96-.96.43-.96.96-.96.96.43.96.96Z"/>
  <path d="M58.11,78.92c0,.43-.35.78-.77.78s-.78-.35-.78-.78.35-.78.78-.78.77.35.77.78Z"/>
  <path d="M117.14,198.22c0,.67-.54,1.21-1.21,1.21s-1.21-.54-1.21-1.21.54-1.2,1.21-1.2,1.21.54,1.21,1.2Z"/>
  <path d="M94.05,109.08c0,.6-.49,1.09-1.09,1.09s-1.09-.49-1.09-1.09.49-1.09,1.09-1.09,1.09.49,1.09,1.09Z"/>
  <path d="M66.51,87.5c0,.75-.61,1.36-1.36,1.36s-1.36-.61-1.36-1.36.61-1.36,1.36-1.36,1.36.61,1.36,1.36Z"/>
  <path d="M165.4,115.72c0,.49-.4.89-.89.89s-.89-.4-.89-.89.4-.89.89-.89.89.4.89.89Z"/>
  <path d="M13.55,142.22c0,.6-.48,1.08-1.08,1.08s-1.08-.48-1.08-1.08.48-1.08,1.08-1.08,1.08.48,1.08,1.08Z"/>
  <path d="M124.59,162.74c0,.25-.2.45-.45.45s-.45-.2-.45-.45.2-.45.45-.45.45.2.45.45Z"/>
  <path d="M118.5,91.43c0,.42-.34.76-.76.76s-.76-.34-.76-.76.34-.76.76-.76.76.34.76.76Z"/>
  <path d="M124.3,22.31c0,.41-.33.74-.74.74s-.74-.33-.74-.74.33-.74.74-.74.74.33.74.74Z"/>
  <path d="M174.24,168.36c0,.78-.63,1.4-1.4,1.4s-1.41-.63-1.41-1.4.63-1.41,1.41-1.41,1.4.63,1.4,1.41Z"/>
  <path d="M130.24,15.06c0,.75-.61,1.36-1.36,1.36s-1.36-.61-1.36-1.36.61-1.36,1.36-1.36,1.36.61,1.36,1.36Z"/>
  <path d="M93.05,16.88c0,.3-.25.55-.55.55s-.55-.25-.55-.55.25-.55.55-.55.55.25.55.55Z"/>
  <path d="M192.25,66.8c0,.4-.33.73-.73.73s-.73-.33-.73-.73.33-.73.73-.73.73.33.73.73Z"/>
  <path d="M121.7,41.3c0,.19-.16.35-.35.35s-.35-.16-.35-.35.16-.35.35-.35.35.16.35.35Z"/>
  <path d="M106.4,93.31c0,.25-.2.45-.44.45s-.45-.2-.45-.45.2-.45.45-.45.44.2.44.45Z"/>
  <path d="M181.06,52.72c0,.31-.25.55-.55.55s-.55-.25-.55-.55.25-.55.55-.55.55.25.55.55Z"/>
  <path d="M168.29,130.93c0,.49-.4.89-.89.89s-.89-.4-.89-.89.4-.89.89-.89.89.4.89.89Z"/>
  <path d="M142.52,52.76c0,.7-.57,1.27-1.27,1.27s-1.27-.57-1.27-1.27.57-1.27,1.27-1.27,1.27.57,1.27,1.27Z"/>
  <path d="M108.98,119.99c0,.45-.36.81-.81.81s-.81-.36-.81-.81.37-.81.81-.81.81.36.81.81Z"/>
  <path d="M84.93,95.05c0,.44-.36.79-.79.79s-.79-.35-.79-.79.36-.79.79-.79.79.36.79.79Z"/>
  <circle cx="125.66" cy="86.28" r="1.04"/>
  <path d="M112.23,41.59c0,.39-.32.71-.71.71s-.71-.32-.71-.71.32-.71.71-.71.71.32.71.71Z"/>
  <path d="M13.32,103.58c0,.29-.23.52-.52.52s-.52-.23-.52-.52.23-.52.52-.52.52.23.52.52Z"/>
  <path d="M188.75,24.86c0,1.17-.95,2.12-2.12,2.12s-2.12-.95-2.12-2.12.95-2.12,2.12-2.12,2.12.95,2.12,2.12Z"/>
  <path d="M180.19,53.9c0,.87-.7,1.57-1.57,1.57s-1.57-.7-1.57-1.57.7-1.57,1.57-1.57,1.57.7,1.57,1.57Z"/>
  <path d="M242.13,84.54c0,.37-.31.68-.68.68s-.68-.31-.68-.68.3-.68.68-.68.68.3.68.68Z"/>
  <path d="M154.69,152.66c0,.25-.2.46-.45.46s-.46-.21-.46-.46.2-.46.46-.46.45.2.45.46Z"/>
  <path d="M78.87,81.94c0,.39-.31.7-.7.7s-.7-.31-.7-.7.32-.7.7-.7.7.31.7.7Z"/>
  <path d="M158.3,43.12c0,.65-.53,1.18-1.18,1.18s-1.18-.53-1.18-1.18.53-1.18,1.18-1.18,1.18.53,1.18,1.18Z"/>
  <path d="M228.63,133.4c0,.74-.6,1.35-1.35,1.35s-1.35-.6-1.35-1.35.6-1.35,1.35-1.35,1.35.6,1.35,1.35Z"/>
  <path d="M123.81,63.83c0,.26-.21.47-.47.47s-.47-.21-.47-.47.21-.47.47-.47.47.21.47.47Z"/>
  <path d="M175.47,99.48c0,.46-.37.84-.84.84s-.83-.37-.83-.84.37-.84.83-.84.84.37.84.84Z"/>
  <path d="M149.7,24.04c0,.41-.33.74-.74.74s-.74-.33-.74-.74.33-.74.74-.74.74.33.74.74Z"/>
  <path d="M153.48,143.82c0,.5-.41.91-.91.91s-.92-.41-.92-.91.41-.91.92-.91.91.41.91.91Z"/>
  <path d="M161.46,90.78c0,.62-.51,1.13-1.13,1.13s-1.13-.5-1.13-1.13.51-1.13,1.13-1.13,1.13.51,1.13,1.13Z"/>
  <path d="M144.08,66.43c0,.62-.51,1.13-1.13,1.13s-1.13-.51-1.13-1.13.51-1.13,1.13-1.13,1.13.51,1.13,1.13Z"/>
  <path d="M172.17,132.54c0,.72-.58,1.3-1.3,1.3s-1.3-.58-1.3-1.3.58-1.3,1.3-1.3,1.3.58,1.3,1.3Z"/>
  <path d="M191.72,92.88c0,.38-.31.69-.69.69s-.69-.31-.69-.69.31-.69.69-.69.69.31.69.69Z"/>
  <path d="M136.53,28.48c0,.46-.38.84-.84.84s-.84-.38-.84-.84.37-.84.84-.84.84.37.84.84Z"/>
  <path d="M130.42,100.92c0,.52-.42.94-.94.94s-.94-.42-.94-.94.42-.94.94-.94.94.42.94.94Z"/>
  <path d="M171.26,96.63c0,1.03-.83,1.86-1.86,1.86s-1.86-.83-1.86-1.86.83-1.86,1.86-1.86,1.86.84,1.86,1.86Z"/>
  <path d="M239.59,87.54c0,1.15-.93,2.09-2.09,2.09s-2.08-.94-2.08-2.09.93-2.09,2.08-2.09,2.09.93,2.09,2.09Z"/>
  <path d="M88.08,18.06c0,.41-.33.74-.74.74s-.74-.33-.74-.74.33-.74.74-.74.74.33.74.74Z"/>
  <path d="M163.15,110.18c0,.3-.24.54-.54.54s-.54-.24-.54-.54.24-.54.54-.54.54.24.54.54Z"/>
  <path d="M127.98,131.71c0,.3-.25.55-.55.55s-.54-.24-.54-.55.24-.55.54-.55.55.24.55.55Z"/>
  <path d="M85.72,82.01c0,.57-.46,1.03-1.03,1.03s-1.03-.46-1.03-1.03.46-1.03,1.03-1.03,1.03.46,1.03,1.03Z"/>
  <path d="M113.45,75.92c0,.57-.46,1.02-1.02,1.02s-1.02-.46-1.02-1.02.46-1.02,1.02-1.02,1.02.46,1.02,1.02Z"/>
  <path d="M97.76,74.97c0,.54-.44.99-.99.99s-.99-.44-.99-.99.44-.99.99-.99.99.44.99.99Z"/>
  <path d="M149.06,70.09c0,.31-.25.56-.56.56s-.56-.25-.56-.56.25-.56.56-.56.56.25.56.56Z"/>
  <path d="M146.79,71.88c0,.46-.37.84-.84.84s-.84-.38-.84-.84.38-.84.84-.84.84.38.84.84Z"/>
  <path d="M113.15,143c0,.79-.64,1.43-1.43,1.43s-1.43-.64-1.43-1.43.64-1.43,1.43-1.43,1.43.64,1.43,1.43Z"/>
  <path d="M187.11,17.68c0,.51-.41.92-.92.92s-.92-.41-.92-.92.41-.92.92-.92.92.41.92.92Z"/>
  <path d="M147.76,137.61c0,.3-.25.55-.55.55s-.55-.25-.55-.55.25-.55.55-.55.55.25.55.55Z"/>
  <path d="M206.41,95.45c0,.73-.59,1.32-1.32,1.32s-1.32-.59-1.32-1.32.59-1.32,1.32-1.32,1.32.59,1.32,1.32Z"/>
  <path d="M172.79,43.15c0,.73-.59,1.32-1.31,1.32s-1.32-.59-1.32-1.32.59-1.32,1.32-1.32,1.31.59,1.31,1.32Z"/>
  <path d="M189.84,127.4c0,.74-.6,1.34-1.35,1.34s-1.35-.6-1.35-1.34.6-1.35,1.35-1.35,1.35.6,1.35,1.35Z"/>
  <path d="M233.29,131.64c0,.52-.42.94-.94.94s-.94-.42-.94-.94.42-.94.94-.94.94.42.94.94Z"/>
  <path d="M97.09,122.99c0,.81-.66,1.47-1.47,1.47s-1.47-.66-1.47-1.47.66-1.47,1.47-1.47,1.47.66,1.47,1.47Z"/>
  <path d="M170,51.85c0,.54-.44.97-.97.97s-.98-.44-.98-.97.44-.98.98-.98.97.44.97.98Z"/>
  <path d="M164.16,62.71c0,.45-.37.82-.82.82s-.82-.37-.82-.82.37-.82.82-.82.82.37.82.82Z"/>
  <circle cx="175.04" cy="94.3" r=".76"/>
  <path d="M207.71,39.21c0,.41-.33.75-.75.75s-.74-.33-.74-.75.33-.75.74-.75.75.33.75.75Z"/>
  <path d="M183.98,102.41c0,.45-.37.82-.82.82s-.82-.37-.82-.82.37-.82.82-.82.82.37.82.82Z"/>
  <path d="M130.95,97.89c0,.64-.52,1.16-1.16,1.16s-1.16-.52-1.16-1.16.52-1.16,1.16-1.16,1.16.52,1.16,1.16Z"/>
  <path d="M111.06,107.78c0,.33-.27.59-.59.59s-.59-.27-.59-.59.27-.59.59-.59.59.27.59.59Z"/>
  <circle cx="175.79" cy="118.51" r=".47"/>
  <path d="M44.53,128.53c0,.57-.46,1.03-1.03,1.03s-1.03-.46-1.03-1.03.46-1.03,1.03-1.03,1.03.46,1.03,1.03Z"/>
  <path d="M162.5,59.32c0,.3-.25.55-.55.55s-.55-.25-.55-.55.25-.55.55-.55.55.25.55.55Z"/>
  <path d="M163.49,113.8c0,.54-.44.98-.98.98s-.98-.44-.98-.98.44-.98.98-.98.98.44.98.98Z"/>
  <path d="M182.84,35.45c0,.71-.58,1.29-1.3,1.29s-1.3-.58-1.3-1.29.58-1.3,1.3-1.3,1.3.58,1.3,1.3Z"/>
  <path d="M116.24,95.11c0,.54-.44.98-.98.98s-.99-.44-.99-.98.44-.99.99-.99.98.44.98.99Z"/>
  <path d="M69.59,138.63c0,.71-.58,1.29-1.29,1.29s-1.29-.57-1.29-1.29.58-1.29,1.29-1.29,1.29.58,1.29,1.29Z"/>
  <path d="M188.01,79.99c0,.47-.38.84-.84.84s-.85-.38-.85-.84.38-.85.85-.85.84.38.84.85Z"/>
  <path d="M202.73,136.18c0,.27-.22.49-.49.49s-.49-.22-.49-.49.22-.49.49-.49.49.22.49.49Z"/>
  <path d="M220.96,15.91c0,.53-.43.96-.96.96s-.96-.43-.96-.96.43-.95.96-.95.96.43.96.95Z"/>
  <path d="M127.05,209.87c0,.35-.28.63-.63.63s-.63-.28-.63-.63.28-.63.63-.63.63.28.63.63Z"/>
  <path d="M113.87,46.55c0,.5-.41.91-.91.91s-.91-.41-.91-.91.41-.91.91-.91.91.41.91.91Z"/>
  <path d="M140.18,130.67c0,.67-.55,1.22-1.22,1.22s-1.22-.55-1.22-1.22.54-1.22,1.22-1.22,1.22.55,1.22,1.22Z"/>
  <path d="M57.82,174.09c0,.42-.34.75-.75.75s-.75-.34-.75-.75.34-.75.75-.75.75.34.75.75Z"/>
  <path d="M90.67,89.35c0,.56-.45,1.01-1.01,1.01s-1.01-.45-1.01-1.01.45-1.01,1.01-1.01,1.01.45,1.01,1.01Z"/>
  <path d="M64.69,116.01c0,.99-.8,1.79-1.79,1.79s-1.79-.8-1.79-1.79.8-1.79,1.79-1.79,1.79.8,1.79,1.79Z"/>
  <path d="M122.27,79.6c0,.35-.29.64-.63.64s-.63-.29-.63-.64.28-.63.63-.63.63.29.63.63Z"/>
  <path d="M99.53,78.94c0,.24-.2.44-.44.44s-.44-.2-.44-.44.2-.44.44-.44.44.2.44.44Z"/>
  <path d="M97.71,180.78c0,.47-.38.86-.86.86s-.86-.38-.86-.86.38-.85.86-.85.86.38.86.85Z"/>
  <path d="M107.95,148.88c0,.37-.3.67-.67.67s-.67-.3-.67-.67.3-.67.67-.67.67.3.67.67Z"/>
  <path d="M149.14,57.07c0,.58-.47,1.05-1.05,1.05s-1.05-.47-1.05-1.05.47-1.05,1.05-1.05,1.05.47,1.05,1.05Z"/>
  <path d="M145.94,66.16c0,.68-.55,1.23-1.23,1.23s-1.22-.55-1.22-1.23.55-1.22,1.22-1.22,1.23.55,1.23,1.22Z"/>
  <path d="M267.42,172.35c0,.73-.59,1.31-1.31,1.31s-1.31-.59-1.31-1.31.59-1.31,1.31-1.31,1.31.59,1.31,1.31Z"/>
  <path d="M146.27,26.48c0,.25-.2.45-.45.45s-.45-.2-.45-.45.2-.45.45-.45.45.2.45.45Z"/>
  <path d="M238.27,110.2c0,.32-.26.57-.57.57s-.57-.26-.57-.57.26-.57.57-.57.57.26.57.57Z"/>
  <path d="M192.38,96.9c0,.41-.33.74-.74.74s-.74-.33-.74-.74.33-.74.74-.74.74.33.74.74Z"/>
  <path d="M108.11,150.07c0,.52-.42.94-.94.94s-.94-.42-.94-.94.42-.94.94-.94.94.42.94.94Z"/>
  <path d="M180.73,105.8c0,.58-.46,1.04-1.04,1.04s-1.04-.47-1.04-1.04.47-1.04,1.04-1.04,1.04.47,1.04,1.04Z"/>
  <path d="M164.1,156.73c0,.29-.23.52-.52.52s-.52-.23-.52-.52.24-.52.52-.52.52.23.52.52Z"/>
  <path d="M128.26,82.25c0,.6-.49,1.09-1.1,1.09s-1.09-.49-1.09-1.09.49-1.1,1.09-1.1,1.1.49,1.1,1.1Z"/>
  <path d="M144.96,63.32c0,.56-.45,1.01-1.02,1.01s-1.01-.45-1.01-1.01.45-1.01,1.01-1.01,1.02.45,1.02,1.01Z"/>
  <path d="M192.67,106.48c0,.6-.49,1.09-1.09,1.09s-1.09-.49-1.09-1.09.49-1.09,1.09-1.09,1.09.49,1.09,1.09Z"/>
  <path d="M210.42,104.5c0,.47-.38.85-.85.85s-.85-.38-.85-.85.38-.85.85-.85.85.38.85.85Z"/>
  <path d="M120.69,167.72c0,.25-.21.46-.46.46s-.46-.21-.46-.46.21-.46.46-.46.46.21.46.46Z"/>
  <path d="M135.52,107.19c0,.5-.4.9-.9.9s-.91-.41-.91-.9.41-.9.91-.9.9.41.9.9Z"/>
  <path d="M223.51,85.87c0,.43-.35.79-.79.79s-.79-.35-.79-.79.35-.79.79-.79.79.35.79.79Z"/>
  <path d="M126.69,4.46c0,.89-.72,1.61-1.62,1.61s-1.62-.72-1.62-1.61.72-1.61,1.62-1.61,1.62.72,1.62,1.61Z"/>
  <path d="M176.36,46.97c0,.54-.44.99-.99.99s-.99-.44-.99-.99.44-.99.99-.99.99.44.99.99Z"/>
  <path d="M185.68.96c0,.53-.43.96-.96.96s-.96-.43-.96-.96.43-.96.96-.96.96.43.96.96Z"/>
  <path d="M311.33,125.15c0,.36-.29.65-.65.65s-.65-.29-.65-.65.29-.65.65-.65.65.29.65.65Z"/>
  <path d="M128.37,87.42c0,.29-.24.52-.52.52s-.52-.23-.52-.52.23-.52.52-.52.52.23.52.52Z"/>
  <path d="M155.92,132.58c0,.22-.18.4-.4.4s-.4-.18-.4-.4.18-.4.4-.4.4.18.4.4Z"/>
  <path d="M160.81,150.25c0,.43-.35.78-.78.78s-.78-.35-.78-.78.35-.78.78-.78.78.35.78.78Z"/>
  <path d="M223.26,137.57c0,.52-.42.94-.94.94s-.94-.42-.94-.94.42-.94.94-.94.94.42.94.94Z"/>
  <path d="M144.73,121.76c0,.67-.54,1.21-1.21,1.21s-1.21-.54-1.21-1.21.54-1.21,1.21-1.21,1.21.54,1.21,1.21Z"/>
  <path d="M129.73,50.84c0,.23-.19.42-.42.42s-.42-.19-.42-.42.19-.42.42-.42.42.19.42.42Z"/>
  <path d="M238.97,126.57c0,.31-.25.55-.55.55s-.55-.25-.55-.55.25-.56.55-.56.55.25.55.56Z"/>
  <path d="M185.61,89.11c0,.45-.37.82-.82.82s-.82-.37-.82-.82.37-.82.82-.82.82.37.82.82Z"/>
  <path d="M158.8,116.07c0,.5-.4.9-.9.9s-.9-.4-.9-.9.4-.9.9-.9.9.4.9.9Z"/>
  <path d="M221.06,175.26c0,1.12-.91,2.03-2.03,2.03s-2.03-.91-2.03-2.03.91-2.03,2.03-2.03,2.03.91,2.03,2.03Z"/>
  <path d="M240.52,127.7c0,.42-.34.76-.76.76s-.76-.34-.76-.76.34-.76.76-.76.76.34.76.76Z"/>
  <path d="M156.09,112.2c0,.59-.48,1.06-1.06,1.06s-1.06-.47-1.06-1.06.47-1.06,1.06-1.06,1.06.48,1.06,1.06Z"/>
  <path d="M182.97,86.5c0,.44-.35.79-.79.79s-.79-.36-.79-.79.35-.79.79-.79.79.36.79.79Z"/>
  <path d="M151.03,135.8c0,.7-.57,1.27-1.27,1.27s-1.27-.57-1.27-1.27.57-1.27,1.27-1.27,1.27.57,1.27,1.27Z"/>
  <path d="M157.74,135.18c0,.49-.4.89-.89.89s-.9-.4-.9-.89.4-.9.9-.9.89.4.89.9Z"/>
  <path d="M236.91,199.14c0,.32-.26.58-.58.58s-.58-.26-.58-.58.26-.58.58-.58.58.26.58.58Z"/>
  <path d="M179.22,50.46c0,.67-.54,1.21-1.21,1.21s-1.21-.54-1.21-1.21.54-1.21,1.21-1.21,1.21.54,1.21,1.21Z"/>
  <path d="M236.93,100.49c0,.53-.43.96-.96.96s-.96-.43-.96-.96.43-.96.96-.96.96.43.96.96Z"/>
  <path d="M246.66,34.19c0,.41-.34.75-.75.75s-.75-.34-.75-.75.34-.75.75-.75.75.34.75.75Z"/>
  <path d="M180.84,186.38c0,.24-.19.43-.44.43s-.44-.19-.44-.43.19-.43.44-.43.44.19.44.43Z"/>
  <path d="M183.74,213.64c0,.36-.29.65-.65.65s-.65-.29-.65-.65.29-.65.65-.65.65.29.65.65Z"/>
  <path d="M121.33,125.31c0,.4-.32.71-.72.71s-.71-.32-.71-.71.32-.72.71-.72.72.32.72.72Z"/>
  <path d="M188.63,134.84c0,.21-.17.39-.39.39s-.39-.17-.39-.39.17-.39.39-.39.39.17.39.39Z"/>
  <path d="M100.69,92.2c0,.47-.38.86-.86.86s-.86-.38-.86-.86.38-.86.86-.86.86.38.86.86Z"/>
  <path d="M239.68,36.54c0,.41-.33.75-.75.75s-.75-.33-.75-.75.33-.75.75-.75.75.33.75.75Z"/>
  <path d="M250.28,219.7c0,.28-.23.51-.51.51s-.51-.23-.51-.51.23-.51.51-.51.51.23.51.51Z"/>
  <path d="M251.47,167.9c0,.33-.27.59-.59.59s-.59-.27-.59-.59.26-.59.59-.59.59.27.59.59Z"/>
  <path d="M175.22,162.62c0,.52-.43.95-.95.95s-.95-.42-.95-.95.42-.95.95-.95.95.42.95.95Z"/>
  <path d="M216.57,39.81c0,.52-.42.94-.94.94s-.94-.42-.94-.94.42-.94.94-.94.94.42.94.94Z"/>
  <path d="M254.98,46.42c0,.79-.64,1.44-1.44,1.44s-1.44-.64-1.44-1.44.65-1.44,1.44-1.44,1.44.64,1.44,1.44Z"/>
  <path d="M254.66,118.42c0,.38-.31.7-.7.7s-.7-.31-.7-.7.31-.7.7-.7.7.31.7.7Z"/>
  <path d="M227.24,93.71c0,.64-.52,1.16-1.16,1.16s-1.16-.52-1.16-1.16.52-1.16,1.16-1.16,1.16.52,1.16,1.16Z"/>
  <path d="M263.12,147.78c0,.52-.42.94-.94.94s-.94-.42-.94-.94.42-.94.94-.94.94.42.94.94Z"/>
  <path d="M128.2,174.14c0,.96-.78,1.73-1.73,1.73s-1.73-.78-1.73-1.73.78-1.73,1.73-1.73,1.73.78,1.73,1.73Z"/>
  <path d="M185.64,97.99c0,.83-.67,1.5-1.5,1.5s-1.5-.67-1.5-1.5.67-1.5,1.5-1.5,1.5.67,1.5,1.5Z"/>
  <path d="M150.3,131.14c0,.43-.35.77-.77.77s-.77-.35-.77-.77.35-.77.77-.77.77.35.77.77Z"/>
  <path d="M87,87.53c0,.64-.52,1.17-1.17,1.17s-1.17-.52-1.17-1.17.52-1.17,1.17-1.17,1.17.52,1.17,1.17Z"/>
  <path d="M248.55,170.6c0,.52-.42.94-.94.94s-.95-.42-.95-.94.42-.95.95-.95.94.42.94.95Z"/>
  <path d="M160.27,168.06c0,.35-.28.63-.63.63s-.63-.28-.63-.63.28-.63.63-.63.63.28.63.63Z"/>
  <path d="M163.64,118.84c0,.93-.75,1.69-1.69,1.69s-1.69-.76-1.69-1.69.76-1.69,1.69-1.69,1.69.76,1.69,1.69Z"/>
  <path d="M116.97,174.19c0,.39-.31.7-.7.7s-.7-.31-.7-.7.31-.7.7-.7.7.32.7.7Z"/>
  <path d="M188.2,131.62c0,.4-.33.73-.73.73s-.73-.33-.73-.73.33-.73.73-.73.73.33.73.73Z"/>
  <path d="M191.27,156.89c0,.46-.37.83-.83.83s-.83-.37-.83-.83.37-.83.83-.83.83.37.83.83Z"/>
  <path d="M242.79,204.49c0,.59-.48,1.07-1.07,1.07s-1.07-.48-1.07-1.07.48-1.07,1.07-1.07,1.07.48,1.07,1.07Z"/>
  <path d="M243.65,106.78c0,.77-.63,1.4-1.4,1.4s-1.4-.63-1.4-1.4.62-1.41,1.4-1.41,1.4.63,1.4,1.41Z"/>
  <path d="M201.55,106.53c0,.93-.75,1.68-1.68,1.68s-1.68-.75-1.68-1.68.75-1.68,1.68-1.68,1.68.75,1.68,1.68Z"/>
  <path d="M168.11,80.05c0,.42-.34.75-.75.75s-.75-.34-.75-.75.34-.75.75-.75.75.34.75.75Z"/>
  <path d="M170.93,143.57c0,.32-.25.57-.57.57s-.57-.26-.57-.57.26-.57.57-.57.57.25.57.57Z"/>
  <path d="M100.84,162.8c0,.56-.46,1.02-1.02,1.02s-1.02-.46-1.02-1.02.46-1.02,1.02-1.02,1.02.46,1.02,1.02Z"/>
  <path d="M137.58,82.98c0,.3-.25.55-.55.55s-.55-.25-.55-.55.25-.55.55-.55.55.25.55.55Z"/>
  <path d="M130.59,140.77c0,.68-.55,1.23-1.23,1.23s-1.23-.55-1.23-1.23.55-1.24,1.23-1.24,1.23.55,1.23,1.24Z"/>
  <path d="M98.49,150.7c0,.6-.48,1.08-1.08,1.08s-1.08-.48-1.08-1.08.48-1.08,1.08-1.08,1.08.48,1.08,1.08Z"/>
  <path d="M178.66,109.15c0,.41-.33.75-.75.75s-.75-.34-.75-.75.34-.75.75-.75.75.33.75.75Z"/>
  <path d="M180.96,153.75c0,.87-.7,1.57-1.56,1.57s-1.57-.7-1.57-1.57.7-1.57,1.57-1.57,1.56.7,1.56,1.57Z"/>
  <path d="M182.57,112.38c0,.67-.54,1.21-1.2,1.21s-1.21-.54-1.21-1.21.54-1.21,1.21-1.21,1.2.54,1.2,1.21Z"/>
  <path d="M175.89,159.45c0,.52-.42.94-.94.94s-.93-.42-.93-.94.42-.94.93-.94.94.42.94.94Z"/>
  <path d="M196.47,117.41c0,.52-.42.94-.94.94s-.94-.42-.94-.94.42-.94.94-.94.94.42.94.94Z"/>
  <path d="M272.15,157.99c0,.56-.46,1.02-1.02,1.02s-1.02-.46-1.02-1.02.46-1.02,1.02-1.02,1.02.46,1.02,1.02Z"/>
  <path d="M238.34,76.51c0,.45-.36.82-.82.82s-.81-.37-.81-.82.36-.82.81-.82.82.37.82.82Z"/>
  <path d="M152.98,45.5c0,.34-.27.61-.61.61s-.61-.27-.61-.61.27-.61.61-.61.61.28.61.61Z"/>
  <path d="M194.08,134.87c0,.35-.28.62-.62.62s-.63-.28-.63-.62.28-.63.63-.63.62.28.62.63Z"/>
  <path d="M101.5,81.55c0,.74-.6,1.34-1.34,1.34s-1.34-.6-1.34-1.34.6-1.34,1.34-1.34,1.34.6,1.34,1.34Z"/>
  <path d="M210.89,278.74c0,.85-.69,1.54-1.54,1.54s-1.54-.69-1.54-1.54.69-1.54,1.54-1.54,1.54.69,1.54,1.54Z"/>
  <path d="M146.44,160.28c0,.39-.32.7-.7.7s-.7-.31-.7-.7.31-.7.7-.7.7.31.7.7Z"/>
  <path d="M163.72,159.8c0,.41-.33.74-.74.74s-.74-.33-.74-.74.33-.74.74-.74.74.33.74.74Z"/>
  <path d="M184.43,174.18c0,.22-.18.41-.41.41s-.4-.18-.4-.41.18-.4.4-.4.41.18.41.4Z"/>
  <path d="M146.58,132.46c0,.26-.21.47-.47.47s-.47-.21-.47-.47.21-.47.47-.47.47.21.47.47Z"/>
  <path d="M151.54,225.54c0,.35-.28.63-.63.63s-.63-.28-.63-.63.28-.63.63-.63.63.28.63.63Z"/>
  <path d="M205.6,123.23c0,.42-.34.76-.76.76s-.76-.34-.76-.76.34-.76.76-.76.76.34.76.76Z"/>
  <path d="M123.63,211.6c0,.34-.27.61-.61.61s-.61-.27-.61-.61.27-.61.61-.61.61.27.61.61Z"/>
  <path d="M220.4,132.91c0,.77-.62,1.39-1.39,1.39s-1.39-.62-1.39-1.39.62-1.39,1.39-1.39,1.39.62,1.39,1.39Z"/>
  <path d="M251.6,232.06c0,.45-.36.81-.81.81s-.81-.36-.81-.81.36-.81.81-.81.81.36.81.81Z"/>
  <path d="M128.75,151.98c0,.29-.24.53-.53.53s-.53-.24-.53-.53.24-.53.53-.53.53.24.53.53Z"/>
  <path d="M128.74,187.65c0,.88-.71,1.59-1.6,1.59s-1.6-.71-1.6-1.59.72-1.6,1.6-1.6,1.6.71,1.6,1.6Z"/>
  <path d="M147.1,106.85c0,.23-.18.41-.41.41s-.41-.18-.41-.41.19-.41.41-.41.41.18.41.41Z"/>
  <path d="M188.09,180.64c0,.39-.32.71-.71.71s-.71-.32-.71-.71.32-.71.71-.71.71.32.71.71Z"/>
  <path d="M230.1,232.11c0,.55-.45,1-1,1s-1-.45-1-1,.45-.99,1-.99,1,.45,1,.99Z"/>
  <path d="M162.3,182.27c0,.57-.47,1.04-1.04,1.04s-1.04-.47-1.04-1.04.47-1.04,1.04-1.04,1.04.47,1.04,1.04Z"/>
  <path d="M163.34,129.07c0,.53-.43.96-.96.96s-.96-.43-.96-.96.43-.96.96-.96.96.43.96.96Z"/>
  <path d="M214.48,192.48c0,.52-.42.94-.94.94s-.94-.42-.94-.94.42-.94.94-.94.94.42.94.94Z"/>
  <path d="M194.12,169.71c0,.55-.44.99-.99.99s-.99-.44-.99-.99.44-.99.99-.99.99.44.99.99Z"/>
  <path d="M221.79,82.63c0,.54-.44.98-.98.98s-.98-.44-.98-.98.44-.98.98-.98.98.44.98.98Z"/>
  <path d="M184.96,128.72c0,.52-.42.94-.94.94s-.94-.42-.94-.94.42-.95.94-.95.94.42.94.95Z"/>
  <path d="M175.15,121.37c0,.7-.57,1.27-1.27,1.27s-1.27-.57-1.27-1.27.57-1.27,1.27-1.27,1.27.57,1.27,1.27Z"/>
  <path d="M114.49,161.85c0,.3-.25.55-.55.55s-.55-.25-.55-.55.25-.55.55-.55.55.25.55.55Z"/>
  <path d="M214.28,194.25c0,.83-.67,1.5-1.5,1.5s-1.5-.67-1.5-1.5.67-1.5,1.5-1.5,1.5.67,1.5,1.5Z"/>
  <path d="M278.62,192.2c0,.35-.29.64-.64.64s-.64-.29-.64-.64.29-.64.64-.64.64.29.64.64Z"/>
  <path d="M204.37,225.25c0,.43-.35.78-.78.78s-.78-.35-.78-.78.35-.78.78-.78.78.35.78.78Z"/>
  <path d="M230.5,216.43c0,.31-.25.56-.56.56s-.56-.25-.56-.56.25-.56.56-.56.56.25.56.56Z"/>
  <path d="M227.35,131.77c0,.71-.57,1.28-1.28,1.28s-1.29-.57-1.29-1.28.58-1.29,1.29-1.29,1.28.58,1.28,1.29Z"/>
  <path d="M141.4,226.95c0,.88-.72,1.59-1.59,1.59s-1.59-.71-1.59-1.59.71-1.59,1.59-1.59,1.59.71,1.59,1.59Z"/>
  <path d="M173.66,256.93c0,.5-.4.91-.9.91s-.91-.41-.91-.91.41-.9.91-.9.9.4.9.9Z"/>
  <path d="M186.76,220.4c0,.45-.36.81-.81.81s-.81-.36-.81-.81.36-.81.81-.81.81.36.81.81Z"/>
  <path d="M226.62,37.09c0,.58-.47,1.05-1.05,1.05s-1.05-.47-1.05-1.05.47-1.05,1.05-1.05,1.05.47,1.05,1.05Z"/>
  <path d="M217.44,133.85c0,.3-.24.54-.54.54s-.55-.24-.55-.54.25-.54.55-.54.54.24.54.54Z"/>
  <path d="M144.06,224.97c0,.39-.31.7-.71.7s-.71-.31-.71-.7.32-.71.71-.71.71.32.71.71Z"/>
  <path d="M212.56,159.28c0,.49-.4.89-.89.89s-.89-.4-.89-.89.4-.89.89-.89.89.4.89.89Z"/>
  <path d="M229.69,211.07c0,.74-.6,1.35-1.35,1.35s-1.35-.6-1.35-1.35.6-1.35,1.35-1.35,1.35.6,1.35,1.35Z"/>
  <path d="M181.71,137.51c0,.86-.7,1.56-1.56,1.56s-1.56-.7-1.56-1.56.7-1.55,1.56-1.55,1.56.69,1.56,1.55Z"/>
  <path d="M236.44,214.45c0,.32-.26.58-.58.58s-.58-.26-.58-.58.26-.58.58-.58.58.26.58.58Z"/>
  <path d="M240.2,219.9c0,.61-.49,1.1-1.1,1.1s-1.1-.49-1.1-1.1.49-1.1,1.1-1.1,1.1.49,1.1,1.1Z"/>
  <path d="M221.15,171.43c0,.35-.29.64-.64.64s-.64-.29-.64-.64.29-.64.64-.64.64.29.64.64Z"/>
  <path d="M195.18,197.68c0,.6-.49,1.09-1.09,1.09s-1.09-.49-1.09-1.09.49-1.09,1.09-1.09,1.09.49,1.09,1.09Z"/>
  <path d="M203.82,147.86c0,.42-.34.76-.76.76s-.76-.34-.76-.76.34-.76.76-.76.76.34.76.76Z"/>
  <path d="M119.44,211.04c0,.28-.23.51-.51.51s-.51-.23-.51-.51.23-.51.51-.51.51.23.51.51Z"/>
  <path d="M278.25,147.35c0,.54-.43.97-.97.97s-.97-.44-.97-.97.43-.97.97-.97.97.43.97.97Z"/>
  <path d="M213.56,155.81c0,.27-.22.49-.5.49s-.5-.22-.5-.49.22-.5.5-.5.5.22.5.5Z"/>
  <path d="M162.89,155.81c0,.78-.63,1.41-1.41,1.41s-1.41-.63-1.41-1.41.63-1.41,1.41-1.41,1.41.63,1.41,1.41Z"/>
  <path d="M141.89,151.61c0,.45-.36.81-.81.81s-.81-.36-.81-.81.36-.81.81-.81.81.36.81.81Z"/>
  <path d="M197.55,143.16c0,.62-.5,1.13-1.13,1.13s-1.13-.51-1.13-1.13.51-1.13,1.13-1.13,1.13.51,1.13,1.13Z"/>
  <path d="M167.68,120.61c0,.89-.72,1.62-1.62,1.62s-1.62-.72-1.62-1.62.72-1.62,1.62-1.62,1.62.72,1.62,1.62Z"/>
  <path d="M172.57,131.27c0,.63-.5,1.13-1.13,1.13s-1.13-.5-1.13-1.13.51-1.13,1.13-1.13,1.13.51,1.13,1.13Z"/>
  <path d="M175.8,139.56c0,.32-.26.59-.59.59s-.59-.26-.59-.59.26-.59.59-.59.59.26.59.59Z"/>
  <path d="M78.18,138.75c0,.87-.71,1.58-1.58,1.58s-1.58-.71-1.58-1.58.71-1.58,1.58-1.58,1.58.71,1.58,1.58Z"/>
  <path d="M174.07,171c0,.74-.6,1.34-1.34,1.34s-1.34-.6-1.34-1.34.6-1.34,1.34-1.34,1.34.6,1.34,1.34Z"/>
  <path d="M216.7,222.36c0,.27-.22.49-.49.49s-.49-.22-.49-.49.22-.49.49-.49.49.22.49.49Z"/>
  <path d="M124.29,132.88c0,.7-.56,1.26-1.26,1.26s-1.26-.56-1.26-1.26.56-1.26,1.26-1.26,1.26.57,1.26,1.26Z"/>
  <path d="M189.4,242.08c0,.85-.69,1.53-1.53,1.53s-1.53-.69-1.53-1.53.69-1.53,1.53-1.53,1.53.69,1.53,1.53Z"/>
  <path d="M163.16,126.95c0,.45-.36.81-.81.81s-.81-.36-.81-.81.36-.81.81-.81.81.36.81.81Z"/>
  <path d="M196.6,206.75c0,.73-.59,1.32-1.33,1.32s-1.32-.59-1.32-1.32.59-1.33,1.32-1.33,1.33.59,1.33,1.33Z"/>
  <path d="M164.86,199.39c0,.45-.36.81-.81.81s-.81-.36-.81-.81.36-.81.81-.81.81.36.81.81Z"/>
  <path d="M238.07,108.34c0,.25-.2.45-.45.45s-.45-.2-.45-.45.2-.45.45-.45.45.2.45.45Z"/>
  <path d="M85.85,241.91c0,.33-.27.6-.6.6s-.6-.27-.6-.6.27-.6.6-.6.6.27.6.6Z"/>
  <path d="M235.46,53.06c0,.31-.25.56-.56.56s-.56-.25-.56-.56.25-.56.56-.56.56.25.56.56Z"/>
  <path d="M201.01,195.98c0,.48-.39.86-.87.86s-.87-.39-.87-.86.39-.87.87-.87.87.39.87.87Z"/>
  <path d="M248.55,185.68c0,.49-.4.89-.89.89s-.89-.4-.89-.89.4-.89.89-.89.89.4.89.89Z"/>
  <path d="M229.66,206.48c0,.54-.43.97-.97.97s-.97-.43-.97-.97.44-.97.97-.97.97.44.97.97Z"/>
  <path d="M159.16,138.74c0,.81-.65,1.46-1.46,1.46s-1.46-.66-1.46-1.46.66-1.46,1.46-1.46,1.46.65,1.46,1.46Z"/>
  <path d="M209.92,204.09c0,.93-.75,1.67-1.67,1.67s-1.67-.75-1.67-1.67.75-1.67,1.67-1.67,1.67.75,1.67,1.67Z"/>
  <path d="M194.1,278.13c0,.45-.37.82-.82.82s-.82-.37-.82-.82.37-.82.82-.82.82.37.82.82Z"/>
  <path d="M173.22,169.27c0,.36-.29.66-.66.66s-.66-.29-.66-.66.3-.66.66-.66.66.29.66.66Z"/>
  <path d="M204.75,106.61c0,.94-.76,1.71-1.71,1.71s-1.71-.77-1.71-1.71.76-1.71,1.71-1.71,1.71.76,1.71,1.71Z"/>
  <path d="M121.51,141.3c0,.76-.62,1.39-1.39,1.39s-1.39-.62-1.39-1.39.62-1.39,1.39-1.39,1.39.62,1.39,1.39Z"/>
  <path d="M131.37,193.2c0,.46-.37.83-.83.83s-.82-.37-.82-.83.37-.82.82-.82.83.37.83.82Z"/>
  <path d="M154.44,205.74c0,.26-.21.47-.47.47s-.47-.21-.47-.47.21-.47.47-.47.47.21.47.47Z"/>
  <path d="M195.39,234.84c0,.64-.52,1.17-1.17,1.17s-1.17-.53-1.17-1.17.52-1.17,1.17-1.17,1.17.52,1.17,1.17Z"/>
  <path d="M197.55,174.7c0,.65-.53,1.18-1.17,1.18s-1.18-.53-1.18-1.18.52-1.17,1.18-1.17,1.17.53,1.17,1.17Z"/>
  <path d="M208.42,238.45c0,.26-.21.46-.46.46s-.46-.21-.46-.46.21-.46.46-.46.46.21.46.46Z"/>
  <path d="M111.95,225.42c0,.52-.42.94-.94.94s-.94-.42-.94-.94.42-.94.94-.94.94.42.94.94Z"/>
  <path d="M217.89,182.63c0,.48-.38.86-.86.86s-.86-.39-.86-.86.39-.86.86-.86.86.38.86.86Z"/>
  <path d="M230.71,35.19c0,.52-.42.94-.93.94s-.93-.42-.93-.94.42-.93.93-.93.93.42.93.93Z"/>
  <path d="M195.68,176.79c0,.89-.72,1.61-1.61,1.61s-1.61-.72-1.61-1.61.72-1.61,1.61-1.61,1.61.72,1.61,1.61Z"/>
  <path d="M166.1,200.41c0,.61-.5,1.11-1.11,1.11s-1.11-.5-1.11-1.11.5-1.11,1.11-1.11,1.11.5,1.11,1.11Z"/>
  <path d="M118.71,199.49c0,.3-.24.54-.54.54s-.54-.24-.54-.54.24-.54.54-.54.54.24.54.54Z"/>
  <circle cx="235.71" cy="179.87" r=".67"/>
  <path d="M146.74,94.54c0,.32-.26.58-.58.58s-.58-.26-.58-.58.26-.58.58-.58.58.26.58.58Z"/>
  <path d="M72.91,90.66c0,.36-.29.65-.65.65s-.65-.29-.65-.65.29-.65.65-.65.65.29.65.65Z"/>
  <path d="M136.92,57.47c0,.53-.43.96-.96.96s-.96-.43-.96-.96.43-.96.96-.96.96.43.96.96Z"/>
  <path d="M201.44,140.77c0,.3-.24.54-.54.54s-.54-.24-.54-.54.24-.54.54-.54.54.24.54.54Z"/>
  <path d="M184.53,42.35c0,.52-.42.93-.93.93s-.94-.42-.94-.93.42-.93.94-.93.93.42.93.93Z"/>
  <path d="M185.21,89.49c0,.8-.65,1.45-1.45,1.45s-1.45-.65-1.45-1.45.65-1.45,1.45-1.45,1.45.65,1.45,1.45Z"/>
  <path d="M243.24,187.17c0,.85-.69,1.54-1.54,1.54s-1.54-.69-1.54-1.54.69-1.54,1.54-1.54,1.54.69,1.54,1.54Z"/>
  <path d="M190.11,180.06c0,.43-.35.78-.78.78s-.78-.35-.78-.78.35-.78.78-.78.78.35.78.78Z"/>
  <path d="M154.01,156.67c0,.53-.42.95-.95.95s-.95-.43-.95-.95.42-.95.95-.95.95.43.95.95Z"/>
  <path d="M244.76,139.49c0,.45-.37.82-.82.82s-.82-.37-.82-.82.36-.82.82-.82.82.37.82.82Z"/>
  <path d="M124.32,49.43c0,.3-.24.54-.54.54s-.54-.24-.54-.54.25-.54.54-.54.54.24.54.54Z"/>
  <path d="M139.95,154.45c0,.52-.42.95-.95.95s-.95-.42-.95-.95.42-.95.95-.95.95.42.95.95Z"/>
  <path d="M165.85,109.75c0,.45-.36.8-.81.8s-.8-.36-.8-.8.36-.81.8-.81.81.36.81.81Z"/>
  <path d="M161.5,95.17c0,.7-.57,1.27-1.27,1.27s-1.27-.57-1.27-1.27.57-1.27,1.27-1.27,1.27.57,1.27,1.27Z"/>
  <path d="M249.55,53.1c0,.23-.19.41-.41.41s-.42-.19-.42-.41.19-.42.42-.42.41.19.41.42Z"/>
  <path d="M252.91,20.97c0,.25-.2.46-.46.46s-.46-.21-.46-.46.2-.46.46-.46.46.21.46.46Z"/>
  <path d="M264.98,142.05c0,.18-.15.33-.33.33s-.33-.15-.33-.33.15-.33.33-.33.33.15.33.33Z"/>
  <path d="M173.08,73.84c0,.37-.3.68-.67.68s-.68-.3-.68-.68.3-.68.68-.68.67.3.67.68Z"/>
  <path d="M209.33,106.97c0,.56-.46,1.02-1.02,1.02s-1.02-.46-1.02-1.02.46-1.02,1.02-1.02,1.02.46,1.02,1.02Z"/>
  <path d="M144.64,117.93c0,.62-.5,1.11-1.11,1.11s-1.11-.5-1.11-1.11.5-1.11,1.11-1.11,1.11.5,1.11,1.11Z"/>
  <path d="M163.13,249.6c0,.27-.22.49-.5.49s-.49-.22-.49-.49.22-.5.49-.5.5.22.5.5Z"/>
  <path d="M197.65,209.77c0,.45-.36.81-.81.81s-.81-.37-.81-.81.36-.81.81-.81.81.36.81.81Z"/>
  <path d="M176.57,92.05c0,.35-.28.63-.63.63s-.63-.28-.63-.63.28-.63.63-.63.63.28.63.63Z"/>
  <path d="M199.57,123.28c0,.38-.31.69-.69.69s-.69-.31-.69-.69.31-.69.69-.69.69.31.69.69Z"/>
  <path d="M176.25,209.56c0,.67-.54,1.21-1.21,1.21s-1.21-.54-1.21-1.21.54-1.21,1.21-1.21,1.21.54,1.21,1.21Z"/>
  <path d="M246.39,153.32c0,.42-.35.77-.77.77s-.77-.34-.77-.77.35-.77.77-.77.77.34.77.77Z"/>
  <path d="M115.92,124.53c0,.79-.63,1.42-1.42,1.42s-1.42-.64-1.42-1.42.64-1.42,1.42-1.42,1.42.64,1.42,1.42Z"/>
  <path d="M142.01,89.69c0,.64-.52,1.16-1.16,1.16s-1.16-.52-1.16-1.16.52-1.16,1.16-1.16,1.16.52,1.16,1.16Z"/>
  <path d="M262.12,175.63c0,.35-.29.63-.64.63s-.64-.29-.64-.63.29-.64.64-.64.64.29.64.64Z"/>
  <path d="M230.58,120.39c0,.23-.19.42-.42.42s-.42-.19-.42-.42.19-.41.42-.41.42.19.42.41Z"/>
  <path d="M258.25,81.63c0,.48-.39.87-.87.87s-.87-.39-.87-.87.39-.87.87-.87.87.39.87.87Z"/>
  <path d="M202.66,131.93c0,.32-.26.58-.58.58s-.58-.26-.58-.58.26-.58.58-.58.58.26.58.58Z"/>
  <path d="M275.99,212.23c0,.93-.75,1.68-1.68,1.68s-1.68-.75-1.68-1.68.75-1.68,1.68-1.68,1.68.75,1.68,1.68Z"/>
  <path d="M288.89,100.38c0,.47-.38.84-.84.84s-.84-.38-.84-.84.38-.84.84-.84.84.38.84.84Z"/>
  <path d="M167.42,93.58c0,.48-.39.86-.87.86s-.87-.39-.87-.86.39-.87.87-.87.87.39.87.87Z"/>
  <path d="M255.98,69.85c0,.57-.46,1.03-1.03,1.03s-1.03-.46-1.03-1.03.46-1.03,1.03-1.03,1.03.46,1.03,1.03Z"/>
  <path d="M270.56,97.35c0,.51-.41.92-.93.92s-.93-.41-.93-.92.42-.92.93-.92.93.41.93.92Z"/>
  <path d="M156.89,53.82c0,.56-.45,1.02-1.02,1.02s-1.02-.45-1.02-1.02.46-1.02,1.02-1.02,1.02.45,1.02,1.02Z"/>
  <path d="M230.66,136.94c0,.69-.55,1.24-1.24,1.24s-1.24-.55-1.24-1.24.55-1.24,1.24-1.24,1.24.55,1.24,1.24Z"/>
  <path d="M191.35,29.34c0,.28-.23.51-.51.51s-.51-.23-.51-.51.23-.51.51-.51.51.23.51.51Z"/>
  <path d="M266.34,161.16c0,.38-.3.68-.68.68s-.68-.3-.68-.68.31-.68.68-.68.68.3.68.68Z"/>
  <path d="M230.65,169.22c0,.43-.35.78-.78.78s-.78-.35-.78-.78.35-.78.78-.78.78.35.78.78Z"/>
  <path d="M247.77,111.85c0,.42-.34.77-.77.77s-.77-.34-.77-.77.34-.77.77-.77.77.34.77.77Z"/>
  <path d="M175.92,210.77c0,.33-.27.6-.6.6s-.6-.27-.6-.6.27-.6.6-.6.6.27.6.6Z"/>
  <path d="M208.32,133.05c0,.5-.41.91-.91.91s-.91-.41-.91-.91.41-.91.91-.91.91.41.91.91Z"/>
  <path d="M252.02,90.7c0,.65-.53,1.18-1.19,1.18s-1.18-.53-1.18-1.18.53-1.19,1.18-1.19,1.19.53,1.19,1.19Z"/>
  <path d="M203.29,121.01c0,.28-.23.51-.51.51s-.51-.23-.51-.51.23-.51.51-.51.51.23.51.51Z"/>
  <path d="M178.08,87.87c0,.34-.28.62-.62.62s-.62-.28-.62-.62.28-.62.62-.62.62.28.62.62Z"/>
  <path d="M230.32,148.36c0,1.13-.92,2.05-2.05,2.05s-2.05-.92-2.05-2.05.92-2.05,2.05-2.05,2.05.92,2.05,2.05Z"/>
  <path d="M230.15,177.54c0,.69-.56,1.25-1.26,1.25s-1.26-.56-1.26-1.25.56-1.26,1.26-1.26,1.26.56,1.26,1.26Z"/>
  <path d="M150.21,131.33c0,.57-.46,1.03-1.03,1.03s-1.03-.46-1.03-1.03.46-1.03,1.03-1.03,1.03.46,1.03,1.03Z"/>
  <path d="M215.81,130.92c0,.89-.72,1.62-1.62,1.62s-1.62-.73-1.62-1.62.73-1.62,1.62-1.62,1.62.72,1.62,1.62Z"/>
  <path d="M202.1,106.67c0,.61-.5,1.11-1.11,1.11s-1.11-.5-1.11-1.11.5-1.11,1.11-1.11,1.11.5,1.11,1.11Z"/>
  <path d="M262.4,185.41c0,.61-.49,1.1-1.1,1.1s-1.1-.49-1.1-1.1.49-1.1,1.1-1.1,1.1.49,1.1,1.1Z"/>
  <path d="M195.64,103.94c0,.61-.5,1.11-1.11,1.11s-1.11-.5-1.11-1.11.5-1.11,1.11-1.11,1.11.5,1.11,1.11Z"/>
  <path d="M243.01,86.62c0,.44-.35.79-.79.79s-.79-.36-.79-.79.35-.79.79-.79.79.35.79.79Z"/>
  <path d="M95.12,186.59c0,.52-.42.93-.93.93s-.94-.42-.94-.93.42-.93.94-.93.93.42.93.93Z"/>
  <path d="M214.04,183.96c0,.36-.3.66-.66.66s-.66-.3-.66-.66.29-.66.66-.66.66.29.66.66Z"/>
  <path d="M219.93,170.37c0,.27-.22.49-.49.49s-.49-.22-.49-.49.22-.49.49-.49.49.22.49.49Z"/>
  <path d="M89.9,279.07c0,.71-.58,1.29-1.29,1.29s-1.29-.58-1.29-1.29.58-1.29,1.29-1.29,1.29.58,1.29,1.29Z"/>
  <path d="M210.46,184.21c0,.62-.51,1.13-1.13,1.13s-1.13-.51-1.13-1.13.51-1.13,1.13-1.13,1.13.51,1.13,1.13Z"/>
  <path d="M107.28,220.81c0,.32-.26.58-.58.58s-.58-.26-.58-.58.26-.58.58-.58.58.26.58.58Z"/>
  <path d="M181,175.94c0,.31-.25.56-.56.56s-.56-.25-.56-.56.25-.56.56-.56.56.25.56.56Z"/>
  <path d="M137.74,206.04c0,.46-.38.84-.84.84s-.84-.38-.84-.84.38-.84.84-.84.84.38.84.84Z"/>
  <path d="M55.6,133.4c0,.32-.26.57-.57.57s-.57-.26-.57-.57.26-.57.57-.57.57.26.57.57Z"/>
  <path d="M115.18,159.31c0,.66-.54,1.2-1.2,1.2s-1.19-.54-1.19-1.2.53-1.19,1.19-1.19,1.2.54,1.2,1.19Z"/>
  <path d="M234,150.25c0,.77-.63,1.4-1.4,1.4s-1.4-.63-1.4-1.4.63-1.4,1.4-1.4,1.4.63,1.4,1.4Z"/>
  <path d="M217.13,146.39c0,.53-.43.96-.96.96s-.96-.43-.96-.96.43-.96.96-.96.96.43.96.96Z"/>
  <path d="M222.23,141.14c0,.75-.61,1.36-1.37,1.36s-1.37-.61-1.37-1.36.61-1.37,1.37-1.37,1.37.61,1.37,1.37Z"/>
  <path d="M122.21,119.18c0,.6-.48,1.08-1.08,1.08s-1.07-.48-1.07-1.08.48-1.07,1.07-1.07,1.08.48,1.08,1.07Z"/>
  <path d="M62.02,153.22c0,.45-.37.82-.82.82s-.82-.37-.82-.82.37-.82.82-.82.82.37.82.82Z"/>
  <path d="M130.3,104.25c0,.56-.45,1.01-1.01,1.01s-1.01-.46-1.01-1.01.45-1.01,1.01-1.01,1.01.45,1.01,1.01Z"/>
  <path d="M241.58,121.23c0,.39-.32.71-.71.71s-.71-.32-.71-.71.32-.71.71-.71.71.32.71.71Z"/>
  <path d="M201.54,136.03c0,.29-.23.52-.52.52s-.52-.23-.52-.52.23-.52.52-.52.52.23.52.52Z"/>
  <path d="M216.41,168.87c0,.39-.31.71-.7.71s-.7-.32-.7-.71.31-.7.7-.7.7.32.7.7Z"/>
  <path d="M172.86,141.8c0,.34-.28.61-.62.61s-.61-.28-.61-.61.27-.61.61-.61.62.27.62.61Z"/>
  <path d="M81.57,82.49c0,.53-.43.96-.96.96s-.96-.43-.96-.96.43-.96.96-.96.96.43.96.96Z"/>
  <path d="M104.68,163.55c0,.52-.42.95-.95.95s-.95-.42-.95-.95.42-.95.95-.95.95.42.95.95Z"/>
  <path d="M35.45,120.76c0,.51-.42.93-.93.93s-.93-.41-.93-.93.41-.93.93-.93.93.41.93.93Z"/>
  <path d="M80.43,136.83c0,.48-.39.87-.87.87s-.87-.39-.87-.87.39-.87.87-.87.87.39.87.87Z"/>
  <path d="M141.2,118.68c0,.24-.19.43-.43.43s-.43-.19-.43-.43.2-.44.43-.44.43.2.43.44Z"/>
  <path d="M215.41,69.37c0,.42-.34.77-.76.77s-.77-.34-.77-.77.34-.76.77-.76.76.34.76.76Z"/>
  <path d="M90.69,180.53c0,.22-.18.4-.4.4s-.4-.18-.4-.4.18-.4.4-.4.4.18.4.4Z"/>
  <path d="M147,117.39c0,.54-.44.99-.99.99s-.98-.44-.98-.99.44-.99.98-.99.99.44.99.99Z"/>
  <path d="M190.64,91.61c0,.44-.36.8-.8.8s-.8-.36-.8-.8.36-.8.8-.8.8.36.8.8Z"/>
  <path d="M169.09,54.02c0,1.2-.98,2.18-2.18,2.18s-2.18-.97-2.18-2.18.98-2.18,2.18-2.18,2.18.97,2.18,2.18Z"/>
  <path d="M121.39,65.52c0,.44-.36.8-.8.8s-.8-.36-.8-.8.36-.8.8-.8.8.36.8.8Z"/>
  <path d="M197.19,42.18c0,.61-.49,1.1-1.1,1.1s-1.1-.49-1.1-1.1.49-1.1,1.1-1.1,1.1.49,1.1,1.1Z"/>
  <path d="M153.31,124.21c0,.79-.64,1.43-1.43,1.43s-1.43-.64-1.43-1.43.64-1.43,1.43-1.43,1.43.64,1.43,1.43Z"/>
  <circle cx="172.52" cy="215.39" r="1.01"/>
  <path d="M161.37,81.67c0,.82-.67,1.49-1.49,1.49s-1.49-.67-1.49-1.49.67-1.49,1.49-1.49,1.49.67,1.49,1.49Z"/>
  <path d="M157.45,110.38c0,.28-.23.51-.51.51s-.51-.23-.51-.51.23-.51.51-.51.51.23.51.51Z"/>
  <path d="M131.87,159.06c0,.59-.48,1.07-1.07,1.07s-1.07-.48-1.07-1.07.48-1.07,1.07-1.07,1.07.48,1.07,1.07Z"/>
  <path d="M124.91,152.56c0,.61-.5,1.11-1.11,1.11s-1.11-.5-1.11-1.11.5-1.11,1.11-1.11,1.11.5,1.11,1.11Z"/>
  <path d="M194.48,120.91c0,.27-.22.5-.5.5s-.5-.22-.5-.5.22-.5.5-.5.5.22.5.5Z"/>
  <path d="M173.84,167.64c0,.57-.46,1.02-1.03,1.02s-1.03-.46-1.03-1.02.46-1.03,1.03-1.03,1.03.46,1.03,1.03Z"/>
  <path d="M54.48,92.72c0,.29-.24.53-.53.53s-.53-.24-.53-.53.24-.53.53-.53.53.24.53.53Z"/>
  <path d="M212.66,74.66c0,.2-.16.37-.37.37s-.37-.16-.37-.37.16-.37.37-.37.37.17.37.37Z"/>
  <path d="M143.78,29.63c0,.44-.36.79-.79.79s-.79-.35-.79-.79.35-.79.79-.79.79.36.79.79Z"/>
  <path d="M185.11,99.12c0,.33-.27.6-.6.6s-.6-.27-.6-.6.27-.6.6-.6.6.27.6.6Z"/>
  <path d="M187.84,235.61c0,.82-.66,1.48-1.48,1.48s-1.48-.66-1.48-1.48.66-1.48,1.48-1.48,1.48.66,1.48,1.48Z"/>
  <path d="M115.45,127.94c0,.29-.23.52-.52.52s-.52-.23-.52-.52.23-.52.52-.52.52.23.52.52Z"/>
  <path d="M157.99,105.3c0,.29-.23.51-.51.51s-.51-.23-.51-.51.23-.51.51-.51.51.23.51.51Z"/>
  <path d="M124.26,121.29c0,.54-.44.98-.98.98s-.98-.44-.98-.98.44-.98.98-.98.98.44.98.98Z"/>
  <path d="M160.59,57.93c0,.5-.4.9-.9.9s-.9-.4-.9-.9.4-.9.9-.9.9.4.9.9Z"/>
  <path d="M181.6,148.1c0,.4-.33.72-.73.72s-.73-.32-.73-.72.32-.73.73-.73.73.33.73.73Z"/>
  <path d="M194.35,92.08c0,.46-.37.83-.83.83s-.83-.37-.83-.83.37-.83.83-.83.83.37.83.83Z"/>
  <path d="M101.17,91.6c0,.48-.39.88-.88.88s-.88-.39-.88-.88.39-.88.88-.88.88.39.88.88Z"/>
  <path d="M130.53,70.04c0,.61-.49,1.1-1.1,1.1s-1.1-.49-1.1-1.1.49-1.1,1.1-1.1,1.1.49,1.1,1.1Z"/>
  <path d="M244.79,121.54c0,.39-.32.71-.71.71s-.71-.32-.71-.71.32-.71.71-.71.71.32.71.71Z"/>
  <path d="M165.39,169.18c0,.23-.19.42-.42.42s-.42-.19-.42-.42.19-.42.42-.42.42.19.42.42Z"/>
  <path d="M183.53,105.81c0,1.05-.85,1.9-1.9,1.9s-1.9-.85-1.9-1.9.85-1.9,1.9-1.9,1.9.85,1.9,1.9Z"/>
  <path d="M234.09,135.98c0,.61-.5,1.11-1.11,1.11s-1.11-.5-1.11-1.11.5-1.11,1.11-1.11,1.11.5,1.11,1.11Z"/>
  <path d="M131.91,122.45c0,.77-.63,1.4-1.4,1.4s-1.39-.62-1.39-1.4.63-1.39,1.39-1.39,1.4.62,1.4,1.39Z"/>
  <path d="M213.8,170.7c0,.51-.41.92-.92.92s-.92-.41-.92-.92.41-.92.92-.92.92.41.92.92Z"/>
  <path d="M146.8,105.7c0,.31-.25.57-.57.57s-.57-.26-.57-.57.25-.57.57-.57.57.25.57.57Z"/>
  <path d="M115.85,168.82c0,.38-.31.69-.69.69s-.69-.31-.69-.69.31-.69.69-.69.69.31.69.69Z"/>
  <path d="M153.08,90.68c0,.49-.39.88-.88.88s-.88-.39-.88-.88.39-.88.88-.88.88.39.88.88Z"/>
  <path d="M164.7,230.03c0,.61-.5,1.11-1.11,1.11s-1.11-.5-1.11-1.11.5-1.11,1.11-1.11,1.11.49,1.11,1.11Z"/>
  <path d="M179.02,90.74c0,.62-.5,1.12-1.12,1.12s-1.12-.5-1.12-1.12.5-1.12,1.12-1.12,1.12.5,1.12,1.12Z"/>
  <path d="M197.72,58.87c0,.32-.27.59-.59.59s-.59-.26-.59-.59.26-.59.59-.59.59.26.59.59Z"/>
  <path d="M120.29,170.13c0,.61-.5,1.11-1.1,1.11s-1.11-.5-1.11-1.11.49-1.11,1.11-1.11,1.1.5,1.1,1.11Z"/>
  <path d="M182.43,155.08c0,.71-.58,1.29-1.28,1.29s-1.29-.58-1.29-1.29.58-1.29,1.29-1.29,1.28.58,1.28,1.29Z"/>
  <path d="M193.52,58.08c0,.41-.33.74-.74.74s-.75-.33-.75-.74.33-.74.75-.74.74.33.74.74Z"/>
  <path d="M94.42,146.53c0,.32-.26.58-.58.58s-.58-.26-.58-.58.26-.58.58-.58.58.26.58.58Z"/>
  <path d="M170.15,134.78c0,.51-.41.92-.92.92s-.92-.41-.92-.92.41-.92.92-.92.92.42.92.92Z"/>
  <path d="M159.82,135.05c0,.75-.61,1.36-1.36,1.36s-1.36-.61-1.36-1.36.61-1.36,1.36-1.36,1.36.61,1.36,1.36Z"/>
  <path d="M199.49,137.18c0,.57-.46,1.03-1.03,1.03s-1.03-.46-1.03-1.03.46-1.03,1.03-1.03,1.03.46,1.03,1.03Z"/>
  <path d="M228.77,154.38c0,.5-.41.91-.91.91s-.91-.41-.91-.91.41-.91.91-.91.91.41.91.91Z"/>
  <path d="M127.05,155.24c0,1.1-.9,2-2,2s-2-.89-2-2,.89-2,2-2,2,.9,2,2Z"/>
  <path d="M179.16,139.54c0,.64-.51,1.15-1.15,1.15s-1.15-.52-1.15-1.15.51-1.15,1.15-1.15,1.15.51,1.15,1.15Z"/>
  <path d="M110.04,54.21c0,.42-.34.77-.76.77s-.77-.34-.77-.77.34-.76.77-.76.76.34.76.76Z"/>
  <path d="M158.85,136.08c0,.72-.59,1.32-1.31,1.32s-1.32-.59-1.32-1.32.59-1.31,1.32-1.31,1.31.59,1.31,1.31Z"/>
  <path d="M165.46,207.15c0,.45-.37.82-.82.82s-.82-.37-.82-.82.37-.82.82-.82.82.37.82.82Z"/>
  <path d="M136.89,152.31c0,.3-.24.54-.54.54s-.54-.24-.54-.54.24-.54.54-.54.54.24.54.54Z"/>
  <path d="M214.05,55.52c0,.66-.53,1.19-1.19,1.19s-1.19-.53-1.19-1.19.53-1.19,1.19-1.19,1.19.53,1.19,1.19Z"/>
  <circle cx="156.27" cy="102.4" r=".92"/>
  <path d="M203.73,80.28c0,.3-.25.55-.55.55s-.55-.25-.55-.55.25-.55.55-.55.55.25.55.55Z"/>
  <path d="M131.12,64.44c0,.46-.37.83-.83.83s-.83-.37-.83-.83.37-.83.83-.83.83.37.83.83Z"/>
  <path d="M203.32,195.61c0,.71-.58,1.29-1.29,1.29s-1.29-.58-1.29-1.29.58-1.29,1.29-1.29,1.29.58,1.29,1.29Z"/>
  <path d="M125.13,111.4c0,.64-.52,1.17-1.16,1.17s-1.17-.52-1.17-1.17.52-1.17,1.17-1.17,1.16.52,1.16,1.17Z"/>
  <path d="M112.11,106.21c0,.5-.41.91-.91.91s-.91-.41-.91-.91.41-.91.91-.91.91.41.91.91Z"/>
  <path d="M121.2,235.68c0,.71-.57,1.28-1.28,1.28s-1.28-.57-1.28-1.28.57-1.28,1.28-1.28,1.28.58,1.28,1.28Z"/>
  <path d="M93.81,151.12c0,.71-.58,1.29-1.29,1.29s-1.29-.57-1.29-1.29.58-1.29,1.29-1.29,1.29.58,1.29,1.29Z"/>
  <path d="M105.92,228.32c0,.46-.38.84-.84.84s-.84-.38-.84-.84.38-.84.84-.84.84.38.84.84Z"/>
  <path d="M81.89,136.83c0,.35-.29.64-.64.64s-.64-.29-.64-.64.29-.64.64-.64.64.29.64.64Z"/>
  <path d="M159.12,161.02c0,.44-.36.8-.8.8s-.8-.36-.8-.8.36-.8.8-.8.8.36.8.8Z"/>
  <path d="M236.86,188.5c0,.77-.62,1.4-1.39,1.4s-1.39-.63-1.39-1.4.62-1.39,1.39-1.39,1.39.62,1.39,1.39Z"/>
  <circle cx="233.06" cy="108.11" r=".81"/>
  <path d="M177.53,134.28c0,.37-.3.67-.67.67s-.67-.3-.67-.67.3-.67.67-.67.67.3.67.67Z"/>
  <path d="M113.23,166.69c0,.57-.46,1.03-1.02,1.03s-1.03-.46-1.03-1.03.46-1.03,1.03-1.03,1.02.46,1.02,1.03Z"/>
  <path d="M201.08,121.14c0,.78-.63,1.41-1.41,1.41s-1.41-.63-1.41-1.41.63-1.41,1.41-1.41,1.41.63,1.41,1.41Z"/>
  <path d="M84.95,141.47c0,.57-.46,1.03-1.03,1.03s-1.03-.46-1.03-1.03.46-1.03,1.03-1.03,1.03.46,1.03,1.03Z"/>
  <path d="M168.65,219.07c0,.37-.3.67-.67.67s-.67-.3-.67-.67.3-.67.67-.67.67.3.67.67Z"/>
  <path d="M200.2,136.9c0,.49-.4.88-.88.88s-.89-.4-.89-.88.4-.88.89-.88.88.39.88.88Z"/>
  <path d="M85.02,58.33c0,.46-.37.83-.83.83s-.83-.37-.83-.83.37-.83.83-.83.83.37.83.83Z"/>
  <path d="M125.34,158.72c0,.57-.46,1.03-1.03,1.03s-1.03-.46-1.03-1.03.46-1.03,1.03-1.03,1.03.46,1.03,1.03Z"/>
  <path d="M114.71,183.43c0,.6-.49,1.09-1.09,1.09s-1.09-.49-1.09-1.09.49-1.09,1.09-1.09,1.09.49,1.09,1.09Z"/>
  <path d="M111.17,151.71c0,.42-.34.75-.75.75s-.75-.34-.75-.75.34-.75.75-.75.75.34.75.75Z"/>
  <path d="M81.19,117.32c0,.93-.75,1.68-1.68,1.68s-1.68-.75-1.68-1.68.75-1.68,1.68-1.68,1.68.75,1.68,1.68Z"/>
  <path d="M120.58,117.32c0,.35-.28.63-.63.63s-.63-.28-.63-.63.28-.63.63-.63.63.28.63.63Z"/>
  <path d="M110.1,248.29c0,.22-.18.4-.4.4s-.4-.18-.4-.4.18-.4.4-.4.4.18.4.4Z"/>
  <path d="M104.51,266c0,.29-.24.53-.52.53s-.52-.23-.52-.53.23-.52.52-.52.52.24.52.52Z"/>
  <path d="M118.06,189.13c0,.48-.39.88-.88.88s-.88-.39-.88-.88.39-.88.88-.88.88.39.88.88Z"/>
  <path d="M188.61,178.43c0,.31-.25.57-.56.57s-.56-.25-.56-.57.25-.56.56-.56.56.25.56.56Z"/>
  <path d="M120.71,185.5c0,.53-.43.96-.96.96s-.96-.43-.96-.96.43-.96.96-.96.96.43.96.96Z"/>
  <path d="M177.4,250.75c0,.92-.75,1.67-1.67,1.67s-1.68-.75-1.68-1.67.75-1.68,1.68-1.68,1.67.75,1.67,1.68Z"/>
  <path d="M83.8,228.7c0,.5-.4.89-.89.89s-.89-.4-.89-.89.4-.89.89-.89.89.4.89.89Z"/>
  <path d="M171.59,204.58c0,.53-.43.95-.95.95s-.95-.42-.95-.95.42-.95.95-.95.95.42.95.95Z"/>
  <path d="M188.35,254.87c0,.44-.36.8-.8.8s-.8-.36-.8-.8.36-.8.8-.8.8.36.8.8Z"/>
  <path d="M127.79,237.81c0,.33-.27.59-.6.59s-.59-.27-.59-.59.27-.59.59-.59.6.27.6.59Z"/>
  <path d="M178.91,195.41c0,.87-.71,1.58-1.58,1.58s-1.58-.71-1.58-1.58.71-1.58,1.58-1.58,1.58.71,1.58,1.58Z"/>
  <path d="M118.68,205.48c0,.46-.37.83-.83.83s-.83-.37-.83-.83.37-.83.83-.83.83.37.83.83Z"/>
  <path d="M27.52,174.47c0,.92-.75,1.67-1.67,1.67s-1.67-.75-1.67-1.67.75-1.67,1.67-1.67,1.67.75,1.67,1.67Z"/>
  <path d="M155.85,217.84c0,.83-.67,1.5-1.5,1.5s-1.5-.67-1.5-1.5.67-1.5,1.5-1.5,1.5.67,1.5,1.5Z"/>
  <path d="M172.85,121.39c0,.43-.35.78-.78.78s-.78-.35-.78-.78.35-.78.78-.78.78.35.78.78Z"/>
  <path d="M98.17,209.29c0,.33-.27.6-.6.6s-.59-.27-.59-.6.27-.6.59-.6.6.27.6.6Z"/>
  <path d="M131.8,154.58c0,.3-.24.55-.55.55s-.55-.25-.55-.55.25-.55.55-.55.55.25.55.55Z"/>
  <path d="M82.31,90.71c0,.43-.35.78-.78.78s-.78-.35-.78-.78.35-.79.78-.79.78.35.78.79Z"/>
  <path d="M173.91,109.62c0,.53-.43.96-.96.96s-.96-.43-.96-.96.43-.96.96-.96.96.43.96.96Z"/>
  <path d="M132.76,211.33c0,.3-.24.55-.54.55s-.54-.25-.54-.55.24-.54.54-.54.54.24.54.54Z"/>
  <path d="M168.06,207.1c0,.57-.46,1.03-1.03,1.03s-1.03-.46-1.03-1.03.46-1.03,1.03-1.03,1.03.46,1.03,1.03Z"/>
  <path d="M199.01,141.63c0,.49-.4.89-.89.89s-.89-.4-.89-.89.4-.9.89-.9.89.4.89.9Z"/>
  <path d="M184.48,183.86c0,.37-.3.66-.67.66s-.66-.3-.66-.66.3-.67.66-.67.67.3.67.67Z"/>
  <path d="M195.67,159.87c0,.37-.3.67-.67.67s-.67-.3-.67-.67.3-.67.67-.67.67.3.67.67Z"/>
  <path d="M173.35,276.67c0,.46-.37.83-.83.83s-.84-.37-.84-.83.37-.83.84-.83.83.37.83.83Z"/>
  <path d="M213.36,260.07c0,.63-.51,1.14-1.14,1.14s-1.14-.51-1.14-1.14.51-1.14,1.14-1.14,1.14.51,1.14,1.14Z"/>
  <path d="M174.16,209.21c0,.7-.57,1.27-1.27,1.27s-1.27-.57-1.27-1.27.57-1.27,1.27-1.27,1.27.57,1.27,1.27Z"/>
  <path d="M133.93,303.72c0,.33-.27.6-.6.6s-.6-.27-.6-.6.27-.6.6-.6.6.27.6.6Z"/>
  <path d="M127.54,233.8c0,.71-.58,1.29-1.29,1.29s-1.29-.58-1.29-1.29.58-1.29,1.29-1.29,1.29.58,1.29,1.29Z"/>
  <path d="M99.7,253.95c0,.51-.41.92-.92.92s-.92-.41-.92-.92.41-.92.92-.92.92.41.92.92Z"/>
  <path d="M90.73,154.02c0,.31-.25.56-.56.56s-.56-.25-.56-.56.25-.56.56-.56.56.25.56.56Z"/>
  <path d="M234.74,179.74c0,.51-.41.92-.92.92s-.92-.41-.92-.92.41-.92.92-.92.92.41.92.92Z"/>
  <path d="M100.96,242.49c0,.58-.47,1.05-1.05,1.05s-1.05-.47-1.05-1.05.47-1.05,1.05-1.05,1.05.47,1.05,1.05Z"/>
  <path d="M278.07,211.17c0,.54-.44.98-.99.98s-.98-.44-.98-.98.44-.98.98-.98.99.44.99.98Z"/>
  <path d="M205.03,174.79c0,.64-.52,1.16-1.16,1.16s-1.16-.52-1.16-1.16.52-1.16,1.16-1.16,1.16.52,1.16,1.16Z"/>
  <path d="M108.44,177.41c0,.54-.44.99-.99.99s-.99-.44-.99-.99.44-.99.99-.99.99.44.99.99Z"/>
  <path d="M85.16,233.1c0,.25-.2.46-.46.46s-.46-.21-.46-.46.21-.46.46-.46.46.21.46.46Z"/>
  <path d="M172.67,161.35c0,.54-.43.96-.96.96s-.97-.43-.97-.96.43-.96.97-.96.96.43.96.96Z"/>
  <path d="M143.3,181.2c0,.42-.34.76-.76.76s-.76-.34-.76-.76.34-.76.76-.76.76.34.76.76Z"/>
  <path d="M198.43,123.2c0,.54-.44.99-.99.99s-.99-.44-.99-.99.44-.99.99-.99.99.44.99.99Z"/>
  <path d="M132.96,216.48c0,.23-.18.41-.41.41s-.41-.18-.41-.41.19-.41.41-.41.41.19.41.41Z"/>
  <path d="M194.29,242.01c0,.35-.28.64-.64.64s-.64-.29-.64-.64.29-.64.64-.64.64.29.64.64Z"/>
  <path d="M110.23,251.79c0,.63-.51,1.14-1.14,1.14s-1.14-.51-1.14-1.14.51-1.14,1.14-1.14,1.14.51,1.14,1.14Z"/>
  <path d="M109.81,204.03c0,.61-.49,1.11-1.11,1.11s-1.11-.5-1.11-1.11.5-1.11,1.11-1.11,1.11.49,1.11,1.11Z"/>
  <path d="M201.25,196.39c0,.49-.4.89-.89.89s-.89-.4-.89-.89.4-.89.89-.89.89.4.89.89Z"/>
  <path d="M194.53,178.89c0,.49-.4.89-.89.89s-.89-.4-.89-.89.4-.89.89-.89.89.4.89.89Z"/>
  <path d="M147.33,284.71c0,.47-.38.86-.86.86s-.86-.38-.86-.86.38-.86.86-.86.86.38.86.86Z"/>
  <path d="M108.47,200.04c0,.31-.25.56-.56.56s-.55-.25-.55-.56.25-.55.55-.55.56.25.56.55Z"/>
  <path d="M111.97,279.17c0,.5-.41.91-.91.91s-.91-.41-.91-.91.41-.91.91-.91.91.41.91.91Z"/>
  <path d="M228.57,200.11c0,.64-.52,1.16-1.15,1.16s-1.15-.52-1.15-1.16.52-1.15,1.15-1.15,1.15.52,1.15,1.15Z"/>
  <path d="M139.38,212.41c0,.4-.33.73-.72.73s-.73-.32-.73-.73.32-.72.73-.72.72.32.72.72Z"/>
  <path d="M219.74,187.4c0,.87-.7,1.57-1.57,1.57s-1.57-.7-1.57-1.57.7-1.57,1.57-1.57,1.57.7,1.57,1.57Z"/>
  <path d="M159.82,261.61c0,.4-.32.72-.72.72s-.72-.32-.72-.72.32-.72.72-.72.72.32.72.72Z"/>
  <path d="M102.04,239.53c0,1.02-.83,1.85-1.86,1.85s-1.85-.83-1.85-1.85.83-1.86,1.85-1.86,1.86.83,1.86,1.86Z"/>
  <path d="M116.12,165.29c0,.27-.22.49-.49.49s-.5-.22-.5-.49.22-.5.5-.5.49.22.49.5Z"/>
  <path d="M118.81,193.95c0,.35-.28.63-.63.63s-.63-.28-.63-.63.28-.63.63-.63.63.28.63.63Z"/>
  <path d="M86,178.53c0,.4-.33.73-.73.73s-.73-.33-.73-.73.33-.73.73-.73.73.33.73.73Z"/>
  <path d="M233.35,232.51c0,.35-.28.63-.63.63s-.63-.28-.63-.63.28-.63.63-.63.63.28.63.63Z"/>
  <path d="M47.87,198.5c0,.55-.45,1-1,1s-1-.45-1-1,.45-1,1-1,1,.45,1,1Z"/>
  <path d="M163.36,179.96c0,.81-.66,1.47-1.47,1.47s-1.47-.66-1.47-1.47.66-1.48,1.47-1.48,1.47.66,1.47,1.48Z"/>
  <path d="M139.28,141.77c0,.65-.53,1.18-1.18,1.18s-1.18-.53-1.18-1.18.53-1.17,1.18-1.17,1.18.53,1.18,1.17Z"/>
  <path d="M160.48,214.56c0,.48-.39.86-.86.86s-.86-.39-.86-.86.39-.86.86-.86.86.39.86.86Z"/>
  <path d="M65.63,92.16c0,.41-.34.75-.75.75s-.76-.34-.76-.75.34-.76.76-.76.75.34.75.76Z"/>
  <path d="M115.01,256.72c0,.55-.45,1-1.01,1s-1-.45-1-1,.45-1,1-1,1.01.45,1.01,1Z"/>
  <path d="M193.23,190.39c0,.36-.29.64-.64.64s-.64-.29-.64-.64.29-.64.64-.64.64.29.64.64Z"/>
  <path d="M216.47,153.01c0,.27-.22.49-.49.49s-.49-.22-.49-.49.22-.49.49-.49.49.22.49.49Z"/>
  <path d="M192.05,220.03c0,.48-.39.87-.87.87s-.87-.39-.87-.87.39-.87.87-.87.87.39.87.87Z"/>
  <path d="M193.86,293.33c0,.36-.29.64-.64.64s-.64-.29-.64-.64.29-.64.64-.64.64.29.64.64Z"/>
  <path d="M116.04,238.7c0,.54-.44.98-.98.98s-.98-.44-.98-.98.44-.98.98-.98.98.44.98.98Z"/>
  <path d="M123.42,242.87c0,.26-.22.48-.48.48s-.48-.22-.48-.48.22-.48.48-.48.48.21.48.48Z"/>
  <path d="M203.87,76.1c0,.35-.28.62-.62.62s-.62-.28-.62-.62.28-.62.62-.62.62.28.62.62Z"/>
  <path d="M179.62,237.01c0,.84-.68,1.51-1.51,1.51s-1.51-.68-1.51-1.51.68-1.51,1.51-1.51,1.51.68,1.51,1.51Z"/>
  <path d="M122.43,217.91c0,.74-.6,1.34-1.34,1.34s-1.34-.6-1.34-1.34.6-1.34,1.34-1.34,1.34.6,1.34,1.34Z"/>
  <path d="M173.48,186.61c0,1.03-.83,1.87-1.86,1.87s-1.87-.84-1.87-1.87.84-1.86,1.87-1.86,1.86.83,1.86,1.86Z"/>
  <path d="M231.57,126.92c0,.19-.16.35-.35.35s-.35-.16-.35-.35.16-.35.35-.35.35.16.35.35Z"/>
  <path d="M158.01,173.75c0,.31-.25.57-.57.57s-.57-.26-.57-.57.25-.57.57-.57.57.25.57.57Z"/>
  <path d="M139.66,177.66c0,.43-.35.79-.79.79s-.79-.35-.79-.79.35-.79.79-.79.79.35.79.79Z"/>
  <path d="M179.52,136.78c0,.37-.3.68-.67.68s-.68-.3-.68-.68.3-.68.68-.68.67.3.67.68Z"/>
  <path d="M118.94,167.45c0,.4-.32.72-.72.72s-.73-.32-.73-.72.32-.72.73-.72.72.32.72.72Z"/>
  <path d="M178.59,127c0,.41-.33.74-.74.74s-.74-.33-.74-.74.33-.74.74-.74.74.33.74.74Z"/>
  <path d="M202.13,152.48c0,.73-.59,1.32-1.32,1.32s-1.32-.59-1.32-1.32.59-1.32,1.32-1.32,1.32.59,1.32,1.32Z"/>
  <path d="M233.58,177.92c0,.69-.56,1.24-1.25,1.24s-1.24-.55-1.24-1.24.56-1.24,1.24-1.24,1.25.56,1.25,1.24Z"/>
  <path d="M77.51,257.66c0,.67-.54,1.2-1.2,1.2s-1.2-.54-1.2-1.2.54-1.2,1.2-1.2,1.2.54,1.2,1.2Z"/>
  <path d="M202.54,144.24c0,.44-.36.79-.79.79s-.79-.35-.79-.79.35-.79.79-.79.79.35.79.79Z"/>
  <path d="M161.48,165.34c0,.46-.37.82-.82.82s-.82-.37-.82-.82.37-.82.82-.82.82.37.82.82Z"/>
  <path d="M224.23,179.21c0,.5-.4.89-.89.89s-.89-.4-.89-.89.4-.89.89-.89.89.4.89.89Z"/>
  <path d="M185.86,183.92c0,.45-.36.81-.81.81s-.81-.37-.81-.81.37-.81.81-.81.81.36.81.81Z"/>
  <path d="M201.93,214.37c0,.6-.49,1.08-1.09,1.08s-1.08-.48-1.08-1.08.48-1.09,1.08-1.09,1.09.49,1.09,1.09Z"/>
  <path d="M215.82,206.62c0,.74-.6,1.34-1.34,1.34s-1.34-.6-1.34-1.34.6-1.34,1.34-1.34,1.34.6,1.34,1.34Z"/>
  <path d="M236.79,141.52c0,.76-.61,1.37-1.37,1.37s-1.37-.61-1.37-1.37.61-1.37,1.37-1.37,1.37.61,1.37,1.37Z"/>
  <path d="M82.98,189.78c0,.37-.3.66-.66.66s-.66-.3-.66-.66.29-.66.66-.66.66.3.66.66Z"/>
  <path d="M200.57,142.82c0,.32-.26.58-.58.58s-.58-.26-.58-.58.26-.58.58-.58.58.26.58.58Z"/>
  <path d="M77.97,166.55c0,.36-.29.65-.65.65s-.65-.29-.65-.65.29-.64.65-.64.65.29.65.64Z"/>
  <path d="M167.46,212.24c0,.5-.41.9-.9.9s-.9-.41-.9-.9.41-.9.9-.9.9.4.9.9Z"/>
  <path d="M227.38,112.65c0,.49-.4.89-.89.89s-.89-.4-.89-.89.4-.89.89-.89.89.4.89.89Z"/>
  <path d="M264.39,226.09c0,.46-.37.83-.83.83s-.83-.37-.83-.83.37-.83.83-.83.83.37.83.83Z"/>
  <path d="M183.6,187.56c0,.33-.27.6-.6.6s-.6-.27-.6-.6.27-.6.6-.6.6.27.6.6Z"/>
  <path d="M227.31,132.38c0,.44-.36.79-.79.79s-.79-.35-.79-.79.36-.79.79-.79.79.36.79.79Z"/>
  <path d="M250.08,143.77c0,.23-.19.41-.41.41s-.41-.19-.41-.41.18-.41.41-.41.41.19.41.41Z"/>
  <path d="M192.92,173.56c0,.61-.5,1.11-1.11,1.11s-1.11-.5-1.11-1.11.5-1.11,1.11-1.11,1.11.5,1.11,1.11Z"/>
  <path d="M198.4,115.74c0,.87-.7,1.57-1.56,1.57s-1.57-.7-1.57-1.57.7-1.56,1.57-1.56,1.56.7,1.56,1.56Z"/>
  <path d="M192.82,115.46c0,.38-.31.68-.68.68s-.68-.3-.68-.68.31-.68.68-.68.68.3.68.68Z"/>
  <path d="M182.13,144.1c0,.51-.42.93-.93.93s-.93-.42-.93-.93.42-.93.93-.93.93.42.93.93Z"/>
  <path d="M193.86,96.53c0,.69-.56,1.25-1.25,1.25s-1.25-.56-1.25-1.25.56-1.25,1.25-1.25,1.25.56,1.25,1.25Z"/>
  <path d="M164.63,149.55c0,.74-.6,1.35-1.34,1.35s-1.34-.6-1.34-1.35.6-1.34,1.34-1.34,1.34.6,1.34,1.34Z"/>
  <path d="M263.66,204.21c0,.48-.39.88-.88.88s-.88-.4-.88-.88.39-.88.88-.88.88.39.88.88Z"/>
  <path d="M230.58,94.18c0,.68-.55,1.24-1.24,1.24s-1.24-.55-1.24-1.24.55-1.24,1.24-1.24,1.24.55,1.24,1.24Z"/>
  <path d="M220.62,111.99c0,.55-.45,1-1.01,1s-1.01-.45-1.01-1,.45-1.01,1.01-1.01,1.01.45,1.01,1.01Z"/>
  <path d="M212.98,133.25c0,.37-.3.67-.67.67s-.68-.3-.68-.67.3-.67.68-.67.67.3.67.67Z"/>
  <path d="M111.9,128.77c0,.34-.27.61-.61.61s-.61-.27-.61-.61.27-.61.61-.61.61.27.61.61Z"/>
  <path d="M273.73,276.52c0,.46-.37.83-.83.83s-.83-.37-.83-.83.37-.83.83-.83.83.37.83.83Z"/>
  <path d="M269.01,174.83c0,.66-.53,1.19-1.19,1.19s-1.19-.53-1.19-1.19.53-1.19,1.19-1.19,1.19.53,1.19,1.19Z"/>
  <path d="M156.15,177.33c0,.68-.55,1.23-1.23,1.23s-1.23-.55-1.23-1.23.55-1.23,1.23-1.23,1.23.55,1.23,1.23Z"/>
  <path d="M120.91,193.47c0,.57-.46,1.03-1.04,1.03s-1.03-.46-1.03-1.03.46-1.03,1.03-1.03,1.04.46,1.04,1.03Z"/>
  <path d="M162.97,237.71c0,.71-.57,1.28-1.28,1.28s-1.28-.57-1.28-1.28.57-1.28,1.28-1.28,1.28.57,1.28,1.28Z"/>
  <path d="M133.17,164.49c0,.33-.26.59-.59.59s-.59-.26-.59-.59.27-.59.59-.59.59.26.59.59Z"/>
  <path d="M144.84,210.78c0,.47-.38.85-.85.85s-.85-.38-.85-.85.38-.85.85-.85.85.38.85.85Z"/>
  <path d="M195.98,217.04c0,.51-.42.93-.94.93s-.93-.42-.93-.93.42-.94.93-.94.94.42.94.94Z"/>
  <path d="M133.43,216.11c0,.42-.34.77-.76.77s-.77-.34-.77-.77.35-.76.77-.76.76.34.76.76Z"/>
  <path d="M204.25,193.99c0,.89-.72,1.61-1.62,1.61s-1.61-.72-1.61-1.61.72-1.61,1.61-1.61,1.62.72,1.62,1.61Z"/>
  <path d="M128.79,180.41c0,.38-.31.69-.69.69s-.69-.31-.69-.69.31-.69.69-.69.69.31.69.69Z"/>
  <path d="M195.19,151.06c0,.35-.28.63-.63.63s-.63-.28-.63-.63.28-.63.63-.63.63.28.63.63Z"/>
  <path d="M173.4,213.5c0,.5-.4.9-.9.9s-.9-.4-.9-.9.4-.9.9-.9.9.4.9.9Z"/>
  <path d="M169.11,146.91c0,.39-.32.71-.71.71s-.71-.32-.71-.71.32-.71.71-.71.71.31.71.71Z"/>
  <path d="M128.09,194.89c0,.63-.52,1.15-1.15,1.15s-1.15-.52-1.15-1.15.51-1.15,1.15-1.15,1.15.52,1.15,1.15Z"/>
  <path d="M138.49,279.26c0,.66-.53,1.18-1.19,1.18s-1.18-.53-1.18-1.18.53-1.19,1.18-1.19,1.19.53,1.19,1.19Z"/>
  <path d="M157.62,216.05c0,.79-.64,1.43-1.43,1.43s-1.43-.64-1.43-1.43.64-1.43,1.43-1.43,1.43.64,1.43,1.43Z"/>
  <path d="M201.35,207.43c0,.57-.46,1.02-1.02,1.02s-1.02-.45-1.02-1.02.46-1.02,1.02-1.02,1.02.46,1.02,1.02Z"/>
  <path d="M175.68,95.88c0,.42-.34.75-.75.75s-.76-.34-.76-.75.34-.75.76-.75.75.34.75.75Z"/>
  <path d="M156.62,175.03c0,.76-.62,1.38-1.38,1.38s-1.38-.62-1.38-1.38.62-1.38,1.38-1.38,1.38.62,1.38,1.38Z"/>
  <path d="M181.35,133.35c0,.45-.36.82-.81.82s-.81-.36-.81-.82.36-.81.81-.81.81.36.81.81Z"/>
  <path d="M148.64,215.64c0,.48-.39.87-.88.87s-.87-.39-.87-.87.39-.87.87-.87.88.39.88.87Z"/>
  <path d="M225.95,147.36c0,.66-.54,1.19-1.2,1.19s-1.19-.54-1.19-1.19.53-1.2,1.19-1.2,1.2.54,1.2,1.2Z"/>
  <path d="M136.35,190.45c0,.78-.63,1.4-1.4,1.4s-1.4-.63-1.4-1.4.63-1.4,1.4-1.4,1.4.63,1.4,1.4Z"/>
</svg>