<?xml version="1.0" encoding="UTF-8"?>
<svg id="Layer_1" data-name="Layer 1" xmlns="http://www.w3.org/2000/svg" viewBox="0 0 2920.24 3671.97">
  <defs>
    <style>
      .cls-1 {
        fill: none;
        opacity: .47;
        stroke: #ff2daf;
        stroke-miterlimit: 10;
        stroke-width: 3px;
      }
    </style>
  </defs>
  <rect class="cls-1" x="35.98" y="1.5" width="6.9" height="62.07"/>
  <rect class="cls-1" x="25.64" y="1.5" width="17.24" height="155.17"/>
  <rect class="cls-1" x="25.64" y="1.5" width="17.24" height="196.55"/>
  <rect class="cls-1" x="15.29" y="1.5" width="27.59" height="317.24"/>
  <rect class="cls-1" x="4.95" y="1.5" width="37.93" height="444.83"/>
  <rect class="cls-1" x="1.5" y="1.5" width="41.38" height="496.55"/>
  <rect class="cls-1" x="1.5" y="1.5" width="41.38" height="555.17"/>
  <rect class="cls-1" x="1.5" y="1.5" width="41.38" height="589.66"/>
  <rect class="cls-1" x="1.5" y="1.5" width="41.38" height="600"/>
  <rect class="cls-1" x="1.5" y="1.5" width="41.38" height="600"/>
  <rect class="cls-1" x="15.29" y="1.5" width="27.59" height="617.24"/>
  <rect class="cls-1" x="35.98" y="1.5" width="6.9" height="634.48"/>
  <rect class="cls-1" x="42.88" y="1.5" width="24.14" height="651.72"/>
  <rect class="cls-1" x="42.88" y="1.5" width="62.07" height="662.07"/>
  <rect class="cls-1" x="42.88" y="1.5" width="113.79" height="668.97"/>
  <rect class="cls-1" x="42.88" y="1.5" width="210.34" height="668.97"/>
  <rect class="cls-1" x="42.88" y="1.5" width="251.72" height="665.52"/>
  <rect class="cls-1" x="42.88" y="1.5" width="420.69" height="658.62"/>
  <rect class="cls-1" x="42.88" y="1.5" width="593.1" height="655.17"/>
  <rect class="cls-1" x="42.88" y="1.5" width="851.72" height="668.97"/>
  <rect class="cls-1" x="42.88" y="1.5" width="900" height="682.76"/>
  <rect class="cls-1" x="42.88" y="1.5" width="917.24" height="682.76"/>
  <rect class="cls-1" x="42.88" y="1.5" width="913.79" height="668.97"/>
  <rect class="cls-1" x="42.88" y="1.5" width="910.34" height="665.52"/>
  <rect class="cls-1" x="42.88" y="1.5" width="889.66" height="624.14"/>
  <rect class="cls-1" x="42.88" y="1.5" width="889.66" height="617.24"/>
  <rect class="cls-1" x="42.88" y="1.5" width="851.72" height="562.07"/>
  <rect class="cls-1" x="42.88" y="1.5" width="796.55" height="479.31"/>
  <rect class="cls-1" x="42.88" y="1.5" width="775.86" height="451.72"/>
  <rect class="cls-1" x="42.88" y="1.5" width="720.69" height="379.31"/>
  <rect class="cls-1" x="42.88" y="1.5" width="700" height="348.28"/>
  <rect class="cls-1" x="42.88" y="1.5" width="700" height="348.28"/>
  <rect class="cls-1" x="42.88" y="1.5" width="700" height="348.28"/>
  <rect class="cls-1" x="42.88" y="1.5" width="696.55" height="358.62"/>
  <rect class="cls-1" x="42.88" y="1.5" width="682.76" height="389.66"/>
  <rect class="cls-1" x="42.88" y="1.5" width="637.93" height="482.76"/>
  <rect class="cls-1" x="42.88" y="1.5" width="555.17" height="631.03"/>
  <rect class="cls-1" x="42.88" y="1.5" width="455.17" height="820.69"/>
  <rect class="cls-1" x="42.88" y="1.5" width="372.41" height="1006.9"/>
  <rect class="cls-1" x="42.88" y="1.5" width="341.38" height="1086.21"/>
  <rect class="cls-1" x="42.88" y="1.5" width="331.03" height="1117.24"/>
  <rect class="cls-1" x="42.88" y="1.5" width="327.59" height="1179.31"/>
  <rect class="cls-1" x="42.88" y="1.5" width="331.03" height="1227.59"/>
  <rect class="cls-1" x="42.88" y="1.5" width="344.83" height="1275.86"/>
  <rect class="cls-1" x="42.88" y="1.5" width="362.07" height="1320.69"/>
  <rect class="cls-1" x="42.88" y="1.5" width="375.86" height="1351.72"/>
  <rect class="cls-1" x="42.88" y="1.5" width="375.86" height="1351.72"/>
  <rect class="cls-1" x="42.88" y="1.5" width="375.86" height="1351.72"/>
  <rect class="cls-1" x="42.88" y="1.5" width="375.86" height="1351.72"/>
  <rect class="cls-1" x="42.88" y="1.5" width="375.86" height="1379.31"/>
  <rect class="cls-1" x="42.88" y="1.5" width="362.07" height="1410.34"/>
  <rect class="cls-1" x="42.88" y="1.5" width="337.93" height="1451.72"/>
  <rect class="cls-1" x="42.88" y="1.5" width="275.86" height="1527.59"/>
  <rect class="cls-1" x="42.88" y="1.5" width="203.45" height="1610.34"/>
  <rect class="cls-1" x="42.88" y="1.5" width="172.41" height="1641.38"/>
  <rect class="cls-1" x="42.88" y="1.5" width="82.76" height="1713.79"/>
  <rect class="cls-1" x="42.88" y="1.5" width="37.93" height="1748.28"/>
  <rect class="cls-1" x="42.88" y="1.5" width="37.93" height="1748.28"/>
  <rect class="cls-1" x="42.88" y="1.5" width="106.9" height="1806.9"/>
  <rect class="cls-1" x="42.88" y="1.5" width="179.31" height="1844.83"/>
  <rect class="cls-1" x="42.88" y="1.5" width="296.55" height="1889.66"/>
  <rect class="cls-1" x="42.88" y="1.5" width="527.59" height="1948.28"/>
  <rect class="cls-1" x="42.88" y="1.5" width="793.1" height="1993.1"/>
  <rect class="cls-1" x="42.88" y="1.5" width="989.66" height="2013.79"/>
  <rect class="cls-1" x="42.88" y="1.5" width="1231.03" height="2027.59"/>
  <rect class="cls-1" x="42.88" y="1.5" width="1372.41" height="2037.93"/>
  <rect class="cls-1" x="42.88" y="1.5" width="1413.79" height="2048.28"/>
  <rect class="cls-1" x="42.88" y="1.5" width="1410.34" height="2048.28"/>
  <rect class="cls-1" x="42.88" y="1.5" width="1406.9" height="2048.28"/>
  <rect class="cls-1" x="42.88" y="1.5" width="1393.1" height="2044.83"/>
  <rect class="cls-1" x="42.88" y="1.5" width="1262.07" height="2041.38"/>
  <rect class="cls-1" x="42.88" y="1.5" width="1034.48" height="2013.79"/>
  <rect class="cls-1" x="42.88" y="1.5" width="762.07" height="1979.31"/>
  <rect class="cls-1" x="42.88" y="1.5" width="589.66" height="1951.72"/>
  <rect class="cls-1" x="42.88" y="1.5" width="524.14" height="1941.38"/>
  <rect class="cls-1" x="42.88" y="1.5" width="417.24" height="1920.69"/>
  <rect class="cls-1" x="42.88" y="1.5" width="420.69" height="1920.69"/>
  <rect class="cls-1" x="42.88" y="1.5" width="475.86" height="1920.69"/>
  <rect class="cls-1" x="42.88" y="1.5" width="668.97" height="1924.14"/>
  <rect class="cls-1" x="42.88" y="1.5" width="910.34" height="1924.14"/>
  <rect class="cls-1" x="42.88" y="1.5" width="1000" height="1924.14"/>
  <rect class="cls-1" x="42.88" y="1.5" width="1213.79" height="1924.14"/>
  <rect class="cls-1" x="42.88" y="1.5" width="1379.31" height="1920.69"/>
  <rect class="cls-1" x="42.88" y="1.5" width="1437.93" height="1920.69"/>
  <rect class="cls-1" x="42.88" y="1.5" width="1475.86" height="1917.24"/>
  <rect class="cls-1" x="42.88" y="1.5" width="1480.62" height="1917.24"/>
  <rect class="cls-1" x="42.88" y="1.5" width="1472.41" height="1903.45"/>
  <rect class="cls-1" x="42.88" y="1.5" width="1480.62" height="1896.55"/>
  <rect class="cls-1" x="42.88" y="1.5" width="1458.62" height="1862.07"/>
  <rect class="cls-1" x="42.88" y="1.5" width="1444.83" height="1813.79"/>
  <rect class="cls-1" x="42.88" y="1.5" width="1420.69" height="1724.14"/>
  <rect class="cls-1" x="42.88" y="1.5" width="1368.97" height="1620.69"/>
  <rect class="cls-1" x="42.88" y="1.5" width="1306.9" height="1513.79"/>
  <rect class="cls-1" x="42.88" y="1.5" width="1248.28" height="1420.69"/>
  <rect class="cls-1" x="42.88" y="1.5" width="1241.38" height="1410.34"/>
  <rect class="cls-1" x="42.88" y="1.5" width="1241.38" height="1410.34"/>
  <rect class="cls-1" x="42.88" y="1.5" width="1231.03" height="1410.34"/>
  <rect class="cls-1" x="42.88" y="1.5" width="1234.48" height="1406.9"/>
  <rect class="cls-1" x="42.88" y="1.5" width="1220.69" height="1406.9"/>
  <rect class="cls-1" x="42.88" y="1.5" width="1203.45" height="1403.45"/>
  <rect class="cls-1" x="42.88" y="1.5" width="1193.1" height="1400"/>
  <rect class="cls-1" x="42.88" y="1.5" width="1175.86" height="1400"/>
  <rect class="cls-1" x="42.88" y="1.5" width="1144.83" height="1389.66"/>
  <rect class="cls-1" x="42.88" y="1.5" width="1103.45" height="1382.76"/>
  <rect class="cls-1" x="42.88" y="1.5" width="1055.17" height="1365.52"/>
  <rect class="cls-1" x="42.88" y="1.5" width="1000" height="1348.28"/>
  <rect class="cls-1" x="42.88" y="1.5" width="975.86" height="1341.38"/>
  <rect class="cls-1" x="42.88" y="1.5" width="934.48" height="1327.59"/>
  <rect class="cls-1" x="42.88" y="1.5" width="900" height="1313.79"/>
  <rect class="cls-1" x="42.88" y="1.5" width="900" height="1313.79"/>
  <rect class="cls-1" x="42.88" y="1.5" width="900" height="1313.79"/>
  <rect class="cls-1" x="42.88" y="1.5" width="968.97" height="1293.1"/>
  <rect class="cls-1" x="42.88" y="1.5" width="989.66" height="1286.21"/>
  <rect class="cls-1" x="42.88" y="1.5" width="1027.59" height="1282.76"/>
  <rect class="cls-1" x="42.88" y="1.5" width="1031.03" height="1282.76"/>
  <rect class="cls-1" x="42.88" y="1.5" width="1031.03" height="1282.76"/>
  <rect class="cls-1" x="42.88" y="1.5" width="1034.48" height="1282.76"/>
  <rect class="cls-1" x="42.88" y="1.5" width="1068.97" height="1296.55"/>
  <rect class="cls-1" x="42.88" y="1.5" width="1172.41" height="1324.14"/>
  <rect class="cls-1" x="42.88" y="1.5" width="1227.59" height="1341.38"/>
  <rect class="cls-1" x="42.88" y="1.5" width="1568.97" height="1434.48"/>
  <rect class="cls-1" x="42.88" y="1.5" width="1675.86" height="1455.17"/>
  <rect class="cls-1" x="42.88" y="1.5" width="1727.59" height="1468.97"/>
  <rect class="cls-1" x="42.88" y="1.5" width="1779.31" height="1482.76"/>
  <rect class="cls-1" x="42.88" y="1.5" width="1782.76" height="1486.21"/>
  <rect class="cls-1" x="42.88" y="1.5" width="1779.31" height="1486.21"/>
  <rect class="cls-1" x="42.88" y="1.5" width="1779.31" height="1486.21"/>
  <rect class="cls-1" x="42.88" y="1.5" width="1779.31" height="1486.21"/>
  <rect class="cls-1" x="42.88" y="1.5" width="1779.31" height="1486.21"/>
  <rect class="cls-1" x="42.88" y="1.5" width="1779.31" height="1486.21"/>
  <rect class="cls-1" x="42.88" y="1.5" width="1779.31" height="1489.66"/>
  <rect class="cls-1" x="42.88" y="1.5" width="1779.31" height="1489.66"/>
  <rect class="cls-1" x="42.88" y="1.5" width="1782.76" height="1500"/>
  <rect class="cls-1" x="42.88" y="1.5" width="1800" height="1544.83"/>
  <rect class="cls-1" x="42.88" y="1.5" width="1831.03" height="1610.34"/>
  <rect class="cls-1" x="42.88" y="1.5" width="1868.97" height="1693.1"/>
  <rect class="cls-1" x="42.88" y="1.5" width="1906.9" height="1779.31"/>
  <rect class="cls-1" x="42.88" y="1.5" width="1941.38" height="1872.41"/>
  <rect class="cls-1" x="42.88" y="1.5" width="1941.38" height="1872.41"/>
  <rect class="cls-1" x="42.88" y="1.5" width="1941.38" height="1872.41"/>
  <rect class="cls-1" x="42.88" y="1.5" width="1941.38" height="1872.41"/>
  <rect class="cls-1" x="42.88" y="1.5" width="1941.38" height="1872.41"/>
  <rect class="cls-1" x="42.88" y="1.5" width="1948.28" height="1879.31"/>
  <rect class="cls-1" x="42.88" y="1.5" width="1965.52" height="1868.97"/>
  <rect class="cls-1" x="42.88" y="1.5" width="1986.21" height="1837.93"/>
  <rect class="cls-1" x="42.88" y="1.5" width="2000" height="1806.9"/>
  <rect class="cls-1" x="42.88" y="1.5" width="2093.1" height="1562.07"/>
  <rect class="cls-1" x="42.88" y="1.5" width="2137.93" height="1465.52"/>
  <rect class="cls-1" x="42.88" y="1.5" width="2158.62" height="1417.24"/>
  <rect class="cls-1" x="42.88" y="1.5" width="2168.97" height="1393.1"/>
  <rect class="cls-1" x="42.88" y="1.5" width="2168.97" height="1389.66"/>
  <rect class="cls-1" x="42.88" y="1.5" width="2172.41" height="1386.21"/>
  <rect class="cls-1" x="42.88" y="1.5" width="2172.41" height="1386.21"/>
  <rect class="cls-1" x="42.88" y="1.5" width="2179.31" height="1386.21"/>
  <rect class="cls-1" x="42.88" y="1.5" width="2210.34" height="1400"/>
  <rect class="cls-1" x="42.88" y="1.5" width="2320.69" height="1465.52"/>
  <rect class="cls-1" x="42.88" y="1.5" width="2389.66" height="1500"/>
  <rect class="cls-1" x="42.88" y="1.5" width="2427.59" height="1520.69"/>
  <rect class="cls-1" x="42.88" y="1.5" width="2451.72" height="1531.03"/>
  <rect class="cls-1" x="42.88" y="1.5" width="2451.72" height="1531.03"/>
  <rect class="cls-1" x="42.88" y="1.5" width="2451.72" height="1531.03"/>
  <rect class="cls-1" x="42.88" y="1.5" width="2451.72" height="1531.03"/>
  <rect class="cls-1" x="42.88" y="1.5" width="2424.14" height="1534.48"/>
  <rect class="cls-1" x="42.88" y="1.5" width="2337.93" height="1534.48"/>
  <rect class="cls-1" x="42.88" y="1.5" width="2331.03" height="1537.93"/>
  <rect class="cls-1" x="42.88" y="1.5" width="2303.45" height="1541.38"/>
  <rect class="cls-1" x="42.88" y="1.5" width="2303.45" height="1555.17"/>
  <rect class="cls-1" x="42.88" y="1.5" width="2331.03" height="1593.1"/>
  <rect class="cls-1" x="42.88" y="1.5" width="2462.07" height="1700"/>
  <rect class="cls-1" x="42.88" y="1.5" width="2672.41" height="1841.38"/>
  <rect class="cls-1" x="42.88" y="1.5" width="2796.55" height="1920.69"/>
  <rect class="cls-1" x="42.88" y="1.5" width="2834.48" height="1948.28"/>
  <rect class="cls-1" x="42.88" y="1.5" width="2875.86" height="1982.76"/>
  <rect class="cls-1" x="42.88" y="1.5" width="2841.38" height="2003.45"/>
  <rect class="cls-1" x="42.88" y="1.5" width="2779.31" height="2024.14"/>
  <rect class="cls-1" x="42.88" y="1.5" width="2617.24" height="2065.52"/>
  <rect class="cls-1" x="42.88" y="1.5" width="2406.9" height="2093.1"/>
  <rect class="cls-1" x="42.88" y="1.5" width="2344.83" height="2096.55"/>
  <rect class="cls-1" x="42.88" y="1.5" width="2175.86" height="2096.55"/>
  <rect class="cls-1" x="42.88" y="1.5" width="2027.59" height="2082.76"/>
  <rect class="cls-1" x="42.88" y="1.5" width="1865.52" height="2051.72"/>
  <rect class="cls-1" x="42.88" y="1.5" width="1686.21" height="2013.79"/>
  <rect class="cls-1" x="42.88" y="1.5" width="1493.1" height="1975.86"/>
  <rect class="cls-1" x="42.88" y="1.5" width="1162.07" height="1948.28"/>
  <rect class="cls-1" x="42.88" y="1.5" width="1124.14" height="1948.28"/>
  <rect class="cls-1" x="42.88" y="1.5" width="1086.21" height="1948.28"/>
  <rect class="cls-1" x="42.88" y="1.5" width="1068.97" height="1951.72"/>
  <rect class="cls-1" x="42.88" y="1.5" width="1075.86" height="1962.07"/>
  <rect class="cls-1" x="42.88" y="1.5" width="1106.9" height="1989.66"/>
  <rect class="cls-1" x="42.88" y="1.5" width="1141.38" height="2013.79"/>
  <rect class="cls-1" x="42.88" y="1.5" width="1165.52" height="2024.14"/>
  <rect class="cls-1" x="42.88" y="1.5" width="1165.52" height="2027.59"/>
  <rect class="cls-1" x="42.88" y="1.5" width="1162.07" height="2034.48"/>
  <rect class="cls-1" x="42.88" y="1.5" width="1151.72" height="2051.72"/>
  <rect class="cls-1" x="42.88" y="1.5" width="1131.03" height="2075.86"/>
  <rect class="cls-1" x="42.88" y="1.5" width="1010.34" height="2206.9"/>
  <rect class="cls-1" x="42.88" y="1.5" width="824.14" height="2372.41"/>
  <rect class="cls-1" x="42.88" y="1.5" width="751.72" height="2434.48"/>
  <rect class="cls-1" x="42.88" y="1.5" width="575.86" height="2589.66"/>
  <rect class="cls-1" x="42.88" y="1.5" width="472.41" height="2696.55"/>
  <rect class="cls-1" x="42.88" y="1.5" width="441.38" height="2734.48"/>
  <rect class="cls-1" x="42.88" y="1.5" width="441.38" height="2734.48"/>
  <rect class="cls-1" x="42.88" y="1.5" width="441.38" height="2734.48"/>
  <rect class="cls-1" x="42.88" y="1.5" width="444.83" height="2731.03"/>
  <rect class="cls-1" x="42.88" y="1.5" width="455.17" height="2700"/>
  <rect class="cls-1" x="42.88" y="1.5" width="462.07" height="2655.17"/>
  <rect class="cls-1" x="42.88" y="1.5" width="465.52" height="2603.45"/>
  <rect class="cls-1" x="42.88" y="1.5" width="465.52" height="2555.17"/>
  <rect class="cls-1" x="42.88" y="1.5" width="462.07" height="2524.14"/>
  <rect class="cls-1" x="42.88" y="1.5" width="455.17" height="2496.55"/>
  <rect class="cls-1" x="42.88" y="1.5" width="441.38" height="2444.83"/>
  <rect class="cls-1" x="42.88" y="1.5" width="427.59" height="2427.59"/>
  <rect class="cls-1" x="42.88" y="1.5" width="420.69" height="2434.48"/>
  <rect class="cls-1" x="42.88" y="1.5" width="420.69" height="2434.48"/>
  <rect class="cls-1" x="42.88" y="1.5" width="420.69" height="2434.48"/>
  <rect class="cls-1" x="42.88" y="1.5" width="420.69" height="2437.93"/>
  <rect class="cls-1" x="42.88" y="1.5" width="406.9" height="2496.55"/>
  <rect class="cls-1" x="42.88" y="1.5" width="400" height="2534.48"/>
  <rect class="cls-1" x="42.88" y="1.5" width="365.52" height="2682.76"/>
  <rect class="cls-1" x="42.88" y="1.5" width="317.24" height="2889.66"/>
  <rect class="cls-1" x="42.88" y="1.5" width="310.34" height="2951.72"/>
  <rect class="cls-1" x="42.88" y="1.5" width="317.24" height="2975.86"/>
  <rect class="cls-1" x="42.88" y="1.5" width="368.97" height="3055.17"/>
  <rect class="cls-1" x="42.88" y="1.5" width="534.48" height="3127.59"/>
  <rect class="cls-1" x="42.88" y="1.5" width="848.28" height="3196.55"/>
  <rect class="cls-1" x="42.88" y="1.5" width="886.21" height="3255.17"/>
  <rect class="cls-1" x="42.88" y="1.5" width="865.52" height="3317.24"/>
  <rect class="cls-1" x="42.88" y="1.5" width="631.03" height="3417.24"/>
  <rect class="cls-1" x="42.88" y="1.5" width="389.66" height="3506.9"/>
  <rect class="cls-1" x="42.88" y="1.5" width="368.97" height="3562.07"/>
  <rect class="cls-1" x="42.88" y="1.5" width="368.97" height="3620.69"/>
  <rect class="cls-1" x="42.88" y="1.5" width="382.76" height="3668.97"/>
  <rect class="cls-1" x="42.88" y="1.5" width="441.38" height="3641.38"/>
  <rect class="cls-1" x="42.88" y="1.5" width="517.24" height="3575.86"/>
  <rect class="cls-1" x="42.88" y="1.5" width="534.48" height="3527.59"/>
  <rect class="cls-1" x="42.88" y="1.5" width="544.83" height="3472.41"/>
  <rect class="cls-1" x="42.88" y="1.5" width="544.83" height="3372.41"/>
  <rect class="cls-1" x="42.88" y="1.5" width="544.83" height="3331.03"/>
  <rect class="cls-1" x="42.88" y="1.5" width="537.93" height="3200"/>
  <rect class="cls-1" x="42.88" y="1.5" width="537.93" height="3113.79"/>
  <rect class="cls-1" x="42.88" y="1.5" width="537.93" height="3075.86"/>
  <rect class="cls-1" x="42.88" y="1.5" width="537.93" height="3062.07"/>
  <rect class="cls-1" x="42.88" y="1.5" width="551.72" height="3037.93"/>
  <rect class="cls-1" x="42.88" y="1.5" width="558.62" height="3027.59"/>
  <rect class="cls-1" x="42.88" y="1.5" width="593.1" height="3013.79"/>
  <rect class="cls-1" x="42.88" y="1.5" width="624.14" height="3003.45"/>
  <rect class="cls-1" x="42.88" y="1.5" width="637.93" height="3003.45"/>
  <rect class="cls-1" x="42.88" y="1.5" width="637.93" height="3003.45"/>
  <rect class="cls-1" x="42.88" y="1.5" width="672.41" height="2986.21"/>
  <rect class="cls-1" x="42.88" y="1.5" width="720.69" height="2962.07"/>
  <rect class="cls-1" x="42.88" y="1.5" width="744.83" height="2951.72"/>
  <rect class="cls-1" x="42.88" y="1.5" width="817.24" height="2924.14"/>
  <rect class="cls-1" x="42.88" y="1.5" width="872.41" height="2910.34"/>
  <rect class="cls-1" x="42.88" y="1.5" width="920.69" height="2900"/>
  <rect class="cls-1" x="42.88" y="1.5" width="931.03" height="2900"/>
  <rect class="cls-1" x="42.88" y="1.5" width="944.83" height="2889.66"/>
  <rect class="cls-1" x="42.88" y="1.5" width="944.83" height="2889.66"/>
  <rect class="cls-1" x="42.88" y="1.5" width="944.83" height="2889.66"/>
  <rect class="cls-1" x="42.88" y="1.5" width="944.83" height="2889.66"/>
  <rect class="cls-1" x="42.88" y="1.5" width="944.83" height="2889.66"/>
  <rect class="cls-1" x="42.88" y="1.5" width="948.28" height="2882.76"/>
  <rect class="cls-1" x="42.88" y="1.5" width="975.86" height="2855.17"/>
  <rect class="cls-1" x="42.88" y="1.5" width="1051.72" height="2813.79"/>
  <rect class="cls-1" x="42.88" y="1.5" width="1196.55" height="2762.07"/>
  <rect class="cls-1" x="42.88" y="1.5" width="1480.62" height="2655.17"/>
  <rect class="cls-1" x="42.88" y="1.5" width="1520.69" height="2641.38"/>
  <rect class="cls-1" x="42.88" y="1.5" width="1520.69" height="2641.38"/>
  <rect class="cls-1" x="42.88" y="1.5" width="1520.69" height="2641.38"/>
  <rect class="cls-1" x="42.88" y="1.5" width="1520.69" height="2641.38"/>
  <rect class="cls-1" x="42.88" y="1.5" width="1520.69" height="2634.48"/>
  <rect class="cls-1" x="42.88" y="1.5" width="1520.69" height="2634.48"/>
  <rect class="cls-1" x="42.88" y="1.5" width="1517.24" height="2631.03"/>
  <rect class="cls-1" x="42.88" y="1.5" width="1513.79" height="2627.59"/>
  <rect class="cls-1" x="42.88" y="1.5" width="1513.79" height="2627.59"/>
  <rect class="cls-1" x="42.88" y="1.5" width="1513.79" height="2627.59"/>
  <rect class="cls-1" x="42.88" y="1.5" width="1513.79" height="2627.59"/>
</svg>